<?xml version="1.0" encoding="UTF-8"?>
<svg xmlns="http://www.w3.org/2000/svg" width="25" height="9" viewBox="0 0 25 9" fill="none">
  <path fill-rule="evenodd" clip-rule="evenodd" d="M1.571 3.786a.786.786 0 0 0 0 1.571H23.43a.786.786 0 0 0 0-1.571H1.57zm0-.786a1.571 1.571 0 1 0 0 3.143H23.43a1.571 1.571 0 0 0 0-3.143H1.57z" fill="#212121"></path>
  <path d="M6.136 5.017c1.956-1.28 4.37-.426 3.581-1.627-.79-1.2-3.254-1.28-5.21.001C2.551 4.671.91 5.541 1.7 6.743c.79 1.2 2.482-.446 4.437-1.726z" fill="#fff"></path>
  <path fill-rule="evenodd" clip-rule="evenodd" d="M9.097 3.559a11.012 11.012 0 0 1-.36.048c-.735.092-1.884.235-2.924.916-.403.264-.796.544-1.163.805l-.262.186c-.447.317-.842.587-1.192.78-.362.198-.604.273-.756.276-.092.001-.158-.015-.248-.151-.119-.181-.116-.288-.093-.372.032-.118.134-.289.38-.522.403-.382 1.007-.771 1.752-1.252l.6-.388c.882-.578 1.873-.843 2.712-.835.737.008 1.265.219 1.554.509zm-.273.631c-.742.094-1.766.223-2.688.827a35.79 35.79 0 0 0-1.14.789c-1.458 1.037-2.666 1.897-3.297.937-.712-1.082.552-1.896 2.24-2.984.185-.119.375-.241.568-.368 1.956-1.28 4.42-1.202 5.21-.001.418.635-.06.695-.893.8z" fill="#212121"></path>
  <path d="M18.864 5.017c-1.956-1.28-4.37-.426-3.581-1.627.79-1.2 3.254-1.28 5.21.001 1.956 1.28 3.598 2.15 2.808 3.352-.79 1.2-2.482-.446-4.437-1.726z" fill="#fff"></path>
  <path fill-rule="evenodd" clip-rule="evenodd" d="M16.263 3.607c.735.092 1.884.235 2.924.916.403.264.796.544 1.163.805l.262.186c.447.317.842.587 1.192.78.362.198.604.273.756.276.092.001.158-.015.248-.151.119-.181.116-.288.093-.372-.032-.118-.134-.289-.38-.522-.403-.382-1.007-.771-1.752-1.252l-.6-.388c-.882-.578-1.873-.843-2.713-.835-.736.008-1.264.219-1.553.509.064.01.136.02.216.03l.144.018zm-.087.583c.742.094 1.766.223 2.688.827.392.257.774.528 1.14.789 1.458 1.037 2.666 1.897 3.297.937.712-1.082-.552-1.896-2.24-2.984a88.76 88.76 0 0 1-.568-.368c-1.956-1.28-4.42-1.202-5.21-.001-.418.635.06.695.893.8z" fill="#212121"></path>
  <path d="M17 4.5a4.5 4.5 0 1 1-9 0 4.5 4.5 0 0 1 9 0z" fill="#fff"></path>
  <path fill-rule="evenodd" clip-rule="evenodd" d="M12.5 8.219a3.719 3.719 0 1 0 0-7.438 3.719 3.719 0 0 0 0 7.438zm0 .781a4.5 4.5 0 1 0 0-9 4.5 4.5 0 0 0 0 9z" fill="#212121"></path>
  <path fill-rule="evenodd" clip-rule="evenodd" d="M11.37 4.39l1.055 1.059L13.48 4.39l-1.055-1.059L11.37 4.39zm-.91 0l1.965 1.972L14.39 4.39l-1.965-1.97-1.964 1.97z" fill="#212121"></path>
</svg>
