<?xml version="1.0" encoding="UTF-8"?>
<svg xmlns="http://www.w3.org/2000/svg" width="25" height="9" viewBox="0 0 25 9" fill="none">
  <mask id="a" fill="#fff">
    <path fill-rule="evenodd" clip-rule="evenodd" d="M12.484 9a4.492 4.492 0 0 0 4.485-4.5c0-2.485-2.008-4.5-4.485-4.5A4.492 4.492 0 0 0 8 4.5C8 6.985 10.008 9 12.484 9zm-1.012-4.498l1.012-1.016 1.013 1.016-1.013 1.016-1.012-1.016zm-.91 0l.455-.457L12.03 3.03l.454-.457.455.457 1.012 1.015.455.457-.455.456-1.012 1.016-.455.456-.454-.456-1.013-1.016-.454-.456z"></path>
  </mask>
  <path fill-rule="evenodd" clip-rule="evenodd" d="M12.484 9a4.492 4.492 0 0 0 4.485-4.5c0-2.485-2.008-4.5-4.485-4.5A4.492 4.492 0 0 0 8 4.5C8 6.985 10.008 9 12.484 9zm-1.012-4.498l1.012-1.016 1.013 1.016-1.013 1.016-1.012-1.016zm-.91 0l.455-.457L12.03 3.03l.454-.457.455.457 1.012 1.015.455.457-.455.456-1.012 1.016-.455.456-.454-.456-1.013-1.016-.454-.456z" fill="#fff"></path>
  <path d="M12.484 3.486l.457-.455-.457-.458-.456.458.456.455zm-1.012 1.016l-.456-.455-.454.455.454.455.456-.455zm2.025 0l.456.455.453-.455-.453-.455-.456.455zm-1.013 1.016l-.456.454.456.458.457-.458-.457-.454zm-1.467-1.473l.457.455-.457-.455zm-.454.457l-.457-.455-.453.455.453.455.457-.455zM12.03 3.03l-.457-.455.457.455zm.454-.457l.457-.455-.457-.458-.456.458.456.455zm.455.457l-.456.454.456-.454zm1.012 1.015l.457-.454-.457.454zm.455.457l.457.455.453-.455-.453-.455-.457.455zm-.455.456l.457.455-.457-.455zM12.94 5.974l-.456-.455.456.455zm-.455.456l-.456.455.456.458.457-.458-.457-.455zm-.454-.456l-.457.455.457-.455zm-1.013-1.016l.457-.455-.457.455zm5.308-.458a3.848 3.848 0 0 1-3.84 3.856v1.288c2.834 0 5.128-2.305 5.128-5.144h-1.288zM12.485.644a3.848 3.848 0 0 1 3.84 3.856h1.288c0-2.839-2.294-5.144-5.129-5.144V.644zM8.644 4.5a3.848 3.848 0 0 1 3.84-3.856V-.644c-2.835 0-5.13 2.305-5.13 5.144h1.29zm3.84 3.856A3.848 3.848 0 0 1 8.644 4.5h-1.29c0 2.839 2.295 5.144 5.13 5.144V8.356zm-.457-5.325l-1.012 1.016.912.91 1.013-1.016-.913-.91zm1.925 1.016L12.941 3.03l-.913.91 1.012 1.016.913-.91zM12.94 5.972l1.012-1.016-.913-.91-1.012 1.017.913.91zm-1.925-1.016l1.012 1.016.913-.91-1.013-1.015-.912.91zm-.455-1.365l-.455.456.913.91.455-.457-.913-.91zm1.012-1.016L10.561 3.59l.913.91 1.012-1.017-.913-.91zm.455-.457l-.455.457.913.91.455-.457-.913-.91zm1.367.457l-.454-.457-.913.91.455.456.912-.91zm1.013 1.016l-1.012-1.016-.913.91L13.495 4.5l.913-.91zm.455.456l-.455-.456-.913.91.455.455.913-.91zm-.455 1.366l.455-.457-.913-.91-.455.457.913.91zm-1.012 1.016l1.012-1.016-.913-.91-1.012 1.016.912.91zm-.455.456l.454-.456-.912-.91-.455.457.913.91zm-1.368-.456l.455.456.913-.91-.455-.456-.913.91zM10.56 5.413l1.012 1.016.913-.91-1.012-1.016-.913.91zm-.455-.457l.455.457.913-.91-.455-.456-.913.91z" fill="#212121" mask="url(#a)"></path>
  <path d="M21.144 4.48c1.956 1.281 4.37.427 3.581 1.628-.79 1.2-3.254 1.279-5.21-.001-1.956-1.28-3.598-2.151-2.808-3.352.79-1.2 2.481.446 4.437 1.726z" fill="#fff"></path>
  <path fill-rule="evenodd" clip-rule="evenodd" d="M23.745 5.891c-.735-.092-1.884-.235-2.924-.916a36.495 36.495 0 0 1-1.163-.805l-.262-.186a13.283 13.283 0 0 0-1.192-.78c-.362-.199-.604-.273-.756-.276-.092-.002-.159.015-.248.151-.12.181-.116.288-.093.372.032.118.134.288.38.522.403.382 1.007.771 1.752 1.251l.6.389c.882.578 1.873.843 2.712.835.737-.008 1.265-.219 1.554-.51l-.216-.029-.144-.018zm.087-.584c-.742-.093-1.766-.223-2.688-.826a35.433 35.433 0 0 1-1.14-.79c-1.458-1.037-2.666-1.896-3.297-.936-.712 1.082.552 1.896 2.24 2.983.184.12.375.242.568.369 1.956 1.28 4.42 1.202 5.21 0 .417-.634-.06-.695-.893-.8z" fill="#212121"></path>
  <path d="M21.14 5.017c1.956-1.28 4.37-.426 3.58-1.627-.789-1.2-3.254-1.28-5.21.001-1.955 1.28-3.597 2.151-2.808 3.352.79 1.2 2.482-.446 4.438-1.726z" fill="#fff"></path>
  <path fill-rule="evenodd" clip-rule="evenodd" d="M24.1 3.559a10.935 10.935 0 0 1-.36.048c-.734.092-1.883.235-2.923.916-.403.264-.797.544-1.164.805l-.261.186c-.448.317-.842.587-1.192.78-.362.199-.605.273-.757.276-.091.002-.158-.015-.248-.151-.119-.181-.115-.288-.093-.372.032-.118.135-.288.381-.522.402-.382 1.007-.771 1.751-1.251l.6-.39c.883-.577 1.874-.842 2.713-.834.737.008 1.265.219 1.553.509zm-.273.632c-.742.093-1.766.223-2.687.826-.393.257-.774.529-1.14.789-1.459 1.037-2.666 1.897-3.297.937-.712-1.082.551-1.896 2.239-2.983l.569-.369c1.955-1.28 4.42-1.202 5.21 0 .417.634-.061.694-.894.8z" fill="#212121"></path>
  <path d="M3.86 4.479C1.904 5.759-.511 4.905.279 6.106c.79 1.2 3.254 1.279 5.21-.001 1.955-1.28 3.597-2.151 2.808-3.352-.79-1.2-2.482.446-4.437 1.726z" fill="#fff"></path>
  <path fill-rule="evenodd" clip-rule="evenodd" d="M.899 5.937c.289.29.817.501 1.553.509.84.008 1.83-.257 2.714-.835l.6-.389c.744-.48 1.348-.87 1.75-1.251.246-.234.349-.404.38-.522.023-.084.027-.19-.092-.372-.09-.136-.156-.153-.248-.151-.152.003-.394.077-.756.277-.35.192-.745.462-1.192.779l-.262.186c-.367.26-.76.54-1.163.805-1.04.68-2.19.824-2.924.916a38.635 38.635 0 0 0-.36.048zm.273-.632c.742-.093 1.766-.223 2.688-.826.392-.257.774-.529 1.14-.79 1.458-1.037 2.666-1.896 3.297-.936.711 1.082-.552 1.896-2.24 2.983-.185.12-.375.242-.568.369-1.956 1.28-4.42 1.202-5.21 0-.418-.634.06-.695.893-.8z" fill="#212121"></path>
  <path d="M3.863 5.015c-1.956-1.28-4.37-.426-3.58-1.627.789-1.2 3.254-1.279 5.21.001C7.447 4.67 9.09 5.54 8.3 6.741c-.79 1.2-2.481-.446-4.437-1.726z" fill="#fff"></path>
  <path fill-rule="evenodd" clip-rule="evenodd" d="M1.262 3.605c.735.092 1.884.235 2.924.916.403.264.797.544 1.164.805l.261.186c.448.317.842.587 1.192.78.362.199.605.273.757.276.091.002.158-.015.247-.151.12-.181.116-.288.093-.372-.032-.118-.134-.288-.38-.522-.402-.382-1.007-.771-1.751-1.251l-.6-.389c-.883-.578-1.874-.843-2.713-.835-.737.008-1.265.219-1.554.509.064.01.136.02.217.03l.143.018zm-.086.584c.742.093 1.765.223 2.687.826.393.257.774.529 1.14.79C6.462 6.84 7.67 7.7 8.3 6.74c.712-1.082-.551-1.896-2.24-2.983l-.568-.369c-1.955-1.28-4.42-1.202-5.21 0-.417.634.061.694.894.8z" fill="#212121"></path>
</svg>
