<?xml version="1.0" encoding="UTF-8"?>
<svg xmlns="http://www.w3.org/2000/svg" width="25" height="15" viewBox="0 0 25 15" fill="none">
  <path d="M.786 7.571c0-.434.351-.785.785-.785h5.192L7.5 6H1.571a1.571 1.571 0 1 0 0 3.143h5.875l-.736-.786H1.57a.786.786 0 0 1-.785-.786zm17.504.786l-.736.786h5.875a1.571 1.571 0 0 0 0-3.143H17.5l.737.786h5.192a.786.786 0 0 1 0 1.571H18.29z" fill="#212121"></path>
  <mask id="a" maskUnits="userSpaceOnUse" x="5" y="0" width="15" height="15" fill="#000">
    <path fill="#fff" d="M5 0h15v15H5z"></path>
    <path d="M10.857 5.625a.232.232 0 0 0-.232.232v.866l-.612.613a.232.232 0 0 0 0 .328l.612.613v.866a.232.232 0 0 0 .232.232h.866l.613.612a.23.23 0 0 0 .164.069.231.231 0 0 0 .164-.069l.613-.612h.866a.232.232 0 0 0 .232-.232v-.866c.903-.927.91-.623 0-1.554-.018-1.296.207-1.082-1.098-1.098l-.613-.612a.231.231 0 0 0-.328 0l-.613.612h-.866zm1.127.396l.516-.516.516.516a.233.233 0 0 0 .165.068h.73v.73c0 .062.024.121.068.165l.516.516-.516.516a.232.232 0 0 0-.068.164v.73h-.73a.232.232 0 0 0-.165.069l-.516.516-.516-.516a.233.233 0 0 0-.165-.068h-.73v-.73a.232.232 0 0 0-.068-.165l-.516-.516.516-.516a.232.232 0 0 0 .068-.164v-.73h.73a.232.232 0 0 0 .165-.069z"></path>
    <path d="M12.5 8.554a1.054 1.054 0 0 0 0-2.108 1.054 1.054 0 0 0 0 2.108zm0-1.643a.589.589 0 0 1 0 1.178.59.59 0 0 1 0-1.178z"></path>
    <path d="M16.018 4.214A.23.23 0 0 0 15.874 4a.232.232 0 0 0-.088-.018h-1.829L12.664 2.69a.231.231 0 0 0-.328 0l-1.293 1.293H9.214a.232.232 0 0 0-.232.232v1.829L7.69 7.336a.232.232 0 0 0 0 .328l1.293 1.293v1.829a.232.232 0 0 0 .232.232h1.829l1.293 1.293a.231.231 0 0 0 .328 0l1.293-1.293h1.829a.232.232 0 0 0 .232-.232V8.957l1.293-1.293a.233.233 0 0 0 0-.328l-1.293-1.293V4.214zm-.465.232v1.132l-1.132-1.132h1.133zm0 1.789v2.53l-1.788 1.789h-2.53L9.447 8.765v-2.53l1.788-1.789h2.53l1.788 1.789zM12.5 3.182l.8.8h-1.6l.8-.8zM9.447 4.446h1.132L9.447 5.578V4.446zM8.182 7.5l.8-.8v1.6l-.8-.8zm1.265 3.054V9.422l1.132 1.132H9.447zm3.053 1.264l-.8-.8h1.6l-.8.8zm3.053-1.264h-1.132l1.133-1.132v1.132zM16.819 7.5l-.8.8V6.7l.8.8z"></path>
    <path d="M18.932 7.336l-1.768-1.768v-2.5a.232.232 0 0 0-.232-.232h-2.5l-1.768-1.768a.231.231 0 0 0-.328 0l-1.768 1.768h-2.5a.232.232 0 0 0-.232.232v2.5L6.068 7.336a.232.232 0 0 0 0 .328l1.768 1.768v2.5a.232.232 0 0 0 .232.232h2.5l1.768 1.768A.23.23 0 0 0 12.5 14a.231.231 0 0 0 .164-.068l1.768-1.768h2.5a.232.232 0 0 0 .232-.232v-2.5l1.768-1.768a.23.23 0 0 0 .05-.253.23.23 0 0 0-.05-.075zm-2.164 1.836a.232.232 0 0 0-.068.164V11.7h-2.364a.232.232 0 0 0-.164.068L12.5 13.44l-1.672-1.672a.23.23 0 0 0-.164-.068H8.3V9.336a.232.232 0 0 0-.068-.164L6.56 7.5l1.672-1.672a.232.232 0 0 0 .068-.164V3.3h2.364a.232.232 0 0 0 .164-.068L12.5 1.56l1.672 1.672a.232.232 0 0 0 .164.068H16.7v2.364c0 .062.024.12.068.164L18.44 7.5l-1.672 1.672z"></path>
  </mask>
  <path d="M10.857 5.625a.232.232 0 0 0-.232.232v.866l-.612.613a.232.232 0 0 0 0 .328l.612.613v.866a.232.232 0 0 0 .232.232h.866l.613.612a.23.23 0 0 0 .164.069.231.231 0 0 0 .164-.069l.613-.612h.866a.232.232 0 0 0 .232-.232v-.866c.903-.927.91-.623 0-1.554-.018-1.296.207-1.082-1.098-1.098l-.613-.612a.231.231 0 0 0-.328 0l-.613.612h-.866zm1.127.396l.516-.516.516.516a.233.233 0 0 0 .165.068h.73v.73c0 .062.024.121.068.165l.516.516-.516.516a.232.232 0 0 0-.068.164v.73h-.73a.232.232 0 0 0-.165.069l-.516.516-.516-.516a.233.233 0 0 0-.165-.068h-.73v-.73a.232.232 0 0 0-.068-.165l-.516-.516.516-.516a.232.232 0 0 0 .068-.164v-.73h.73a.232.232 0 0 0 .165-.069z" fill="#212121"></path>
  <path d="M12.5 8.554a1.054 1.054 0 0 0 0-2.108 1.054 1.054 0 0 0 0 2.108zm0-1.643a.589.589 0 0 1 0 1.178.59.59 0 0 1 0-1.178z" fill="#212121"></path>
  <path d="M16.018 4.214A.23.23 0 0 0 15.874 4a.232.232 0 0 0-.088-.018h-1.829L12.664 2.69a.231.231 0 0 0-.328 0l-1.293 1.293H9.214a.232.232 0 0 0-.232.232v1.829L7.69 7.336a.232.232 0 0 0 0 .328l1.293 1.293v1.829a.232.232 0 0 0 .232.232h1.829l1.293 1.293a.231.231 0 0 0 .328 0l1.293-1.293h1.829a.232.232 0 0 0 .232-.232V8.957l1.293-1.293a.233.233 0 0 0 0-.328l-1.293-1.293V4.214zm-.465.232v1.132l-1.132-1.132h1.133zm0 1.789v2.53l-1.788 1.789h-2.53L9.447 8.765v-2.53l1.788-1.789h2.53l1.788 1.789zM12.5 3.182l.8.8h-1.6l.8-.8zM9.447 4.446h1.132L9.447 5.578V4.446zM8.182 7.5l.8-.8v1.6l-.8-.8zm1.265 3.054V9.422l1.132 1.132H9.447zm3.053 1.264l-.8-.8h1.6l-.8.8zm3.053-1.264h-1.132l1.133-1.132v1.132zM16.819 7.5l-.8.8V6.7l.8.8z" fill="#212121"></path>
  <path d="M18.932 7.336l-1.768-1.768v-2.5a.232.232 0 0 0-.232-.232h-2.5l-1.768-1.768a.231.231 0 0 0-.328 0l-1.768 1.768h-2.5a.232.232 0 0 0-.232.232v2.5L6.068 7.336a.232.232 0 0 0 0 .328l1.768 1.768v2.5a.232.232 0 0 0 .232.232h2.5l1.768 1.768A.23.23 0 0 0 12.5 14a.231.231 0 0 0 .164-.068l1.768-1.768h2.5a.232.232 0 0 0 .232-.232v-2.5l1.768-1.768a.23.23 0 0 0 .05-.253.23.23 0 0 0-.05-.075zm-2.164 1.836a.232.232 0 0 0-.068.164V11.7h-2.364a.232.232 0 0 0-.164.068L12.5 13.44l-1.672-1.672a.23.23 0 0 0-.164-.068H8.3V9.336a.232.232 0 0 0-.068-.164L6.56 7.5l1.672-1.672a.232.232 0 0 0 .068-.164V3.3h2.364a.232.232 0 0 0 .164-.068L12.5 1.56l1.672 1.672a.232.232 0 0 0 .164.068H16.7v2.364c0 .062.024.12.068.164L18.44 7.5l-1.672 1.672z" fill="#212121"></path>
  <path d="M10.857 5.625a.232.232 0 0 0-.232.232v.866l-.612.613a.232.232 0 0 0 0 .328l.612.613v.866a.232.232 0 0 0 .232.232h.866l.613.612a.23.23 0 0 0 .164.069.231.231 0 0 0 .164-.069l.613-.612h.866a.232.232 0 0 0 .232-.232v-.866c.903-.927.91-.623 0-1.554-.018-1.296.207-1.082-1.098-1.098l-.613-.612a.231.231 0 0 0-.328 0l-.613.612h-.866zm1.127.396l.516-.516.516.516a.233.233 0 0 0 .165.068h.73v.73c0 .062.024.121.068.165l.516.516-.516.516a.232.232 0 0 0-.068.164v.73h-.73a.232.232 0 0 0-.165.069l-.516.516-.516-.516a.233.233 0 0 0-.165-.068h-.73v-.73a.232.232 0 0 0-.068-.165l-.516-.516.516-.516a.232.232 0 0 0 .068-.164v-.73h.73a.232.232 0 0 0 .165-.069z" stroke="#212121" stroke-width=".2" mask="url(#a)"></path>
  <path d="M12.5 8.554a1.054 1.054 0 0 0 0-2.108 1.054 1.054 0 0 0 0 2.108zm0-1.643a.589.589 0 0 1 0 1.178.59.59 0 0 1 0-1.178z" stroke="#212121" stroke-width=".2" mask="url(#a)"></path>
  <path d="M16.018 4.214A.23.23 0 0 0 15.874 4a.232.232 0 0 0-.088-.018h-1.829L12.664 2.69a.231.231 0 0 0-.328 0l-1.293 1.293H9.214a.232.232 0 0 0-.232.232v1.829L7.69 7.336a.232.232 0 0 0 0 .328l1.293 1.293v1.829a.232.232 0 0 0 .232.232h1.829l1.293 1.293a.231.231 0 0 0 .328 0l1.293-1.293h1.829a.232.232 0 0 0 .232-.232V8.957l1.293-1.293a.233.233 0 0 0 0-.328l-1.293-1.293V4.214zm-.465.232v1.132l-1.132-1.132h1.133zm0 1.789v2.53l-1.788 1.789h-2.53L9.447 8.765v-2.53l1.788-1.789h2.53l1.788 1.789zM12.5 3.182l.8.8h-1.6l.8-.8zM9.447 4.446h1.132L9.447 5.578V4.446zM8.182 7.5l.8-.8v1.6l-.8-.8zm1.265 3.054V9.422l1.132 1.132H9.447zm3.053 1.264l-.8-.8h1.6l-.8.8zm3.053-1.264h-1.132l1.133-1.132v1.132zM16.819 7.5l-.8.8V6.7l.8.8z" stroke="#212121" stroke-width=".2" mask="url(#a)"></path>
  <path d="M18.932 7.336l-1.768-1.768v-2.5a.232.232 0 0 0-.232-.232h-2.5l-1.768-1.768a.231.231 0 0 0-.328 0l-1.768 1.768h-2.5a.232.232 0 0 0-.232.232v2.5L6.068 7.336a.232.232 0 0 0 0 .328l1.768 1.768v2.5a.232.232 0 0 0 .232.232h2.5l1.768 1.768A.23.23 0 0 0 12.5 14a.231.231 0 0 0 .164-.068l1.768-1.768h2.5a.232.232 0 0 0 .232-.232v-2.5l1.768-1.768a.23.23 0 0 0 .05-.253.23.23 0 0 0-.05-.075zm-2.164 1.836a.232.232 0 0 0-.068.164V11.7h-2.364a.232.232 0 0 0-.164.068L12.5 13.44l-1.672-1.672a.23.23 0 0 0-.164-.068H8.3V9.336a.232.232 0 0 0-.068-.164L6.56 7.5l1.672-1.672a.232.232 0 0 0 .068-.164V3.3h2.364a.232.232 0 0 0 .164-.068L12.5 1.56l1.672 1.672a.232.232 0 0 0 .164.068H16.7v2.364c0 .062.024.12.068.164L18.44 7.5l-1.672 1.672z" stroke="#212121" stroke-width=".2" mask="url(#a)"></path>
</svg>
