<?xml version="1.0" encoding="UTF-8"?>
<svg xmlns="http://www.w3.org/2000/svg" width="25" height="12" viewBox="0 0 25 12" fill="none">
  <path d="M20.688 6.113c2.173 1.426 4.857.474 3.98 1.812-.878 1.337-3.617 1.424-5.79-.002-2.173-1.425-3.997-2.395-3.12-3.732.878-1.337 2.757.496 4.93 1.922z" fill="#fff"></path>
  <path fill-rule="evenodd" clip-rule="evenodd" d="M23.59 7.596c-.817-.102-2.075-.26-3.214-1.007a40.406 40.406 0 0 1-1.289-.894l-.291-.208c-.497-.352-.94-.656-1.333-.873-.406-.223-.69-.315-.88-.318-.132-.003-.234.031-.35.207-.143.22-.147.365-.114.486.042.155.169.358.447.623.454.431 1.134.87 1.963 1.406l.661.43c.995.653 2.113.953 3.063.943.926-.009 1.582-.304 1.894-.716a7.625 7.625 0 0 0-.398-.059l-.159-.02zm.084-.563c-.824-.104-1.962-.248-2.986-.92a39.8 39.8 0 0 1-1.267-.879c-1.62-1.155-2.962-2.112-3.663-1.043-.79 1.205.613 2.112 2.488 3.322l.632.41c2.173 1.426 4.912 1.339 5.79.002.463-.707-.068-.775-.994-.892z" fill="#212121"></path>
  <path d="M20.688 6.707c2.173-1.426 4.857-.474 3.98-1.811-.878-1.338-3.617-1.425-5.79 0-2.173 1.427-3.997 2.396-3.12 3.733.878 1.337 2.757-.496 4.93-1.922z" fill="#fff"></path>
  <path fill-rule="evenodd" clip-rule="evenodd" d="M24.147 5.145a7.88 7.88 0 0 1-.398.059l-.159.02c-.817.103-2.075.26-3.214 1.008-.446.292-.882.603-1.289.894l-.291.207c-.497.352-.94.656-1.333.873-.406.224-.69.315-.88.319-.132.002-.234-.032-.35-.208-.143-.22-.147-.365-.114-.486.042-.154.169-.358.447-.623.454-.43 1.134-.87 1.963-1.406.211-.136.432-.28.661-.43.995-.652 2.113-.953 3.063-.943.926.01 1.582.305 1.894.716zm-.473.642c-.824.104-1.962.248-2.986.92-.436.286-.86.589-1.267.879-1.62 1.155-2.962 2.112-3.663 1.043-.79-1.205.613-2.111 2.488-3.322l.632-.41c2.173-1.426 4.912-1.339 5.79-.001.463.707-.068.774-.994.89z" fill="#212121"></path>
  <path d="M4.3 6.113C2.127 7.54-.556 6.587.32 7.925c.878 1.337 3.616 1.424 5.79-.002 2.172-1.425 3.997-2.395 3.12-3.732-.878-1.337-2.758.496-4.931 1.922z" fill="#fff"></path>
  <path fill-rule="evenodd" clip-rule="evenodd" d="M.841 7.675c.312.412.968.707 1.895.716.95.01 2.067-.29 3.062-.943l.662-.43c.828-.535 1.509-.975 1.962-1.406.278-.265.406-.468.447-.623.033-.121.03-.266-.114-.486-.116-.176-.217-.21-.35-.207-.19.003-.474.095-.88.318-.393.217-.836.52-1.332.873l-.292.208c-.407.29-.843.6-1.289.894-1.138.747-2.397.905-3.214 1.007l-.159.02c-.16.02-.29.04-.398.06zm.473-.642c.824-.104 1.962-.248 2.986-.92.436-.286.86-.589 1.267-.879C7.187 4.08 8.529 3.122 9.23 4.191c.79 1.205-.613 2.112-2.488 3.322l-.632.41C3.937 9.35 1.2 9.262.321 7.925c-.464-.707.068-.775.993-.892z" fill="#212121"></path>
  <path d="M4.298 6.707C2.125 5.281-.558 6.233.319 4.896c.878-1.338 3.616-1.425 5.79 0 2.172 1.427 3.997 2.396 3.12 3.733-.878 1.337-2.758-.496-4.931-1.922z" fill="#fff"></path>
  <path fill-rule="evenodd" clip-rule="evenodd" d="M1.396 5.224c.817.103 2.076.26 3.214 1.008.446.292.882.603 1.29.894l.29.207c.497.352.94.656 1.334.873.405.224.69.315.88.319.132.002.233-.032.349-.208.144-.22.147-.365.114-.486-.041-.154-.169-.358-.447-.623-.453-.43-1.134-.87-1.962-1.406a110.9 110.9 0 0 1-.662-.43c-.995-.652-2.112-.953-3.062-.943-.927.01-1.583.305-1.895.716.108.02.239.038.398.059l.159.02zm-.084.563c.824.104 1.962.248 2.986.92.436.286.86.589 1.267.879 1.62 1.155 2.962 2.112 3.663 1.043.79-1.205-.613-2.111-2.488-3.322l-.632-.41C3.935 3.47 1.197 3.558.32 4.896c-.464.707.068.774.993.89z" fill="#212121"></path>
  <path d="M16.37 6c0 3.314-1.654 6-3.693 6-2.04 0-3.692-2.686-3.692-6s1.653-6 3.692-6 3.692 2.686 3.692 6z" fill="#fff"></path>
  <path fill-rule="evenodd" clip-rule="evenodd" d="M14.786 9.934c.602-.979.994-2.368.994-3.934 0-1.566-.392-2.955-.994-3.934-.608-.988-1.37-1.477-2.11-1.477-.738 0-1.5.489-2.108 1.477-.602.979-.994 2.368-.994 3.934 0 1.566.392 2.955.994 3.934.608.988 1.37 1.477 2.109 1.477.739 0 1.5-.489 2.109-1.477zM12.676 12c2.04 0 3.693-2.686 3.693-6s-1.653-6-3.692-6c-2.04 0-3.692 2.686-3.692 6s1.653 6 3.692 6z" fill="#212121"></path>
  <path fill-rule="evenodd" clip-rule="evenodd" d="M10.488 6l2.25-2.25L14.988 6l-2.25 2.25L10.488 6zm2.25 1.412L14.15 6l-1.412-1.412L11.326 6l1.412 1.412z" fill="#212121"></path>
</svg>
