<?xml version="1.0" encoding="UTF-8"?>
<svg xmlns="http://www.w3.org/2000/svg" width="17" height="18" viewBox="0 0 17 18" fill="none">
  <path fill-rule="evenodd" clip-rule="evenodd" d="M5.413 1h6.096l.011.002c1.012.163 1.902.875 2.673 1.806.676.815 1.272 1.812 1.79 2.794l.015.03v6.499l-.01.025a10.428 10.428 0 0 1-1.797 2.91c-.976 1.105-1.984 1.71-2.65 1.927l-.02.007H5.247l-.026-.01c-.97-.408-1.825-1.147-2.502-1.924-.868-.996-1.462-2.074-1.647-2.646a1.103 1.103 0 0 1-.064-.317V5.687a.14.14 0 0 1-.004-.097.23.23 0 0 1 .008-.02l.007-.016c.511-1.178 1.107-2.08 1.7-2.758 1.074-1.228 2.145-1.73 2.685-1.795h.008zM1.288 5.86l1.372.618-1.372 1.964V5.859zm0 3.068v.049l.03-.022 1.669 2.27L4.146 8.98 2.905 6.614 1.288 8.928zm1.838-2.492l1.16 2.211 1.189-2.832-2.349.62zm2.761-1.04l2.252-.843-1.942-1.15-.31 1.992zm.441-2.238L8.46 1.322l2.159 1.836L8.46 4.42 6.328 3.158zm2.455 1.396l2.266.842-.298-1.993-1.968 1.15zm2.235-1.25l2.924-.256-.079 3.119-2.517-.669-.328-2.194zm.44 2.511l1.202 2.89 1.162-2.262-2.363-.628zm2.563.85l-1.217 2.37 1.21 2.252 1.673-2.4-1.666-2.221zm1.698 2.663l-1.512 2.17 1.462.693a9.39 9.39 0 0 0 .05-.116V9.328zm-.164 3.116l-1.411-.668.072 2.83c.476-.585.94-1.3 1.34-2.162zm-1.613 2.388l-.079-3.094-2.516.747-.328 2.274 2.923.073zm-3.19-.173l.3-2.08-2.232.864 1.931 1.216zM8.523 13.26l2.6-1.006 1.372-3.218-1.379-3.318L8.46 4.73l-2.642.987-1.393 3.319 1.354 3.143 2.744 1.081zm-2.649-.745l2.327.917L6.2 14.684l-.326-2.169zm-.441-.435l-1.17-2.717-1.092 2.113 2.262.604zm-2.636-.643l-1.51-2.053v2.719a.42.42 0 0 0 .01.075l1.5-.741zm-1.42 1.01c.188.498.652 1.333 1.32 2.158l.082-2.85-1.401.693zm1.682-.713l2.514.671.004.011.352 2.343-2.96.073.09-3.098zm.071 3.372l2.75-.067-.678 1.638c-.776-.354-1.48-.933-2.072-1.57zm2.355 1.617H8.01l-1.865-1.598-.661 1.598zm.854-1.799l2.163-1.352 2.12 1.334L8.39 16.68l-2.052-1.757zm2.446 1.799l2.003-1.594.518 1.594h-2.52zm2.801-.04c.565-.217 1.375-.715 2.191-1.577l-2.725-.068.534 1.645zm1.075-7.325l-1.195 2.802 2.329-.691-1.134-2.11zm3.058-.892l-1.5-2 1.5-.595v2.595zm-.056-2.871l-1.521.603.073-2.915c.533.695 1.015 1.501 1.448 2.312zM13.804 2.78l-2.75.241.54-1.724c.797.167 1.535.717 2.21 1.483zm-2.496-1.503h-2.47l1.95 1.658.52-1.658zm-3.223 0l-1.927 1.66-.544-1.659h2.471zm-2.758.018l.57 1.74c-.72-.023-2.008-.16-2.789-.254.903-.965 1.758-1.385 2.219-1.486zM2.696 3.26l.083 2.968-1.46-.659A10.4 10.4 0 0 1 2.696 3.26zm.36 2.908L2.97 3.045c.777.094 2.196.249 2.96.27l-.34 2.183-2.533.669z" fill="#212121"></path>
  <path fill-rule="evenodd" clip-rule="evenodd" d="M5.413.9h6.096a.1.1 0 0 1 .016.002l.011.001c1.048.169 1.958.904 2.734 1.84.683.824 1.283 1.828 1.801 2.812l-.089.047c-.517-.982-1.113-1.979-1.789-2.794-.77-.93-1.66-1.643-2.673-1.806L11.51 1H5.413l-.009.001c-.54.065-1.611.567-2.685 1.795-.593.679-1.189 1.58-1.7 2.758l-.007.017A.23.23 0 0 0 1 5.617a.14.14 0 0 0 .009.07v6.416c0 .087.025.197.064.317.185.572.779 1.65 1.647 2.646.677.777 1.531 1.516 2.502 1.923l-.038.093c-.99-.416-1.857-1.167-2.54-1.95-.874-1.003-1.476-2.093-1.667-2.68a1.197 1.197 0 0 1-.068-.35V5.705A.24.24 0 0 1 .91 5.56l.01-.028.001-.001.007-.017c.515-1.186 1.116-2.097 1.716-2.783C3.728 1.49 4.821.97 5.394.902L5.413.9zM11.52 17l.022-.007.03.096-.02.006a.1.1 0 0 1-.032.005H5.248a.1.1 0 0 1-.038-.007l-.026-.011.038-.093.026.011h6.272zm4.478-4.87l-.01.026a10.428 10.428 0 0 1-1.797 2.91c-.976 1.105-1.984 1.71-2.65 1.927l.032.096c.685-.225 1.708-.841 2.692-1.956a10.525 10.525 0 0 0 1.815-2.938l.01-.026a.099.099 0 0 0 .008-.038V5.632a.1.1 0 0 0-.011-.046l-.016-.03-.089.046.016.03v6.499zm-13.011-.905L4.146 8.98 2.905 6.614 1.288 8.928v.049l.03-.022 1.669 2.27zm-1.57-2.306l1.555 2.117L4.033 8.98l-1.14-2.175-1.477 2.113zm-.13-3.06v2.583L2.66 6.478l-1.372-.619zm.1.155v2.11L2.51 6.52l-1.121-.506zm2.899 2.633l1.189-2.832-2.349.62 1.16 2.212zm-.01-.234L3.273 6.5l2.03-.537-1.027 2.449zm3.863-3.86l-1.942-1.15-.31 1.992 2.252-.842zm-.23-.02l-1.636-.969-.26 1.678 1.895-.71zm-1.58-1.375L8.46 4.42l2.159-1.262L8.46 1.322 6.328 3.158zm.17-.015l1.962 1.161 1.986-1.161L8.46 1.454 6.499 3.143zm4.55 2.253l-.298-1.993-1.968 1.15 2.266.843zm-2.033-.863l1.91.71-.252-1.68-1.658.97zm4.926-1.485l-.079 3.119-2.517-.669-.328-2.194 2.924-.256zm-2.81.346l2.707-.237-.072 2.88-2.331-.619-.303-2.024zm1.528 5.311l1.162-2.262-2.363-.628 1.2 2.89zm.01-.237l1.006-1.96-2.047-.544 1.04 2.504zm.247.566l1.108 2.063 1.539-2.207-1.527-2.036-1.12 2.18zm-.113.001l1.21 2.252 1.673-2.4-1.666-2.221-1.217 2.37zm1.403 2.463l1.462.693.04-.092.01-.024V9.328l-1.512 2.17zm.15-.04l1.262.598V9.647l-1.263 1.811zm-.213.318l.072 2.83.097-.121a10.33 10.33 0 0 0 1.242-2.04l-1.411-.67zm.104.16l1.175.556c-.339.711-.72 1.32-1.114 1.835l-.061-2.391zm-.385-.198l-2.516.747-.328 2.274 2.923.073-.079-3.094zm-.096.133l.073 2.859-2.706-.068.303-2.099 2.33-.692zm-2.715.709l-2.232.863 1.931 1.216.3-2.08zm-.124.155l-.254 1.757-1.632-1.027 1.886-.73zm.12-.559l-2.524.977-2.67-1.052-1.32-3.066 1.36-3.239 2.566-.96 2.58.96 1.347 3.24-1.34 3.14zm1.447-3.14l-1.372 3.218-2.6 1.006-2.744-1.08-1.354-3.144 1.393-3.319L8.46 4.73l2.656.988 1.38 3.318zm-6.62 3.48l.325 2.168 2-1.252-2.326-.917zm.124.156l.277 1.846 1.704-1.066-1.98-.78zm-1.737-3.31l-1.091 2.114 2.262.604-1.17-2.717zm-.008.234l1.005 2.334-1.942-.518.937-1.816zm-2.966-.212v2.719a.42.42 0 0 0 .008.075l1.501-.741-1.51-2.053zm.1.305v2.332l1.258-.62-1.258-1.712zm1.308 4.916l.083-2.85-1.401.693c.178.473.606 1.251 1.222 2.036l.096.121zm-.092-.278l.07-2.408-1.17.578c.183.447.564 1.13 1.1 1.83zm.455-2.593l-.09 3.098 2.96-.073-.352-2.343-.004-.01-2.514-.672zm2.428.752l-2.332-.623-.083 2.867 2.742-.068-.327-2.176zm.393 2.553l-.678 1.638a5.251 5.251 0 0 1-.09-.042c-.701-.338-1.34-.857-1.89-1.43a8.544 8.544 0 0 1-.092-.099l2.75-.067zm-2.522.162l2.37-.059-.578 1.4c-.659-.318-1.265-.8-1.792-1.341zm4.653 1.522H5.485l.661-1.598 1.865 1.598zM6.186 15.29l1.555 1.332H5.635l.55-1.332zm.153-.367l2.052 1.757 2.23-1.776-2.12-1.333-2.162 1.352zm.169.013l1.885 1.615 2.056-1.637L8.5 13.69l-1.993 1.247zm2.277 1.786h2.521l-.518-1.594-2.003 1.594zm.286-.1h2.098l-.432-1.327-1.666 1.327zm4.706-1.517l-2.725-.068.534 1.645.094-.038c.536-.224 1.263-.684 2.003-1.441l.094-.098zm-.231.094l-2.355-.058.457 1.408c.506-.213 1.193-.644 1.898-1.35zm-2.08-3.04l2.329-.691-1.134-2.11-1.195 2.801zm.176-.156l1.03-2.415.976 1.819-2.006.596zm4.077-3.538V5.871l-1.5.595 1.5 2zm-.1-.3V6.019l-1.242.493 1.242 1.656zm.044-2.571l-.047-.09a17.288 17.288 0 0 0-1.4-2.222l-.074 2.915 1.521-.603zm-.141-.052l-1.277.506.063-2.475c.44.605.844 1.283 1.214 1.969zm-4.468-2.52l.54-1.725c.765.16 1.474.672 2.127 1.39l.083.093-2.75.241zm2.541-.324l-2.401.21.468-1.493c.683.17 1.328.631 1.933 1.283zM8.838 1.28l1.95 1.657.52-1.658h-2.47zm.272.1h2.062l-.434 1.383L9.11 1.378zM6.158 2.936l-.544-1.659h2.471l-1.927 1.66zm1.658-1.559l-1.61 1.385-.454-1.385h2.064zm-2.555.038c-.43.12-1.157.495-1.942 1.29.733.085 1.768.193 2.438.225l-.496-1.515zm.53 1.616c-.697-.03-1.811-.148-2.56-.235l-.123-.015.086-.09c.87-.902 1.687-1.298 2.133-1.396l.57 1.74a9.143 9.143 0 0 1-.106-.004zM2.779 6.227l-1.46-.659A10.607 10.607 0 0 1 2.695 3.26l.083 2.968zm-.175-2.685l.07 2.528-1.224-.552a10.54 10.54 0 0 1 1.154-1.976zm.365-.497l.1.012c.759.09 2.01.225 2.759.255l.1.003-.34 2.183-2.532.669-.087-3.122zm.184 2.993l-.08-2.88c.755.09 1.99.223 2.739.253L5.5 5.418l-2.347.62z" fill="#212121"></path>
</svg>
