<?xml version="1.0" encoding="UTF-8"?>
<svg xmlns="http://www.w3.org/2000/svg" width="16" height="13" viewBox="0 0 16 13" fill="none">
  <path d="M15.965 4.05l-1.489-2.395a.233.233 0 0 0-.134-.1L11.236.024A.237.237 0 0 0 11.131 0H6.368a.233.233 0 0 0-.235.231c0 .128.105.231.235.231h4.708l2.667 1.314-2.667 1.314H4.915L2.248 1.776 4.915.462h1.849c.13 0 .234-.103.234-.23A.233.233 0 0 0 6.764 0H4.86a.237.237 0 0 0-.105.024L1.619 1.57c-.064.032-.093.083-.095.086L.034 4.051a.23.23 0 0 0 .027.276l3.916 4.259a.237.237 0 0 0 .331.015.23.23 0 0 0 .016-.326l-3.31-3.6 2.942.978 3.05 5.536-2.682-2.914a.237.237 0 0 0-.33-.016.23.23 0 0 0-.017.327l3.992 4.338a.237.237 0 0 0 .35-.003l7.623-8.597a.23.23 0 0 0 .023-.274zm-1.778-1.975l1.225 1.97-1.72.57a.23.23 0 0 0 .074.451c.025 0 .05-.004.075-.012l1.177-.39-5.835 6.58 2.855-5.592 2.111-.7a.23.23 0 0 0 .148-.293.235.235 0 0 0-.297-.146l-1.981.657-.6-1.732 2.768-1.364zm-3.223 1.478l.58 1.678H4.447l.581-1.678h5.937zM1.81 2.078l2.76 1.36-.599 1.732L.588 4.046 1.81 2.078zm9.68 3.616L8.135 12.27 4.513 5.694h6.979z" fill="#212121"></path>
  <path fill-rule="evenodd" clip-rule="evenodd" d="M13.863 4.559L14 4.513h.004a.238.238 0 0 1 .044-.01" fill="#212121"></path>
</svg>
