<?xml version="1.0" encoding="UTF-8"?>
<svg xmlns="http://www.w3.org/2000/svg" width="13" height="18" viewBox="0 0 13 18" fill="none">
  <path fill-rule="evenodd" clip-rule="evenodd" d="M3.628 1.033A.154.154 0 0 1 3.723 1h5.55c.035 0 .068.012.095.033l2.575 2.02a.143.143 0 0 1 .055.113v11.67c0 .043-.02.085-.055.112l-2.575 2.02a.154.154 0 0 1-.095.032h-5.55a.154.154 0 0 1-.095-.032l-2.574-2.02a.144.144 0 0 1-.056-.113V3.165c0-.043.02-.085.056-.113l2.574-2.019zm-.056.42L1.575 3.02h1.997V1.453zm0 1.858H1.3V14.69h2.272V3.311zm0 11.67H1.575l1.997 1.567v-1.567zm.302 1.728V14.98h5.248v1.728H3.874zm5.55-.16V14.98h1.998l-1.998 1.567zm2.273-1.86H9.424V3.311h2.273V14.69zm-.275-11.67H9.424V1.453l1.998 1.568zm-2.3-1.727H3.874V3.02h5.248V1.292zm-.196 2.02H4.07L5.245 4.53h2.507l1.174-1.22zm-1.26 1.51H5.33v8.357h2.336V4.822zm.086 8.648H5.245L4.07 14.69h4.856l-1.174-1.22zm1.37.994l-1.154-1.197V4.734l1.154-1.198v10.928zm-5.248 0l1.154-1.197V4.734L3.874 3.536v10.928z" fill="#212121"></path>
  <path fill-rule="evenodd" clip-rule="evenodd" d="M11.943 14.948a.144.144 0 0 0 .055-.113V3.165a.144.144 0 0 0-.055-.113L9.368 1.033A.154.154 0 0 0 9.273 1h-5.55a.154.154 0 0 0-.095.033l-2.574 2.02a.144.144 0 0 0-.056.113v11.67c0 .043.02.085.056.112l2.574 2.02a.16.16 0 0 0 .095.032h5.55a.154.154 0 0 0 .095-.032l2.575-2.02zm-10.95.08l2.574 2.019c.044.035.1.053.156.053h5.55a.254.254 0 0 0 .157-.053l2.574-2.02a.244.244 0 0 0 .094-.192V3.165a.244.244 0 0 0-.094-.191L9.43.954A.254.254 0 0 0 9.273.9h-5.55a.254.254 0 0 0-.156.054L.993 2.974a.244.244 0 0 0-.095.192v11.67M1.575 3.02h1.997V1.453L1.575 3.02zm.29-.1h1.607V1.658L1.864 2.92zM1.3 14.69h2.272V3.31H1.3v11.38zM3.472 3.41v11.18H1.4V3.411h2.072zM1.575 14.98l1.997 1.567V14.98H1.575zm.29.1l1.607 1.262V15.08H1.864zm2.11 0v1.528h5.047V15.08H3.974zm5.449 1.467l1.998-1.567H9.424v1.567zm.1-.205l1.609-1.262H9.524v1.262zm0-1.754h2.073V3.411H9.524V14.59zm1.898-11.57L9.424 1.453V3.02h1.998zm-.29-.1H9.524V1.659l1.609 1.262zM3.875 1.293h5.248V3.02H3.874V1.292zm.1 1.628h5.048V1.392H3.974V2.92zm.096.391l1.175 1.22h2.507l1.174-1.22H4.07zm4.621.1l-.982 1.02H5.287l-.982-1.02h4.386zm-3.36 1.411h2.335v8.357H5.33V4.822zm.1 8.256h2.135V4.922H5.43v8.157zm-.144.492l-.982 1.02h4.386l-.982-1.02H5.287zm2.465-.1H5.245L4.07 14.69h4.856l-1.174-1.22zm.216-.203V4.734l1.154-1.198v10.928l-1.154-1.197zm1.054-9.483l-.954.99v8.453l.954.99V3.784zm-3.994 9.483V4.734L3.874 3.536v10.928l1.154-1.197zm-1.054.95V3.784l.954.99v8.453l-.954.99zm-.1 2.492h5.248v-1.73H3.874v1.728zm7.823-2.02V3.311H9.424V14.69h2.273z" fill="#212121"></path>
</svg>
