<?xml version="1.0" encoding="UTF-8"?>
<svg xmlns="http://www.w3.org/2000/svg" width="18" height="17" viewBox="0 0 18 17" fill="none">
  <path fill-rule="evenodd" clip-rule="evenodd" d="M12.024.91l1.128.608.766-.552c-.625-.25-1.27-.237-1.894-.057zm2.177.189l-.759.547 2.238.916c-.467-.724-.969-1.19-1.479-1.463zm1.714 1.856l-2.63-1.077-.117 2.172 1.975 1.16.868-2.077a7.844 7.844 0 0 0-.096-.178zm.255.496l-.792 1.893 1.318.725c.05-.508.043-.95-.002-1.306-.165-.49-.34-.926-.524-1.312zm.492 2.912l-1.162-.64.887 1.942c.132-.463.22-.9.275-1.302zM16.244 8L15.17 5.649l-1.98 2.194.84 1.805L16.244 8zm-2.46 1.757l-2.05.43 1.28-2.085.77 1.655zm-.888-1.98v-3.54l-2.27-.561-1.7 1.224L7.31 3.678l-2.319.683-.047 3.246 1.642 2.688 2.32 1.944.034.037 2.41-1.982 1.545-2.516zM11.2 10.772l-2.077 1.707 1.193 1.316.884-3.023zm-.571 3.351l.586.588a17.214 17.214 0 0 0 1.568-1.323l-2.154.736zm2.6-1.177c.112-.117.222-.234.328-.35l.268-2.566-2.268.477-.977 3.343 2.649-.904zm.634-.698c1.122-1.316 1.841-2.637 2.28-3.832l-2.038 1.517-.242 2.315zm-2.869 2.626l-.593-.594-1.067 1.677c.598-.35 1.15-.713 1.66-1.083zM8.93 16.089l1.278-2.01L8.93 12.67l-1.192 1.409 1.192 2.01zm-1.303-2.3l-.964-3.073 2.06 1.726.023.025-1.119 1.323zm-1.423-3.601l-1.39-2.275-.636 1.842 2.026.433zm-2.33-.25l-2.08-1.354c.512 1.448 1.349 2.738 2.311 3.84l-.232-2.486zm.918 3.222a17.004 17.004 0 0 0 1.788 1.557l.726-.607-2.514-.95zm2.746 1.11l-.733.614c.627.458 1.23.835 1.763 1.124L7.54 14.27zm-3.136-1.552l2.959 1.12-1.05-3.346-2.16-.462.25 2.688zm-2.69-4.514l2.219 1.445.691-2.004-1.86-1.992-1.05 2.551zm1.225-2.76l1.744 1.865.04-2.822-1.784.957zm2.059-1.37l2.042-.601L5.026 1.95l-.03 2.124zm-.383-2.437l-2.205.801c.41-.572.91-1.056 1.494-1.34l.711.54zm-.42-.66l.709.537.905-.589a2.698 2.698 0 0 0-1.614.052zm1.951.055l-1.01.657L7.37 3.381l1.422-.246V3.02C7.81 1.94 6.927 1.322 6.144 1.032zM9.06 3.017v.118l1.504.248 2.34-1.686-1.235-.666c-1.029.402-1.968 1.22-2.609 1.986zm3.952-1.061l-2.095 1.51 1.987.49.108-2zm.15 2.41v3.102l1.83-2.028-1.83-1.074zM10.25 3.61l-1.189-.195v1.052l1.189-.857zm-1.457.85V3.414l-1.121.194 1.121.85zm.13-1.7c-1-1.083-1.917-1.717-2.751-2.01-.868-.305-1.64-.24-2.307.063-.796.361-1.433 1.052-1.912 1.822-.087.14-.17.282-.247.426a8.645 8.645 0 0 0-.665 1.631l-.004.013-.001.014A9.21 9.21 0 0 0 1.419 8.3c.55 1.785 1.586 3.337 2.761 4.613.747.81 1.551 1.51 2.327 2.09.86.642 1.687 1.137 2.363 1.468l.061.03.06-.033a20.79 20.79 0 0 0 2.29-1.465 17.165 17.165 0 0 0 2.504-2.253c1.446-1.603 2.296-3.232 2.755-4.661a9.778 9.778 0 0 0 .4-1.784 6.52 6.52 0 0 0 .018-1.591l-.002-.014-.004-.013a11.643 11.643 0 0 0-.674-1.624 8.366 8.366 0 0 0-.155-.287c-.564-1-1.202-1.624-1.874-1.96-.872-.437-1.78-.38-2.616-.065-1.072.402-2.04 1.23-2.71 2.01zm-6.77.064a7.21 7.21 0 0 0-.181.313l.815 2.077 1.94-1.04.033-2.298-2.607.948zm.396 2.52l-.741-1.89A8.42 8.42 0 0 0 1.3 4.758c-.039.445-.044.88-.02 1.305l1.268-.718zm-1.245 1.02c.047.51.138 1.006.265 1.486l.875-2.131-1.14.646z" fill="#212121"></path>
  <path fill-rule="evenodd" clip-rule="evenodd" d="M8.984 4.982a.1.1 0 0 1-.119-.002L7.291 3.788l-2.2.648-.045 3.143 1.618 2.65 2.283 1.913 2.328-1.914 1.52-2.478V4.315l-2.149-.531-1.662 1.198zm1.641-1.306l2.27.56v3.542l-1.543 2.516-2.411 1.982-.034-.037-2.32-1.944-1.642-2.688.047-3.246 2.32-.683L8.924 4.9l1.7-1.224zM.937 4.696a.1.1 0 0 1 .004-.02l.004-.013a8.745 8.745 0 0 1 .673-1.65c.078-.146.161-.29.25-.432.485-.779 1.135-1.488 1.955-1.86.692-.313 1.49-.38 2.382-.067.833.293 1.738.914 2.716 1.956.672-.763 1.623-1.558 2.677-1.954.855-.321 1.792-.383 2.695.07.695.347 1.346.988 1.918 2 .052.093.105.19.156.29.242.47.47 1.014.68 1.638l-.095.032a11.643 11.643 0 0 0-.674-1.624 8.366 8.366 0 0 0-.155-.287c-.564-1-1.202-1.624-1.874-1.96-.872-.437-1.78-.38-2.616-.065-1.037.39-1.978 1.176-2.644 1.933a8.1 8.1 0 0 0-.066.076l-.068-.074C7.88 1.647 6.987 1.035 6.172.75 5.304.445 4.532.51 3.865.813c-.796.361-1.433 1.052-1.912 1.822-.087.14-.17.282-.247.426a8.645 8.645 0 0 0-.665 1.631l-.004.013-.001.014A9.21 9.21 0 0 0 1.419 8.3c.55 1.785 1.586 3.337 2.761 4.613.747.81 1.551 1.51 2.327 2.09.86.642 1.687 1.137 2.363 1.468l.061.03.06-.033a20.79 20.79 0 0 0 2.29-1.465 17.165 17.165 0 0 0 2.504-2.253c1.446-1.603 2.296-3.232 2.755-4.661a9.778 9.778 0 0 0 .4-1.784 6.52 6.52 0 0 0 .018-1.591l-.002-.014-.004-.013.095-.032.004.013a.104.104 0 0 1 .005.02l.001.013c.057.441.06.99-.018 1.616a9.877 9.877 0 0 1-.404 1.802c-.463 1.443-1.32 3.085-2.776 4.698a17.274 17.274 0 0 1-2.518 2.266 20.866 20.866 0 0 1-2.302 1.473l-.06.033a.1.1 0 0 1-.092.002l-.061-.03a15.5 15.5 0 0 1-2.379-1.478 17.161 17.161 0 0 1-2.34-2.103c-1.183-1.283-2.228-2.848-2.784-4.65a9.309 9.309 0 0 1-.387-3.62l.001-.014zM13.144 1.4l.561-.405a2.723 2.723 0 0 0-1.407-.052l.846.457zm.008.117l.766-.552a2.708 2.708 0 0 0-.113-.042c-.542-.189-1.098-.186-1.64-.052a3.695 3.695 0 0 0-.141.037l1.128.61zm.29.128l2.238.916-.099-.149c-.438-.64-.905-1.06-1.38-1.314l-.759.547zm.205-.025l.561-.404c.408.23.814.592 1.201 1.126l-1.762-.722zm-.362.257l-.117 2.172 1.975 1.16.868-2.077a7.844 7.844 0 0 0-.096-.178l-2.63-1.077zm.092.146l2.467 1.01a7.3 7.3 0 0 1 .057.104l-.806 1.927-1.824-1.07.106-1.97zM15.505 5.3l.67-1.6c.146.327.287.688.421 1.086.038.31.047.69.014 1.122L15.505 5.3zm1.201.661a7.439 7.439 0 0 1-.01.109l-1.318-.725.792-1.893c.02.04.038.08.057.122.163.356.32.75.467 1.19.041.33.05.735.012 1.197zM15.5 5.723l.887 1.942.042-.15c.109-.407.184-.794.233-1.152l-1.162-.64zm.216.234l.837.46c-.043.3-.105.62-.19.954l-.647-1.414zm-.546-.308l-1.98 2.194.84 1.805L16.244 8 15.17 5.649zm.95 2.319l-.978-2.14-1.833 2.033.76 1.633 2.05-1.526zm-2.336 1.789l-.77-1.655-1.28 2.086 2.05-.431zm-.144-.072l-1.7.357 1.062-1.729.638 1.372zm-4.516 2.793l1.193 1.316.884-3.023-2.077 1.707zm.145.01l1.745-1.434-.742 2.54-1.003-1.105zm1.957 2.09c.41-.31.791-.625 1.145-.944l-1.557.531.412.413zm-.01.132a17.345 17.345 0 0 0 1.568-1.323l-2.154.736.586.587zm2.342-2.116l.268-2.565-2.268.477-.977 3.343 2.649-.904c.112-.117.222-.234.328-.35zm-.383.264l-2.444.834.906-3.1 2.075-.437-.25 2.397c-.093.102-.189.204-.287.306zm2.968-4.443l-2.038 1.517-.241 2.315.115-.136c1.003-1.208 1.672-2.416 2.1-3.523l.064-.173zm-.217.287L14.2 9.986l-.202 1.944a12.56 12.56 0 0 0 1.928-3.228zm-5.524 5.577l-1.067 1.677.19-.113a20.131 20.131 0 0 0 1.47-.97l-.593-.594zm.017.159l-.772 1.215c.422-.259.82-.523 1.195-.792l-.423-.423zm-.21-.36L8.93 12.67l-1.192 1.409 1.192 2.01 1.278-2.01zm-1.275 1.819l1.15-1.808-1.15-1.268-1.072 1.267 1.072 1.809zm-2.27-5.182l2.06 1.726.023.025-1.119 1.323-.964-3.074zm1.005 2.87l-.807-2.574 1.747 1.464-.94 1.11zM4.815 7.912L4.18 9.754l2.026.433-1.39-2.275zm.026.233l-.53 1.534 1.687.361-1.157-1.895zm-3.046.438l.057.156c.494 1.329 1.261 2.52 2.142 3.553l.112.13-.232-2.485-2.079-1.354zm.199.248c.472 1.219 1.176 2.32 1.983 3.287L3.78 9.994 1.994 8.831zm4.584 5.757a17.051 17.051 0 0 1-1.372-1.166l1.905.72-.533.446zm-1.785-1.43a17.07 17.07 0 0 0 1.788 1.557l.726-.606-2.514-.95zm2.013 1.725l.083.06a15.922 15.922 0 0 0 1.68 1.064L7.54 14.27l-.733.613zm.163-.006c.462.333.91.62 1.324.86l-.78-1.315-.544.455zm.393-1.04l-1.05-3.346-2.16-.462.25 2.688 2.96 1.12zm-2.865-1.191l-.233-2.49 1.97.42.97 3.094-2.707-1.024zm-.565-2.998l.691-2.004-1.86-1.992-1.05 2.551 2.219 1.445zm-.053-.154l.63-1.826-1.714-1.834-.957 2.33 2.04 1.33zm.803-2.186l.04-2.822-1.784.957 1.744 1.865zm-.097-.25L3.1 5.47l1.52-.815-.035 2.405zM7.04 3.473L5.027 1.949l-.03 2.124 2.042-.601zm-.219-.04L5.1 3.939l.025-1.791L6.82 3.432zM2.41 2.437a5.86 5.86 0 0 1 .108-.145c.389-.508.852-.935 1.386-1.195l.711.54-2.205.8zm1.998-.832l-1.712.622c.347-.426.747-.782 1.197-1.012l.515.39zm.5-.215l-.498-.377C4.759.918 5.14.896 5.554.97l-.647.42zm.767-.498a2.68 2.68 0 0 0-1.48.084l.709.537.905-.589a3.24 3.24 0 0 0-.134-.032zm-.54.796l2.237 1.693 1.422-.246V3.02c-.982-1.08-1.865-1.698-2.648-1.988l-1.01.657zm1.023-.545c.744.286 1.588.88 2.531 1.91l-1.291.223L5.31 1.694l.848-.551zM9.163 3.05l1.378.227 2.176-1.569-1.054-.568c-.977.395-1.875 1.171-2.5 1.91zm-.102-.034c.641-.766 1.58-1.584 2.609-1.986l1.235.666-2.34 1.686-1.504-.248v-.118zm1.857.448l1.987.491.108-2-2.095 1.51zm.234-.045l1.75-1.26-.09 1.67-1.66-.41zm2.012 4.048l1.83-2.028-1.83-1.074v3.102zm.1-2.927l1.573.923-1.573 1.744V4.54zM9.06 3.414v1.052l1.189-.857-1.189-.195zm.935.255l-.835-.138v.74l.835-.602zm-1.203-.254l-1.121.194 1.121.85V3.414zm-.1.119v.723l-.777-.589.777-.134zm-6.61-.391c.044-.08.09-.16.138-.238l2.437-.886-.03 2.093-1.79.96-.756-1.929zm2.644 1.03l.033-2.298-2.607.948a7.21 7.21 0 0 0-.181.313l.815 2.077 1.94-1.04zm-2.92-.72c-.02.042-.04.083-.058.124a8.428 8.428 0 0 0-.448 1.18 8.948 8.948 0 0 0-.02 1.305l1.268-.718-.741-1.89zM2.425 5.3l-1.05.595a8.852 8.852 0 0 1 .026-1.12c.1-.34.234-.705.4-1.069L2.423 5.3zM1.57 7.849l.875-2.131-1.14.646a9.017 9.017 0 0 0 .265 1.485zm.023-.321l.65-1.58-.832.47c.038.379.1.749.182 1.11z" fill="#212121"></path>
</svg>
