<?xml version="1.0" encoding="UTF-8"?>
<svg xmlns="http://www.w3.org/2000/svg" width="13" height="18" viewBox="0 0 13 18" fill="none">
  <mask id="a" maskUnits="userSpaceOnUse" x="0" y="0" width="13" height="18" fill="#000">
    <path fill="#fff" d="M0 0h13v18H0z"></path>
    <path d="M12 8.979l-.002-.009a8.002 8.002 0 0 0-.289-2.076c-.002-.004-.002-.009-.003-.014a8.613 8.613 0 0 0-1.763-3.27C9.066 2.578 7.87 1.666 6.581 1.02a.18.18 0 0 0-.162 0c-1.294.65-2.497 1.567-3.376 2.605l-.004.007a8.576 8.576 0 0 0-1.745 3.25 8.032 8.032 0 0 0-.292 2.09L1 8.98v.04l.002.01a7.96 7.96 0 0 0 .292 2.09 8.581 8.581 0 0 0 1.764 3.27c.876 1.032 2.072 1.946 3.361 2.592a.18.18 0 0 0 .16 0c1.296-.65 2.499-1.569 3.378-2.607l.004-.007a8.582 8.582 0 0 0 1.745-3.249 8.01 8.01 0 0 0 .292-2.09L12 9.02V9c-.002-.008 0-.014 0-.021zm-5.43 3.157a.136.136 0 0 0-.139 0l-1.355.842-1.614-3.955 1.63-3.977 1.34.818c.02.014.044.019.069.019a.127.127 0 0 0 .07-.02l1.333-.824L9.54 9.018 7.91 12.95l-1.34-.815zm1.186 1.025L6.5 14.267l-1.268-1.083 1.272-.789 1.253.766zM5.247 4.84L6.5 3.772l1.247 1.062-1.249.771-1.25-.765zm2.981.31l3.149 1.798L9.72 8.783 8.228 5.15zm3.133 1.491L8.216 4.846l1.597-.987a8.366 8.366 0 0 1 1.548 2.782zm-1.715-2.98l-1.616 1-1.285-3.268a10.316 10.316 0 0 1 2.9 2.269zm-1.992.756l-1.07-.91a.13.13 0 0 0-.17 0l-1.075.915L6.5 1.478l1.155 2.939zM6.252 1.394L4.963 4.666l-1.61-1.004a10.296 10.296 0 0 1 2.899-2.268zm-3.079 2.48l1.602.98-3.138 1.79a8.347 8.347 0 0 1 1.536-2.77zm1.592 1.28L3.279 8.782 1.623 6.947l3.142-1.792zm-3.277 2.03l1.539 1.703-1.762-.034c.012-.561.088-1.12.223-1.67zm-.223 1.965h1.764l-1.543 1.674a7.68 7.68 0 0 1-.221-1.674zm2.013.111l1.471 3.607-3.126-1.812L3.278 9.26zm-1.639 2.1l3.122 1.81-1.577.97a8.393 8.393 0 0 1-1.545-2.78zm1.715 2.978l1.595-.98 1.303 3.246a10.26 10.26 0 0 1-2.898-2.266zM6.5 16.524l-1.17-2.915 1.083.925a.134.134 0 0 0 .085.033c.032 0 .063-.01.087-.033l1.068-.939L6.5 16.524zm.247.082l1.289-3.272 1.61 1.004a10.279 10.279 0 0 1-2.899 2.268zm3.08-2.48l-1.601-.98 3.136-1.79a8.344 8.344 0 0 1-1.534 2.77zm-1.589-1.283l1.484-3.586 1.656 1.796-3.14 1.79zm3.277-2.021L9.971 9.146h1.763a7.652 7.652 0 0 1-.22 1.675zM9.968 8.893l1.543-1.708c.137.561.216 1.134.226 1.708h-1.77z"></path>
  </mask>
  <path d="M12 8.979l-.002-.009a8.002 8.002 0 0 0-.289-2.076c-.002-.004-.002-.009-.003-.014a8.613 8.613 0 0 0-1.763-3.27C9.066 2.578 7.87 1.666 6.581 1.02a.18.18 0 0 0-.162 0c-1.294.65-2.497 1.567-3.376 2.605l-.004.007a8.576 8.576 0 0 0-1.745 3.25 8.032 8.032 0 0 0-.292 2.09L1 8.98v.04l.002.01a7.96 7.96 0 0 0 .292 2.09 8.581 8.581 0 0 0 1.764 3.27c.876 1.032 2.072 1.946 3.361 2.592a.18.18 0 0 0 .16 0c1.296-.65 2.499-1.569 3.378-2.607l.004-.007a8.582 8.582 0 0 0 1.745-3.249 8.01 8.01 0 0 0 .292-2.09L12 9.02V9c-.002-.008 0-.014 0-.021zm-5.43 3.157a.136.136 0 0 0-.139 0l-1.355.842-1.614-3.955 1.63-3.977 1.34.818c.02.014.044.019.069.019a.127.127 0 0 0 .07-.02l1.333-.824L9.54 9.018 7.91 12.95l-1.34-.815zm1.186 1.025L6.5 14.267l-1.268-1.083 1.272-.789 1.253.766zM5.247 4.84L6.5 3.772l1.247 1.062-1.249.771-1.25-.765zm2.981.31l3.149 1.798L9.72 8.783 8.228 5.15zm3.133 1.491L8.216 4.846l1.597-.987a8.366 8.366 0 0 1 1.548 2.782zm-1.715-2.98l-1.616 1-1.285-3.268a10.316 10.316 0 0 1 2.9 2.269zm-1.992.756l-1.07-.91a.13.13 0 0 0-.17 0l-1.075.915L6.5 1.478l1.155 2.939zM6.252 1.394L4.963 4.666l-1.61-1.004a10.296 10.296 0 0 1 2.899-2.268zm-3.079 2.48l1.602.98-3.138 1.79a8.347 8.347 0 0 1 1.536-2.77zm1.592 1.28L3.279 8.782 1.623 6.947l3.142-1.792zm-3.277 2.03l1.539 1.703-1.762-.034c.012-.561.088-1.12.223-1.67zm-.223 1.965h1.764l-1.543 1.674a7.68 7.68 0 0 1-.221-1.674zm2.013.111l1.471 3.607-3.126-1.812L3.278 9.26zm-1.639 2.1l3.122 1.81-1.577.97a8.393 8.393 0 0 1-1.545-2.78zm1.715 2.978l1.595-.98 1.303 3.246a10.26 10.26 0 0 1-2.898-2.266zM6.5 16.524l-1.17-2.915 1.083.925a.134.134 0 0 0 .085.033c.032 0 .063-.01.087-.033l1.068-.939L6.5 16.524zm.247.082l1.289-3.272 1.61 1.004a10.279 10.279 0 0 1-2.899 2.268zm3.08-2.48l-1.601-.98 3.136-1.79a8.344 8.344 0 0 1-1.534 2.77zm-1.589-1.283l1.484-3.586 1.656 1.796-3.14 1.79zm3.277-2.021L9.971 9.146h1.763a7.652 7.652 0 0 1-.22 1.675zM9.968 8.893l1.543-1.708c.137.561.216 1.134.226 1.708h-1.77z" fill="#212121"></path>
  <path d="M12 8.979l-.002-.009a8.002 8.002 0 0 0-.289-2.076c-.002-.004-.002-.009-.003-.014a8.613 8.613 0 0 0-1.763-3.27C9.066 2.578 7.87 1.666 6.581 1.02a.18.18 0 0 0-.162 0c-1.294.65-2.497 1.567-3.376 2.605l-.004.007a8.576 8.576 0 0 0-1.745 3.25 8.032 8.032 0 0 0-.292 2.09L1 8.98v.04l.002.01a7.96 7.96 0 0 0 .292 2.09 8.581 8.581 0 0 0 1.764 3.27c.876 1.032 2.072 1.946 3.361 2.592a.18.18 0 0 0 .16 0c1.296-.65 2.499-1.569 3.378-2.607l.004-.007a8.582 8.582 0 0 0 1.745-3.249 8.01 8.01 0 0 0 .292-2.09L12 9.02V9c-.002-.008 0-.014 0-.021zm-5.43 3.157a.136.136 0 0 0-.139 0l-1.355.842-1.614-3.955 1.63-3.977 1.34.818c.02.014.044.019.069.019a.127.127 0 0 0 .07-.02l1.333-.824L9.54 9.018 7.91 12.95l-1.34-.815zm1.186 1.025L6.5 14.267l-1.268-1.083 1.272-.789 1.253.766zM5.247 4.84L6.5 3.772l1.247 1.062-1.249.771-1.25-.765zm2.981.31l3.149 1.798L9.72 8.783 8.228 5.15zm3.133 1.491L8.216 4.846l1.597-.987a8.366 8.366 0 0 1 1.548 2.782zm-1.715-2.98l-1.616 1-1.285-3.268a10.316 10.316 0 0 1 2.9 2.269zm-1.992.756l-1.07-.91a.13.13 0 0 0-.17 0l-1.075.915L6.5 1.478l1.155 2.939zM6.252 1.394L4.963 4.666l-1.61-1.004a10.296 10.296 0 0 1 2.899-2.268zm-3.079 2.48l1.602.98-3.138 1.79a8.347 8.347 0 0 1 1.536-2.77zm1.592 1.28L3.279 8.782 1.623 6.947l3.142-1.792zm-3.277 2.03l1.539 1.703-1.762-.034c.012-.561.088-1.12.223-1.67zm-.223 1.965h1.764l-1.543 1.674a7.68 7.68 0 0 1-.221-1.674zm2.013.111l1.471 3.607-3.126-1.812L3.278 9.26zm-1.639 2.1l3.122 1.81-1.577.97a8.393 8.393 0 0 1-1.545-2.78zm1.715 2.978l1.595-.98 1.303 3.246a10.26 10.26 0 0 1-2.898-2.266zM6.5 16.524l-1.17-2.915 1.083.925a.134.134 0 0 0 .085.033c.032 0 .063-.01.087-.033l1.068-.939L6.5 16.524zm.247.082l1.289-3.272 1.61 1.004a10.279 10.279 0 0 1-2.899 2.268zm3.08-2.48l-1.601-.98 3.136-1.79a8.344 8.344 0 0 1-1.534 2.77zm-1.589-1.283l1.484-3.586 1.656 1.796-3.14 1.79zm3.277-2.021L9.971 9.146h1.763a7.652 7.652 0 0 1-.22 1.675zM9.968 8.893l1.543-1.708c.137.561.216 1.134.226 1.708h-1.77z" stroke="#212121" stroke-width=".2" stroke-miterlimit="10" stroke-linecap="round" stroke-linejoin="round" mask="url(#a)"></path>
</svg>
