<?xml version="1.0" encoding="UTF-8"?>
<svg xmlns="http://www.w3.org/2000/svg" width="13" height="17" viewBox="0 0 13 17" fill="none">
  <path fill-rule="evenodd" clip-rule="evenodd" d="M1.248 8.211l1.175-1.13V3.604C1.726 4.87 1.291 6.465 1.248 8.211zm1.421-4.743v3.377l1.655-1.591L2.67 3.468zm2.02 1.435l1.693-1.627h-.955L4.69 4.903zm.846-1.864h1.853L6.494.923l-.96 2.116zM6.683.742l.936 2.215 1.237-1.394c-.66-.492-1.397-.782-2.173-.821zm2.364.97L7.87 3.04h2.36a6.1 6.1 0 0 0-1.183-1.327zm1.114 1.564H7.755l.717 1.697 1.69-1.697zM8.087 4.69l-.598-1.415h-.873l1.47 1.415zm.514.494l1.726-1.733v3.392L8.6 5.184zm-.36-.013L6.497 3.498 4.755 5.174a3.997 3.997 0 0 1 3.484-.002zM3.037 6.825l-.369.354v.759a3.646 3.646 0 0 1 .369-1.113zm-.369 2.24v.755l.372.357a3.622 3.622 0 0 1-.372-1.111zm2.085 2.76l1.744 1.676 1.745-1.677a3.997 3.997 0 0 1-3.489.001zm3.332.484l-1.472 1.415h.875l.597-1.415zM7.39 13.96H5.534l.96 2.117.895-2.117zm-1.08 2.298L5.265 13.96h-2.5l.033.049c.916 1.343 2.154 2.178 3.51 2.25zm-3.49-2.534h2.338L4.39 12.03l-1.57 1.694zm1.868-1.627l.738 1.627h.955l-1.693-1.627zm-.365-.351L2.67 10.155v3.377l1.655-1.786zm-1.9-1.828v3.478c-.698-1.264-1.133-2.861-1.176-4.608l1.175 1.13zm0-.334L1.295 8.5l1.127-1.084v2.168zm4.26 6.675l.97-2.299h2.576l-.032.049c-.918 1.345-2.157 2.18-3.515 2.25zm3.888-2.86c.699-1.266 1.134-2.864 1.177-4.611l-1.177 1.13v3.48zm-.245-3.578l-.369.354a3.643 3.643 0 0 0 .368-1.109v.755zm.245-.237l1.13-1.084-1.129-1.085v2.17zm-.245-2.405l-.37-.355c.181.344.307.716.37 1.103V7.18zm.245-.098V3.602c.699 1.265 1.134 2.863 1.177 4.61L10.572 7.08zm-.245 3.074v3.393L8.6 11.815l1.726-1.66zM8.47 12.027l-.717 1.697h2.408L8.47 12.027zM6.308.742l-.98 2.16L4.14 1.565C4.8 1.073 5.534.783 6.308.742zm-2.358.971a6.101 6.101 0 0 0-1.183 1.326h2.36L3.95 1.713zm1.209 1.563H2.821L4.39 4.97l.768-1.694zm-2.566-.414C3.581 1.415 4.96.5 6.498.5c1.54 0 2.918.915 3.905 2.362.988 1.448 1.595 3.442 1.595 5.638 0 2.197-.607 4.19-1.595 5.639-.987 1.447-2.365 2.361-3.905 2.361-1.54 0-2.917-.914-3.905-2.361C1.605 12.69.998 10.697.998 8.5c0-2.196.607-4.19 1.595-5.638zm4.75 2.246c-1.948-.449-3.905.706-4.372 2.579-.467 1.873.734 3.755 2.682 4.203 1.948.45 3.906-.705 4.373-2.578.466-1.873-.734-3.755-2.683-4.204z" fill="#212121"></path>
  <path fill-rule="evenodd" clip-rule="evenodd" d="M2.766 13.96l.033.049.036.051c.886 1.276 2.066 2.082 3.36 2.191l.113.008-1.042-2.299h-2.5zm2.436.1H2.957c.857 1.207 1.975 1.964 3.19 2.086l-.945-2.086zM2.323 7.04l-.966.929c.068-1.474.418-2.83.966-3.954V7.04zm0-3.248c-.62 1.198-1.01 2.672-1.07 4.277l-.005.143 1.175-1.13V3.604a8.144 8.144 0 0 0-.1.187zm.346 3.054l1.655-1.591L2.67 3.468v3.377zm.1-3.122L4.184 5.25 2.769 6.61V3.723zm3.613-.447h-.955L4.69 4.903l1.693-1.627zm-.249.1h-.641L4.996 4.47l1.137-1.094zm1.255-.337L6.494.923l-.96 2.116h1.854zm-1.698-.1h1.548L6.49 1.172l-.8 1.768zm1.93.018l1.236-1.394a4.885 4.885 0 0 0-.081-.06C8.168 1.072 7.498.808 6.795.75a3.595 3.595 0 0 0-.112-.007l.936 2.215zm.03-.185L8.708 1.58a3.893 3.893 0 0 0-1.87-.727l.812 1.92zm.22.267h2.36l-.032-.047a6.065 6.065 0 0 0-1.151-1.28L7.87 3.04zm.222-.1h1.947a5.987 5.987 0 0 0-.982-1.087L8.092 2.94zm-.338.337l.717 1.697 1.69-1.697H7.755zm2.167.1H7.905l.6 1.42 1.416-1.42zm-2.499 0h-.56l.943.905-.383-.905zm.066-.1h-.873L8.086 4.69l-.598-1.415zM8.6 5.185l1.726 1.66V3.451L8.6 5.185zm.143-.002l1.483 1.426V3.694l-1.483 1.49zM6.498 3.637L5.2 4.885a4.103 4.103 0 0 1 2.597 0L6.498 3.637zm0-.139L4.755 5.174a4 4 0 0 1 3.485-.002L6.497 3.498zM2.67 7.18v.759a3.646 3.646 0 0 1 .369-1.113l-.369.354zm0 2.641l.372.357a3.652 3.652 0 0 1-.372-1.111v.754zm3.83 3.543l-1.301-1.25a4.103 4.103 0 0 0 2.6 0l-1.3 1.25zm1.478-1.422c.09-.036.18-.075.266-.117L6.498 13.5l-1.744-1.676a3.93 3.93 0 0 0 .842.295 4 4 0 0 0 2.38-.179zm-1.363 1.783h.875l.597-1.415-1.472 1.415zm.249-.1l.942-.906-.383.906h-.56zm-1.329.336l.96 2.117.895-2.117H5.534zm1.704.1H5.69l.801 1.768.747-1.768zm-2.234-.436l-.642-1.416-1.313 1.416h1.955zM4.39 12.03l-1.57 1.694h2.34l-.77-1.694zm1.102 1.594l-.497-1.094 1.139 1.094h-.642zm-.803-1.527l.738 1.627h.955l-1.693-1.627zm-2.02-1.942v3.377l1.655-1.786-1.655-1.591zm.1.235l1.415 1.36-1.415 1.527V10.39zm-.346-.472l-1.175-1.13.004.143c.06 1.606.45 3.08 1.071 4.278.033.064.066.126.1.187V9.918zm-.1 3.069V9.96l-.966-.93c.068 1.475.417 2.83.966 3.956zm.1-3.403V7.416L1.296 8.5l1.127 1.084zm-.1-.235V7.651L1.44 8.5l.883.849zm4.36 6.91l.112-.007c1.297-.107 2.479-.914 3.367-2.191a9.43 9.43 0 0 0 .036-.052l.032-.049H7.654l-.97 2.3zm.156-.112c1.22-.119 2.342-.876 3.201-2.086H7.72l-.881 2.086zm4.91-7.36L10.572 9.92v3.48c.034-.062.068-.124.1-.188.622-1.198 1.013-2.673 1.072-4.28a9.65 9.65 0 0 0 .005-.143zm-.109.244l-.968.93v3.028c.55-1.125.9-2.483.968-3.958zm-1.314.79v-.755a3.694 3.694 0 0 1-.368 1.11l.368-.355zM11.701 8.5l-1.129-1.085v2.17L11.701 8.5zm-.145 0l-.884-.85v1.7l.884-.85zM9.957 6.824a3.712 3.712 0 0 1 .27.664c.042.143.075.29.1.439V7.18l-.37-.355zm.715.214l.968.93c-.068-1.474-.418-2.831-.968-3.956v3.026zm-.1.043l1.177 1.13a11.235 11.235 0 0 0-.005-.142c-.06-1.607-.45-3.081-1.072-4.28a7.981 7.981 0 0 0-.1-.187v3.479zm-.245 3.074L8.6 11.815l1.726 1.733v-3.393zm-.1.235l-1.484 1.426 1.483 1.49V10.39zm-2.473 3.334h2.408L8.47 12.027l-.717 1.697zm.751-1.521l-.6 1.421H9.92l-1.416-1.421zM6.308.742a3.596 3.596 0 0 0-.113.008c-.7.059-1.368.323-1.974.754l-.08.06 1.187 1.339.98-2.161zm-.16.112L5.3 2.721 4.288 1.58c.574-.408 1.202-.66 1.86-.726zM2.834 2.94a7.307 7.307 0 0 0-.036.053l-.032.047h2.36L3.95 1.713a6.064 6.064 0 0 0-1.115 1.226zM3.94 1.852l.965 1.087H2.958c.297-.419.627-.784.981-1.087zM2.821 3.276L4.39 4.97l.768-1.694H2.821zm2.183.1l-.642 1.416L3.05 3.376h1.954zm-2.493-.57C3.51 1.34 4.916.4 6.498.4c1.583 0 2.988.94 3.988 2.406 1 1.467 1.612 3.48 1.612 5.694s-.611 4.228-1.612 5.695c-1 1.465-2.405 2.405-3.988 2.405-1.582 0-2.987-.94-3.987-2.405C1.51 12.728.898 10.714.898 8.5c0-2.213.612-4.227 1.613-5.694zm4.81 2.4c-1.898-.438-3.8.688-4.253 2.505-.452 1.815.71 3.645 2.608 4.082 1.898.437 3.8-.689 4.253-2.505.452-1.816-.711-3.645-2.608-4.082zM6.498.5c-1.54 0-2.917.915-3.905 2.362C1.605 4.31.998 6.304.998 8.5c0 2.197.607 4.19 1.595 5.639.988 1.447 2.366 2.361 3.905 2.361 1.54 0 2.918-.914 3.905-2.361.988-1.449 1.595-3.442 1.595-5.639 0-2.196-.607-4.19-1.595-5.638C9.416 1.415 8.038.5 6.498.5zM2.971 7.687c.467-1.873 2.424-3.028 4.372-2.579 1.949.449 3.15 2.33 2.683 4.204-.467 1.873-2.425 3.027-4.373 2.578-1.948-.448-3.149-2.33-2.682-4.203z" fill="#212121"></path>
</svg>
