<?xml version="1.0" encoding="UTF-8"?>
<svg xmlns="http://www.w3.org/2000/svg" width="13" height="18" viewBox="0 0 13 18" fill="none">
  <path fill-rule="evenodd" clip-rule="evenodd" d="M5.46 2.212l-.27.312-.244.285 1.552.498 1.554-.498a28.458 28.458 0 0 0-.25-.292c-.355-.47-.613-.798-.825-1.005-.215-.21-.353-.265-.466-.255-.123.01-.269.102-.489.324-.158.16-.338.37-.562.63zm2.918.58l.001.001a23.213 23.213 0 0 1 2.03 2.814v.001c.065.107.128.215.19.323.796 1.386 1.4 2.909 1.4 4.343 0 2.133-.608 3.814-1.603 4.964C9.399 16.39 8.02 17 6.498 17c-1.521 0-2.9-.61-3.897-1.762-.995-1.15-1.603-2.83-1.603-4.964 0-1.434.605-2.957 1.4-4.343.796-1.388 1.791-2.652 2.59-3.571.092-.107.18-.208.261-.304.227-.264.416-.484.58-.65.22-.223.427-.383.657-.403.24-.022.454.11.68.33.228.222.497.565.847 1.03.118.136.24.279.365.428zM10.01 5.46a22.966 22.966 0 0 0-1.612-2.232l-.046 1.79 1.658.442zm-1.908-.275l-1.47-1.433V6.93l2.55 1.14-1.08-2.885zM9.177 8.35L6.498 7.152 3.821 8.35l2.677 2.347L9.177 8.35zm-2.811 2.704v3.534H5.305L3.573 12.07l2.793-1.016zm-2.851.765L3.7 8.59l2.548 2.233-2.734.996zm.302-3.749l2.549-1.14V3.753l-1.47 1.432-1.08 2.885zm1.088-3.258l1.35-1.314-1.395-.447.045 1.761zM4.6 3.228A22.977 22.977 0 0 0 2.987 5.46l1.658-.441L4.6 3.228zm-.03 2.076l-1.695.451.718 2.163.977-2.614zM3.43 8.272l-.76-2.289-.04.071c-.734 1.28-1.287 2.65-1.359 3.942l2.16-1.724zm-2.163 2.27c.049 1.96.632 3.486 1.538 4.533a4.751 4.751 0 0 0 3.034 1.629l-.701-1.868-2.443-.19a.134.134 0 0 1-.098-.054.124.124 0 0 1-.02-.105l.645-2.432-1.955-1.512zm2.159 1.776l-.553 2.085 2.1.164-1.547-2.25zm1.997 2.525l.71 1.89a5.288 5.288 0 0 0 .732 0l.71-1.89H5.423zm1.208-.255h1.062l1.731-2.518-2.793-1.016v3.534zm.117-3.765l2.735.996-.186-3.229-2.55 2.233zM9.563 8.6l.182 3.152 1.911-1.48L9.563 8.6zm2.167 1.943l-1.954 1.512.645 2.432a.124.124 0 0 1-.02.105.134.134 0 0 1-.098.053l-2.443.19-.702 1.869a4.751 4.751 0 0 0 3.034-1.63c.906-1.046 1.489-2.573 1.538-4.531zm-3.705 4.024l2.1-.164-.553-2.085-1.547 2.249zm3.7-4.571c-.07-1.291-.624-2.663-1.358-3.942a10.654 10.654 0 0 0-.04-.07l-.76 2.288 2.158 1.724zM9.406 7.918l.718-2.163-1.695-.45.977 2.613zm-8.065 2.354l1.912 1.48.182-3.152-2.094 1.672zm5.402-6.774l1.395-.447-.046 1.761-1.35-1.314z" fill="#212121"></path>
  <path fill-rule="evenodd" clip-rule="evenodd" d="M7.801 2.517c-.354-.47-.612-.798-.824-1.005-.215-.21-.353-.265-.466-.255-.123.01-.269.102-.489.324-.158.16-.338.37-.562.63a72.875 72.875 0 0 1-.444.516l-.07.082 1.552.498 1.554-.498a29.653 29.653 0 0 0-.25-.292zm.077.243a28.688 28.688 0 0 0-.157-.183c-.354-.472-.608-.793-.814-.993-.21-.205-.32-.234-.387-.227-.083.007-.207.072-.427.295a12.97 12.97 0 0 0-.557.625 72.648 72.648 0 0 1-.417.483l1.38.442 1.38-.442zm.578-.03a23.314 23.314 0 0 1 2.04 2.828c.064.107.128.215.19.323.799 1.392 1.412 2.933 1.412 4.393 0 2.152-.612 3.858-1.627 5.03C9.455 16.477 8.048 17.1 6.498 17.1c-1.55 0-2.956-.623-3.972-1.796C1.51 14.132.898 12.426.898 10.274c0-1.46.614-3 1.413-4.393.8-1.396 1.8-2.665 2.6-3.587.093-.106.18-.207.262-.303l.003-.003c.225-.262.416-.484.583-.653.22-.223.45-.408.718-.432.285-.025.528.133.758.358.234.228.508.576.856 1.04.117.135.239.277.363.426l-.076.064c-.125-.15-.247-.292-.365-.428-.35-.465-.62-.808-.847-1.03-.226-.22-.44-.352-.68-.33-.23.02-.436.18-.656.402-.165.167-.354.387-.58.651l-.263.304c-.798.919-1.793 2.183-2.59 3.571C1.604 7.317.999 8.84.999 10.274c0 2.133.608 3.814 1.603 4.964C3.598 16.39 4.977 17 6.498 17c1.522 0 2.901-.61 3.898-1.762.995-1.15 1.602-2.83 1.602-4.964 0-1.434-.603-2.957-1.398-4.343a16.671 16.671 0 0 0-.19-.323l-.001-.001a23.213 23.213 0 0 0-2.03-2.814l-.001-.002.076-.064.002.002zm-.058.498l-.046 1.79 1.658.442a22.985 22.985 0 0 0-1.612-2.232zm.093.275c.43.541.879 1.148 1.297 1.795l-1.334-.355.037-1.44zm-1.86.25V6.93l2.55 1.14-1.079-2.885-1.47-1.433zm.1.236l1.285 1.252.988 2.64L6.73 6.866V3.989zm-.233 3.273L4.004 8.378l2.494 2.186 2.496-2.186-2.496-1.116zm0-.11L3.821 8.35l2.677 2.347L9.177 8.35 6.498 7.152zm-.132 3.902L3.573 12.07l1.732 2.518h1.06v-3.534zm-.1.143l-2.537.923 1.628 2.368h.909v-3.291zM3.7 8.59l2.548 2.233-2.734.996L3.7 8.59zm-.078 3.083L3.79 8.8l2.267 1.986-2.433.886zm2.643-4.808L3.994 7.882 4.98 5.24l1.286-1.25v2.875zm-1.37-1.68L3.815 8.07l2.55-1.14V3.753l-1.47 1.432zm1.358-1.687L4.86 3.051l.045 1.761 1.35-1.314zm-.189.044L5 4.581l-.035-1.392 1.101.353zM3.066 5.336l-.079.124 1.658-.441L4.6 3.228a22.999 22.999 0 0 0-1.533 2.108zm.143-.038c.419-.647.867-1.254 1.297-1.795l.037 1.44-1.334.355zm-.335.457l.718 2.163.977-2.614-1.695.451zm.128.07l1.405-.374-.81 2.167-.595-1.793zm-.331.158l-.041.071-.026.046C1.91 7.32 1.38 8.624 1.281 9.86l-.01.136 2.16-1.724-.76-2.289zm-.024.245l.667 2.01-1.925 1.536c.114-1.16.605-2.386 1.258-3.546zm.018 8.514c.07.093.141.182.216.267a4.647 4.647 0 0 0 2.805 1.572l-.62-1.65-2.38-.186a.235.235 0 0 1-.021-.003zm2.473.094l.701 1.868a4.748 4.748 0 0 1-3.034-1.629c-.886-1.024-1.463-2.506-1.534-4.403a10.336 10.336 0 0 1-.004-.13l1.955 1.513-.645 2.432a.124.124 0 0 0 .02.105c.023.03.059.05.098.053l2.443.19zm-2.03-2.742l-1.734-1.342c.07 1.531.475 2.78 1.103 3.725a.224.224 0 0 1 .003-.016l.628-2.367zm-.235 2.31l2.1.163-1.547-2.25-.553 2.086zm.594-1.85L3 14.313l1.771.138-1.304-1.897zm2.736 4.083l-.636-1.694H7.43l-.637 1.694a5.258 5.258 0 0 1-.591 0zm.662.096a5.289 5.289 0 0 1-.733 0l-.71-1.89h2.153l-.71 1.89zm.775-2.245l1.63-2.368-2.538-.923v3.29h.91zm-1.009-3.434l2.793 1.016-1.731 2.518H6.63v-3.534zm2.852.765L9.297 8.59l-2.55 2.233 2.736.996zM6.94 10.787L9.209 8.8l.165 2.873-2.433-.886zm2.804.965l1.911-1.48L9.563 8.6l.182 3.152zm-.07-2.934l.158 2.739 1.661-1.286-1.818-1.453zm.215 3.276l.627 2.367.004.015c.627-.945 1.032-2.193 1.101-3.724L9.89 12.094zm-.114-.039l.645 2.432a.124.124 0 0 1-.02.105.134.134 0 0 1-.098.053l-2.443.19-.702 1.869a4.748 4.748 0 0 0 3.034-1.629c.886-1.024 1.463-2.506 1.534-4.403l.004-.13-1.954 1.513zM7.31 16.581a4.647 4.647 0 0 0 2.805-1.572 4.41 4.41 0 0 0 .216-.267.248.248 0 0 1-.021.003l-2.38.186-.62 1.65zm2.814-2.178l-.553-2.085-1.547 2.249 2.1-.164zm-1.899.048l1.772-.138-.467-1.76-1.305 1.898zm2.1-8.467l-.759 2.288 2.158 1.724a4.776 4.776 0 0 0-.009-.136c-.1-1.235-.628-2.539-1.323-3.76a9.026 9.026 0 0 0-.026-.046l-.04-.07zm.025.244l-.667 2.01 1.924 1.536c-.114-1.16-.605-2.385-1.257-3.546zm-.227-.473l-1.695-.45.977 2.613.718-2.163zm-.128.07L9.4 7.618 8.59 5.45l1.406.374zm-6.743 5.927L3.435 8.6 1.34 10.272l1.912 1.48zm-.089-.195l-1.66-1.287 1.82-1.453-.159 2.739zM8.138 3.05l-.046 1.761-1.35-1.314 1.396-.447zm-1.206.491l1.102-.353-.036 1.392-1.066-1.039z" fill="#212121"></path>
</svg>
