<?xml version="1.0" encoding="UTF-8"?>
<svg xmlns="http://www.w3.org/2000/svg" width="18" height="18" viewBox="0 0 18 18" fill="none">
  <path fill-rule="evenodd" clip-rule="evenodd" d="M.998 1h16v16h-16V1zm.498.292L3.45 3.244h11.138l1.918-1.952H1.496zm15.21.21L14.755 3.49v11.06l1.953 1.952v-15zM16.5 16.71l-1.952-1.953h-11.1L1.497 16.71H16.5zm-15.21-.207V1.498l1.952 1.953v11.1l-1.952 1.95zm2.45-2.037h10.516l-1.952-1.953H5.693L3.74 14.465zm2.038-2.244h6.44v-6.2l-.182-.18.06-.06h-6.16l-.158.156v6.284zm-.085-6.733h6.69L14.3 3.536H3.74l1.953 1.952zM3.534 3.742l1.953 1.953v6.611l-1.953 1.952V3.742zm10.929.045L12.51 5.774v6.532l1.953 1.952V3.787z" fill="#212121"></path>
  <path fill-rule="evenodd" clip-rule="evenodd" d="M.898 1a.1.1 0 0 1 .1-.1h16a.1.1 0 0 1 .1.1v16a.1.1 0 0 1-.1.1h-16a.1.1 0 0 1-.1-.1V1zm11.197 4.78l-.059.06.183.18v6.2h-6.44V5.938l.156-.157h6.16zm-.15.1H5.976l-.099.099v6.142h6.24V6.062l-.152-.15a.1.1 0 0 1-.022-.032zM3.49 3.144L1.738 1.392h14.528l-1.721 1.752H3.49zm11.097.1H3.449L1.496 1.292h15.009l-1.918 1.952zm.267.287l1.753-1.784v14.514l-1.753-1.752V3.53zm-.1 11.02V3.49l1.953-1.987v15l-1.953-1.953zm-.247.305H3.49L1.738 16.61h14.521l-1.752-1.753zm.041-.1h-11.1L1.497 16.71H16.5l-1.952-1.953zM1.29 1.498l1.952 1.953v11.1l-1.952 1.95V1.498zm.1 14.763V1.74l1.752 1.752V14.51L1.39 16.26zm12.866-1.796l-1.952-1.953H5.693L3.74 14.465h10.516zm-10.274-.1h10.033l-1.752-1.753H5.734l-1.752 1.753zm8.358-8.977l1.722-1.752H3.982l1.752 1.752h6.606zm-6.647.1h6.69L14.3 3.536H3.74l1.953 1.952zM3.534 3.742v10.516l1.953-1.952V5.695L3.534 3.742zm.1.242l1.753 1.752v6.529l-1.753 1.752V3.984zm8.976 1.831v6.45l1.753 1.752V4.03L12.61 5.815zm-.1-.04v6.531l1.953 1.952V3.787L12.51 5.774zM.998 1v16h16V1h-16z" fill="#212121"></path>
</svg>
