<?xml version="1.0" encoding="UTF-8"?>
<svg xmlns="http://www.w3.org/2000/svg" width="18" height="17" viewBox="0 0 18 17" fill="none">
  <path fill-rule="evenodd" clip-rule="evenodd" d="M3.386 2.8a.14.14 0 0 0-.009.008l-.004.004-.031.032A8 8 0 0 0 8.997 16.5H9a7.975 7.975 0 0 0 5.766-2.456l.003-.002.002-.003a7.976 7.976 0 0 0 2.225-5.71 7.973 7.973 0 0 0-2.424-5.567 8 8 0 0 0-11.186.037zm10.907.068a7.699 7.699 0 0 0-2.234-1.469l.715 2.987 1.519-1.518zm-1.764 1.65l-.693-2.89-1.11 2.89h1.802zm-2.05-.109l1.116-2.903-2.461 1.556v.001L10.48 4.41zM9.135 2.743l2.43-1.537a7.748 7.748 0 0 0-2.43-.435v1.972zM8.864.77a7.74 7.74 0 0 0-2.784.569l2.784 1.55V.77zm-.087 2.38L6.095 1.657l1.407 2.768L8.777 3.15zm-1.53 1.367L5.845 1.76l-.413 2.718a.135.135 0 0 1-.013.04h1.828zM5.178 4.35l.426-2.797A7.71 7.71 0 0 0 3.669 2.9l1.51 1.449zm-.169.21L3.477 3.09A7.72 7.72 0 0 0 2.09 5.024l2.918-.463zm.154.25l-2.852.452 2.852 1.344V4.81zm-.095 2.05L2.204 5.51l1.588 2.626 1.276-1.277zM3.526 8.217l-1.65-2.729a7.735 7.735 0 0 0-.603 2.729h2.253zm-2.258.27a7.744 7.744 0 0 0 .55 2.879l1.71-2.88h-2.26zm.697 3.225A7.715 7.715 0 0 0 3.565 14l1.48-1.847-3.08-.44zm3.261.645l-1.465 1.828a7.697 7.697 0 0 0 2.159 1.408l-.694-3.236zm1.153 3.417c.802.289 1.642.44 2.485.455v-2.37l-2.485 1.915zm2.754-1.93v2.385a7.74 7.74 0 0 0 2.65-.516l-2.65-1.868zm3.106 1.676a7.716 7.716 0 0 0 2.225-1.554l.016-.016-1.69-1.625-.551 3.195zm.729-3.397l1.699 1.633a7.694 7.694 0 0 0 1.51-2.382l-.097-.038-3.112.787zm3.209-1.038l.095.037c.306-.85.458-1.743.457-2.636H14.48l1.696 2.599zM14.04 8.352L12.834 9.56V7.145l1.207 1.207zm-1.1-1.481l1.272 1.272 1.676-2.407L12.94 6.87zm3.278-1.137L14.49 8.217h2.233a7.739 7.739 0 0 0-.504-2.483zm-.2-.472a7.713 7.713 0 0 0-1.533-2.206l-1.518 1.518 3.052.688zm-3.455-.475v1.707l-1.707-1.707h1.707zm-2.088 0l2.088 2.088V9.83l-2.089 2.09H7.522L5.433 9.83V6.876l2.089-2.09h2.954zm-.27-.27L9 3.31 7.79 4.517h2.415zm-3.066.27L5.433 6.494V4.787H7.14zM5.163 7.145L3.956 8.352 5.163 9.56V7.145zM5.07 9.847L3.793 8.57l-1.589 2.673L5.07 9.847zm.094.254l-2.85 1.39 2.85.406v-1.796zm.302 2.087l.674 3.14 1.135-3.14h-1.81zm-.032-.27h1.708L5.433 10.21v1.708zm2.359.27L9 13.395l1.207-1.207H7.792zm2.692.103l1.276 3.076-2.553-1.8 1.277-1.276zm.249-.103l1.276 3.076.53-3.076h-1.806zm2.101-.309l2.811-.71-2.811-1.088v1.798zm.107-2.045l2.805 1.085-1.536-2.354-1.269 1.269zm-.377.377l-1.707 1.707h1.707v-1.707zm-3.769 3.361l-1.274-1.274-1.132 3.129 2.406-1.855zm4.039-8.752l2.954.666-2.954 1.137V4.82z" fill="#212121"></path>
  <path fill-rule="evenodd" clip-rule="evenodd" d="M3.377 2.808a8 8 0 0 1 11.204-.038l.006.006.068.068a7.973 7.973 0 0 1 2.342 5.527 7.976 7.976 0 0 1-2.226 5.668l-.002.003-.003.002A7.975 7.975 0 0 1 9 16.5h-.003a7.974 7.974 0 0 1-5.655-2.343 8 8 0 0 1 0-11.313l.031-.032.004-.004zm-.076-.066l-.03.03A8.1 8.1 0 0 0 8.997 16.6H9a8.075 8.075 0 0 0 5.838-2.487l.002-.001.002-.002.001-.002a8.077 8.077 0 0 0 2.253-5.788 8.072 8.072 0 0 0-2.437-5.613l-.007-.008a8.1 8.1 0 0 0-11.347.04l-.004.003zm5.784.088a.1.1 0 0 1-.051-.087V.77a.1.1 0 0 1 .101-.1 7.848 7.848 0 0 1 2.462.441.1.1 0 0 1 .02.179l-2.43 1.536a.1.1 0 0 1-.102.003zm5.395 11.121l-.016.016a7.715 7.715 0 0 1-2.226 1.554l.551-3.195 1.69 1.625zm-.143.001l-1.481-1.424-.486 2.82a7.616 7.616 0 0 0 1.967-1.396zM12.059 1.4l.715 2.987 1.519-1.518A7.698 7.698 0 0 0 12.059 1.4zm.144.174A7.599 7.599 0 0 1 14.15 2.87l-1.32 1.319-.626-2.616zm-.367.056l-1.11 2.888h1.802l-.692-2.888zm-.022.336l.588 2.452h-1.53l.942-2.452zm-.22-.459l-2.46 1.556v.001L10.48 4.41l1.114-2.903zm-.201.246l-.952 2.477-1.15-1.15 2.102-1.327zm.171-.546a7.749 7.749 0 0 0-2.43-.435v1.972l2.43-1.537zM6.08 1.34l2.784 1.55V.77a7.79 7.79 0 0 0-2.784.569zm.234.016l2.45 1.363V.874a7.643 7.643 0 0 0-2.45.482zm-.219.301l1.407 2.768L8.777 3.15 6.095 1.657zm.238.247l2.28 1.269-1.084 1.084-1.196-2.353zm-.488-.144l-.413 2.718a.135.135 0 0 1-.013.04h1.828L5.845 1.76zm.052.323l1.186 2.334h-1.54l.354-2.334zm-.293-.53a7.635 7.635 0 0 0-1.862 1.28 7.695 7.695 0 0 0-.073.068l1.51 1.449.425-2.797zm-.495 2.591l.367-2.415a7.612 7.612 0 0 0-1.662 1.173m-.335.33a7.62 7.62 0 0 0-1.207 1.662l2.523-.4L3.479 3.23zm-.002-.142A7.723 7.723 0 0 0 2.09 5.024l2.918-.463-1.532-1.47zM2.31 5.262l2.852 1.344V4.81l-2.852.453zm.336.048l2.417 1.14V4.927l-2.416.383zm-.443.2l1.588 2.626 1.276-1.277L2.204 5.51zm.257.232l1.35 2.233 1.085-1.086L2.46 5.742zm-.584-.253a7.736 7.736 0 0 0-.603 2.728h2.252L1.876 5.49zm1.472 2.629L1.894 5.71a7.638 7.638 0 0 0-.516 2.407h1.97zm-1.532 3.249l1.711-2.88h-2.26a11.502 11.502 0 0 0 0 .1 7.745 7.745 0 0 0 .55 2.78zm.02-.229a7.646 7.646 0 0 1-.468-2.55h1.983l-1.515 2.55zm3.208 1.015l-3.08-.44.05.109a7.7 7.7 0 0 0 1.48 2.106l.037.039.033.032 1.48-1.846zm-2.91-.314a7.617 7.617 0 0 0 1.422 2.01l1.3-1.622-2.722-.388zm1.763 2.337l1.274-1.59.609 2.835a7.6 7.6 0 0 1-1.883-1.245zm1.328-1.818L3.76 14.186a7.7 7.7 0 0 0 2.159 1.408l-.694-3.236zm3.638 3.872v-2.37l-2.485 1.915.112.04a7.75 7.75 0 0 0 2.373.415zm-2.277-.489l2.177-1.678v2.064a7.646 7.646 0 0 1-2.177-.386zm2.546.489l.1-.003a7.743 7.743 0 0 0 2.55-.513l-2.65-1.868v2.384zm.1-2.191l2.338 1.647a7.643 7.643 0 0 1-2.338.441V14.04zm5.434-.282a7.764 7.764 0 0 0 1.51-2.382l-.097-.038-3.112.787 1.699 1.633zm-.005-.143a7.593 7.593 0 0 0 1.375-2.163l-2.87.726 1.495 1.437zm1.61-2.492c.012-.03.023-.062.034-.094a7.75 7.75 0 0 0 .422-2.44v-.101H14.48l1.696 2.599.095.037zm-.052-.153l-1.554-2.382h1.962a7.65 7.65 0 0 1-.408 2.382zM14.04 8.352L12.834 9.56V7.145l1.207 1.207zm-1.107-.966l.966.966-.966.966V7.386zm1.28.757l1.675-2.407L12.94 6.87l1.272 1.272zm-.014-.155l1.42-2.042-2.5.963 1.08 1.079zm.29.23h2.233a7.741 7.741 0 0 0-.505-2.484L14.49 8.217zm.192-.1l1.51-2.17a7.68 7.68 0 0 1 .427 2.17h-1.937zm-.126-4.99a7.583 7.583 0 0 0-.07-.072l-1.518 1.518 3.052.688a7.714 7.714 0 0 0-1.464-2.134zm1.285 1.99a7.616 7.616 0 0 0-1.356-1.92l-1.318 1.318 2.674.603zm-3.377 1.134V4.887H11.1l1.365 1.365zm.1.242l-1.707-1.707h1.707v1.707zm-2.13-1.607l2.03 2.03v2.87l-2.03 2.031h-2.87l-2.03-2.03V6.916l2.03-2.03h2.87zm-5 1.989v2.953l2.088 2.09h2.953l2.09-2.09V6.875l-2.089-2.088H7.522L5.433 6.876zM8.998 3.31l1.207 1.207H7.791L9 3.31zm0 .141l.966.966H8.033l.966-.966zM5.433 6.494V4.787H7.14L5.433 6.494zM6.9 4.887L5.533 6.253V4.887H6.9zM3.956 8.352l1.207-1.207V9.56L3.956 8.352zm.142 0l.965-.965v1.93l-.965-.965zm-.305.218l-1.589 2.673L5.07 9.847 3.793 8.57zm.02.162l-1.352 2.275L4.9 9.818 3.813 8.732zm-1.5 2.759l2.85.406v-1.796l-2.85 1.39zm.336-.053l2.414-1.177v1.52l-2.414-.344zm3.49 3.89l1.135-3.14H5.465l.674 3.14zm.024-.363l-.574-2.677h1.542l-.968 2.677zm.978-3.047L5.433 10.21v1.708h1.708zm-1.608-.1v-1.366L6.9 11.818H5.533zM9 13.395l-1.207-1.207h2.414L9 13.395zm.965-1.107L9 13.253l-.966-.965h1.931zm.52.003l-1.277 1.277 2.553 1.8-1.276-3.077zm-.035.176l1.087 2.62-2.174-1.532 1.087-1.088zm1.56 2.797l.53-3.076h-1.806l1.276 3.076zm-.04-.357l-1.086-2.62h1.538l-.451 2.62zm3.676-3.738l-2.811-1.088v1.798l2.811-.71zm-.329-.02l-2.382-.922v1.524l2.382-.602zm.43-.23L14.21 8.565l-1.27 1.269 2.805 1.085zm-.253-.205l-1.3-1.991-1.073 1.073 2.373.918zm-4.636 1.204h1.707v-1.707l-1.707 1.707zm.241-.1l1.366-1.366v1.366h-1.366zm-3.577.48L6.39 15.427l2.406-1.855-1.274-1.274zm.04.182l-.96 2.658 2.043-1.575L7.56 12.48zm8.226-6.994l-2.953 1.137V4.82l2.954.666zm-2.853-.54l2.51.565-2.51.966V4.945z" fill="#212121"></path>
</svg>
