<?xml version="1.0" encoding="UTF-8"?>
<svg xmlns="http://www.w3.org/2000/svg" width="25" height="16" viewBox="0 0 25 16" fill="none">
  <path fill-rule="evenodd" clip-rule="evenodd" d="M1.571 7.715a.786.786 0 0 0 0 1.572H23.43a.786.786 0 0 0 0-1.572H1.57zm0-.785a1.571 1.571 0 1 0 0 3.143H23.43a1.571 1.571 0 0 0 0-3.143H1.57z" fill="#212121"></path>
  <path d="M17 8c0 4.418-2.239 8-5 8s-5-3.582-5-8 2.239-8 5-8 5 3.582 5 8z" fill="#fff"></path>
  <path fill-rule="evenodd" clip-rule="evenodd" d="M14.87 13.24c.814-1.304 1.344-3.155 1.344-5.24 0-2.085-.53-3.936-1.345-5.24C14.047 1.444 13.012.786 12 .786c-1.012 0-2.047.658-2.87 1.974C8.317 4.064 7.787 5.915 7.787 8c0 2.085.53 3.936 1.345 5.24.822 1.316 1.857 1.974 2.869 1.974 1.012 0 2.047-.658 2.87-1.974zM12 16c2.761 0 5-3.582 5-8s-2.239-8-5-8-5 3.582-5 8 2.239 8 5 8z" fill="#212121"></path>
  <path fill-rule="evenodd" clip-rule="evenodd" d="M9 8l3-3 3 3-3 3-3-3zm3 1.883L13.883 8 12 6.117 10.117 8 12 9.883z" fill="#212121"></path>
</svg>
