<?xml version="1.0" encoding="UTF-8"?>
<svg xmlns="http://www.w3.org/2000/svg" width="25" height="11" viewBox="0 0 25 11" fill="none">
  <path d="M1.571 4.323H23.43a1.179 1.179 0 0 1 0 2.357H1.57a1.179 1.179 0 0 1 0-2.357zM1 8.393h23a.607.607 0 0 1 0 1.214H1a.607.607 0 1 1 0-1.214z" stroke="#212121" stroke-width=".786"></path>
  <path d="M17.969 5.5c0 3.038-2.449 5.5-5.469 5.5-3.02 0-5.469-2.462-5.469-5.5S9.48 0 12.5 0c3.02 0 5.469 2.462 5.469 5.5z" fill="#fff"></path>
  <path fill-rule="evenodd" clip-rule="evenodd" d="M12.5 10.214c2.582 0 4.683-2.106 4.683-4.714 0-2.608-2.1-4.714-4.683-4.714-2.582 0-4.683 2.106-4.683 4.714 0 2.608 2.1 4.714 4.683 4.714zm0 .786c3.02 0 5.469-2.462 5.469-5.5S15.52 0 12.5 0C9.48 0 7.031 2.462 7.031 5.5S9.48 11 12.5 11z" fill="#212121"></path>
  <path d="M16.406 5.499c0 2.17-1.749 3.928-3.906 3.928S8.594 7.67 8.594 5.5s1.749-3.93 3.906-3.93 3.906 1.76 3.906 3.929z" fill="#fff"></path>
  <path fill-rule="evenodd" clip-rule="evenodd" d="M12.5 8.642c1.72 0 3.12-1.403 3.12-3.143 0-1.74-1.4-3.143-3.12-3.143-1.72 0-3.12 1.403-3.12 3.143 0 1.74 1.4 3.143 3.12 3.143zm0 .785c2.157 0 3.906-1.758 3.906-3.928S14.657 1.57 12.5 1.57 8.594 3.33 8.594 5.5s1.749 3.928 3.906 3.928z" fill="#212121"></path>
  <path fill-rule="evenodd" clip-rule="evenodd" d="M11.264 5.5L12.5 6.743 13.736 5.5 12.5 4.257 11.264 5.5zm-1.108 0L12.5 7.857 14.844 5.5 12.5 3.143 10.156 5.5z" fill="#212121"></path>
</svg>
