<?xml version="1.0" encoding="UTF-8"?>
<svg xmlns="http://www.w3.org/2000/svg" width="166" height="77" viewBox="0 0 166 77" fill="none">
  <path d="M82.922 17.79c.897.544 1.733 1.089 3.19 1.091 2.72.002 3.098-2.561 2.645-4.21-.334-1.214-.632-2.34-.648-3.393-.025-1.654.982-2.206 1.783-1.976.68.196 1.17 1.07 1.17 1.07-.882-2.787-4.602-2.963-4.437.453 0 0-1.13-1.026-1.978-.856.952 1.167.71 6.705-1.591 6.84l-.134.98z" fill="#B9B29E"></path>
  <path d="M83.79 17.79c-.896.544-1.733 1.089-3.19 1.091-2.721.002-3.1-2.561-2.645-4.21.335-1.214.63-2.34.648-3.393.024-1.654-.982-2.206-1.784-1.976-.679.196-1.17 1.07-1.17 1.07.883-2.787 4.602-2.963 4.437.453 0 0 1.13-1.026 1.978-.856-.952 1.167-.71 6.705 1.592 6.84l.134.98z" fill="#B9B29E"></path>
  <path d="M83.375 17.31s-1.273-1.276-1.273-3.644c0-2.366 1.178-4.152 1.178-4.152s1.37 2.319 1.372 4.076c0 2.53-1.277 3.72-1.277 3.72z" fill="#B9B29E"></path>
  <path d="M82.064 23.868c.507.63.97 1.5 1.297 2.553.327-1.056.784-1.92 1.293-2.553l.457-.51c1.62-1.628 3.85-2.225 6.048-4.734 1.801-2.054 2.543-3.852 2.57-5.471-.027-1.62-.75-3.434-2.57-5.472-2.623-2.936-6.42-2.492-7.798-6.966-1.374 4.469-5.15 4.065-7.803 6.966-1.842 2.017-2.542 3.852-2.566 5.472.024 1.62.769 3.417 2.566 5.471 2.2 2.509 4.43 3.106 6.051 4.734l.455.51zM83.361.772c.901 5.303 5.743 5.12 7.706 9.6.431.982.617 1.91.627 2.781-.01.87-.2 1.796-.627 2.782-1.64 3.822-4.516 4.802-6.293 7.125a11.074 11.074 0 0 1-1.017-1.049c1.05-1.452 1.717-3.148 1.784-4.979-.073-.064-.133-.112-.167.048a11.226 11.226 0 0 1-2.015 4.434 11.269 11.269 0 0 1-2.015-4.434c-.031-.16-.093-.111-.166-.048.063 1.831.733 3.527 1.784 4.98-.313.37-.655.72-1.014 1.048-1.78-2.323-4.654-3.303-6.297-7.125-.424-.986-.614-1.912-.624-2.782.01-.87.196-1.799.624-2.78 1.948-4.469 6.81-4.298 7.71-9.6zm0 25.598c-.193-1.128-.559-2.006-1.023-2.752a11.67 11.67 0 0 0 1.022-1.09c.317.383.66.747 1.024 1.09a7.493 7.493 0 0 0-1.023 2.752zm16.85-1.431c.844-.485 5.375-1.699 8.451-1.116-.922-.176-1.857-.771-3.524-.653-1.352.096-2.351.442-2.28.388 2.264-1.621 4.647-3.105 8.239.982.37.42.715.88 1.036 1.375-.591-.33-3.563-1.466-5.938-.175-2.192 1.19-5.081.965-5.984-.801zm-11.116.854c.993-.111 5.618-1.556 7.645-4.113-.587.746-.974 1.909-2.674 2.996-1.164.74-2.913 1.072-2.824 1.072 2.873-.028 6.562-.376 7.038-6.118.047-.565.038-1.147-.01-1.745-.278.62-1.998 3.335-4.753 3.704-2.54.338-4.793 2.215-4.422 4.204z" fill="#B9B29E"></path>
  <path d="M85.105 23.359a11.661 11.661 0 0 0 6.077 2.621c4.217.523 9.743-.812 11.158-6.602.654-2.68-1.873-5.741-4.739-5.52 0 0 1.281.5.799 2.287-.292 1.077-2.177 1.854-3.427 1.026-1.986-1.317-1.053-4.944 2.64-4.944 5.274 0 8.168 4.838 5.963 9.677-1.784 3.917-7.581 6.413-14.09 4.651-1.774-.48-3.448-1.453-4.838-2.686m-18.108 1.07c-.844-.485-5.376-1.699-8.453-1.116.924-.176 1.857-.771 3.525-.653 1.352.096 2.35.442 2.28.388-2.265-1.621-4.646-3.105-8.238.982-.37.42-.715.88-1.037 1.375.59-.33 3.563-1.466 5.938-.175 2.191 1.19 5.08.965 5.985-.801zm11.115.854c-.993-.111-5.618-1.556-7.646-4.113.588.746.974 1.909 2.675 2.996 1.163.74 2.912 1.072 2.822 1.072-2.872-.028-6.56-.376-7.038-6.118a10.737 10.737 0 0 1 .011-1.745c.277.62 1.998 3.335 4.753 3.704 2.541.338 4.793 2.215 4.423 4.204z" fill="#B9B29E"></path>
  <path d="M81.653 23.359a11.67 11.67 0 0 1-6.077 2.621c-4.217.523-9.743-.812-11.158-6.602-.654-2.68 1.872-5.741 4.739-5.52 0 0-1.282.5-.798 2.287.29 1.077 2.177 1.854 3.427 1.026 1.986-1.317 1.052-4.944-2.64-4.944-5.275 0-8.168 4.838-5.963 9.677 1.783 3.917 7.58 6.413 14.09 4.651 1.773-.48 3.448-1.453 4.836-2.686" fill="#B9B29E"></path>
  <path d="M2.864 56.33C.954 54.408 0 51.873 0 48.73c0-3.146.955-5.68 2.864-7.604 1.91-1.923 4.438-2.885 7.586-2.885 2.571 0 4.846.653 6.823 1.96l.576 4.072h-.259c-.424-1.656-1.276-2.93-2.563-3.824-1.285-.895-2.812-1.342-4.578-1.342-2.514 0-4.524.875-6.032 2.625-1.506 1.75-2.26 4.068-2.26 6.954 0 2.885.744 5.209 2.233 6.967 1.487 1.762 3.45 2.67 5.887 2.728 2.149 0 3.944-.585 5.383-1.76 1.556-1.27 2.496-3.338 2.822-6.203h.231l-.346 4.53c-1.747 2.866-4.444 4.298-8.09 4.298-3.033-.02-5.503-.99-7.413-2.915zm26.617-5.364h7.081l-3.453-9.264-3.628 9.264zm14.164 7.587h.23v.29h-6.477v-.29h.258c.404 0 .706-.13.908-.388.202-.262.302-.506.302-.737 0-.23-.04-.461-.115-.692l-1.843-4.905h-7.773l-1.928 4.934a2.115 2.115 0 0 0-.116.678c0 .221.101.46.304.722.201.259.502.388.906.388h.259v.29h-5.787v-.29h.26c.479 0 .949-.152 1.41-.462.461-.308.836-.76 1.123-1.355l6.506-15.524c.71-1.559 1.066-2.547 1.066-2.972h.259l7.715 18.496c.27.595.634 1.047 1.094 1.355.46.31.94.462 1.439.462zm28.678 0h.461v.29h-6.248v-.261h.432c.326 0 .605-.13.835-.39.23-.26.326-.544.287-.85l-1.294-14.514-6.046 13.474c-.538 1.173-.864 2.156-.978 2.943h-.289l-7.37-16.013-1.24 14.11c-.037.306.059.59.288.85.231.26.5.39.807.39h.46v.26h-5.584v-.29h.46a2.12 2.12 0 0 0 1.396-.49c.394-.327.628-.768.705-1.326l2.16-18.496h.287l8.033 17.398 7.859-17.398h.26l2.216 18.496c.096.769.479 1.309 1.151 1.615.29.135.607.202.952.202zm5.872.001c.5 0 .926-.179 1.28-.534.357-.355.544-.783.564-1.283V40.58a1.864 1.864 0 0 0-.605-1.17 1.774 1.774 0 0 0-1.238-.476h-.346l-.03-.288h8.437c.596 0 1.242-.058 1.943-.173.701-.116 1.195-.231 1.483-.347v3.635h-.288v-.517c0-.463-.16-.857-.476-1.185a1.639 1.639 0 0 0-1.136-.52h-5.874v8.918h4.866c.383-.02.709-.165.979-.435.268-.268.402-.605.402-1.008v-.404h.288v4.56h-.288v-.435c0-.383-.13-.71-.39-.98a1.388 1.388 0 0 0-.963-.433h-4.894v8.627h4.117c1.42 0 2.504-.317 3.253-.951.749-.636 1.372-1.577 1.871-2.828h.288l-1.67 4.675H77.82v-.29h.376zm19.202.001c.5 0 .926-.178 1.282-.534.355-.355.543-.782.562-1.282V40.754a1.864 1.864 0 0 0-.562-1.285 1.743 1.743 0 0 0-1.282-.534h-.374v-.288h6.305v.288h-.374c-.691 0-1.218.299-1.582.894a1.77 1.77 0 0 0-.261.925v17.195h4.118c1.42 0 2.503-.316 3.253-.95.749-.637 1.373-1.578 1.871-2.829h.288l-1.67 4.675H97.023v-.29h.374zm18.625 0c.499 0 .926-.178 1.281-.534a1.85 1.85 0 0 0 .562-1.282V40.754a1.862 1.862 0 0 0-.562-1.285 1.74 1.74 0 0 0-1.281-.534h-.374v-.288h6.305v.288h-.375c-.69 0-1.218.299-1.582.894a1.77 1.77 0 0 0-.261.925v17.195h4.118c1.42 0 2.504-.316 3.253-.95.749-.637 1.372-1.578 1.872-2.829h.287l-1.67 4.675h-11.947v-.29h.374zm18.625 0c.5 0 .926-.178 1.281-.534.356-.355.543-.782.563-1.282V40.725a1.81 1.81 0 0 0-.563-1.27 1.77 1.77 0 0 0-1.281-.52h-.374v-.288h6.305v.288h-.374c-.499 0-.927.174-1.28.52a1.8 1.8 0 0 0-.563 1.27v16.014c0 .5.183.927.549 1.282.363.356.795.534 1.294.534h.374v.29h-6.305v-.29h.374zm16.96-7.589h7.081l-3.455-9.264-3.626 9.264zm14.164 7.587h.23v.29h-6.479v-.29h.26c.404 0 .706-.13.909-.388.2-.262.301-.506.301-.737 0-.23-.04-.461-.115-.692l-1.843-4.905h-7.773l-1.929 4.934a2.115 2.115 0 0 0-.116.678c0 .221.102.46.303.722.202.259.503.388.907.388h.259v.29h-5.787v-.29h.26c.479 0 .949-.152 1.411-.462.461-.308.835-.76 1.122-1.355l6.506-15.524c.71-1.559 1.066-2.547 1.066-2.972h.259l7.715 18.496c.269.595.634 1.047 1.094 1.355.462.31.94.462 1.44.462zm.118 11.969l.108.01v-1.186a4.47 4.47 0 0 1-1.298.17h-3.622c-.223 0-.465-.019-.731-.057a3.191 3.191 0 0 1-.557-.113v1.186l.107-.01v-.16c0-.15.06-.283.177-.39a.66.66 0 0 1 .436-.174h2.035v5.642a.559.559 0 0 1-.208.407.72.72 0 0 1-.478.167h-.138v.095h2.346v-.095h-.139a.711.711 0 0 1-.477-.167.568.568 0 0 1-.211-.415v-5.634h2.039a.66.66 0 0 1 .428.174.5.5 0 0 1 .183.39v.16zm-8.73-.902v-.092h-2.207v.092h.204a.69.69 0 0 1 .459.165c.129.11.197.246.205.409v4.666l-5.843-5.473h-.106l.02.15c.05.3.076.642.076 1.025v4.88a.52.52 0 0 1-.194.412.696.696 0 0 1-.461.162h-.203v.095h2.208v-.095h-.203a.708.708 0 0 1-.322-.074c-.214-.107-.326-.27-.334-.49v-4.685l5.843 5.476h.098l-.023-.17a6.665 6.665 0 0 1-.076-1.034v-4.856a.55.55 0 0 1 .204-.398.692.692 0 0 1 .461-.165h.194zm-15.917 6.394v.096h4.448l.623-1.525h-.109c-.187.41-.418.716-.697.922-.279.207-.682.311-1.211.311h-1.532v-2.81h1.822a.541.541 0 0 1 .359.14.418.418 0 0 1 .143.317v.143h.109V72.12h-.109v.131a.412.412 0 0 1-.148.33.56.56 0 0 1-.364.141h-1.812v-2.905h2.187a.643.643 0 0 1 .425.17.498.498 0 0 1 .175.384v.17h.109v-1.185a3.089 3.089 0 0 1-.553.112 5.047 5.047 0 0 1-.724.058h-3.14l.009.092h.13c.179 0 .332.052.461.157a.599.599 0 0 1 .227.381v5.266a.581.581 0 0 1-.211.418.694.694 0 0 1-.477.174h-.14zm-3.274-.064a.64.64 0 0 1-.428-.528l-.826-6.028h-.097l-2.927 5.671-2.989-5.67h-.107l-.805 6.027a.637.637 0 0 1-.262.431.85.85 0 0 1-.52.16h-.171v.096h2.079v-.087h-.172a.416.416 0 0 1-.299-.125c-.087-.084-.123-.178-.108-.278l.461-4.599 2.743 5.22h.109c.042-.258.165-.577.364-.96l2.251-4.394.483 4.733a.321.321 0 0 1-.108.278.428.428 0 0 1-.311.125h-.16v.087h2.326v-.096h-.173a.94.94 0 0 1-.353-.063zm-21.64 0a.645.645 0 0 1-.43-.528l-.825-6.028h-.095l-2.926 5.671-2.992-5.67h-.107l-.804 6.027a.634.634 0 0 1-.262.431.85.85 0 0 1-.522.16h-.17v.096h2.08v-.087h-.171a.421.421 0 0 1-.302-.125c-.085-.084-.12-.178-.106-.278l.461-4.599 2.744 5.22h.107c.044-.258.165-.577.364-.96l2.25-4.394.485 4.733c.013.1-.024.194-.108.278a.428.428 0 0 1-.311.125h-.162v.087h2.326v-.096h-.169a.936.936 0 0 1-.355-.063zm-18.163-4.544c.207-.101.377-.287.51-.565.133-.276.218-.528.257-.758.04-.228.062-.393.062-.493v-.196l-.753.132c.014.193.02.416.02.664 0 .246-.063.635-.19 1.17l.094.046zm-4.288 4.709c.353.085.687.127 1.002.127.607 0 1.093-.162 1.458-.485a1.58 1.58 0 0 0 .546-1.236c0-.503-.176-.897-.534-1.187l-2.113-1.71c-.285-.231-.43-.51-.43-.83 0-.32.126-.584.371-.797.248-.214.552-.323.916-.323.365 0 .664.087.896.265a.84.84 0 0 1 .348.703h.097v-1.155h-.418a5.373 5.373 0 0 0-.922-.093c-.58 0-1.036.157-1.378.473a1.51 1.51 0 0 0-.51 1.145c0 .444.194.825.58 1.137l2.058 1.674c.278.225.418.52.418.88s-.145.658-.432.898c-.291.239-.663.359-1.112.359-.436 0-.786-.128-1.05-.383a1.264 1.264 0 0 1-.397-.953c0-.07.004-.14.012-.207h-.098a2.285 2.285 0 0 0-.162.8c0 .252.013.418.033.506.195.178.468.307.821.392zm-8.963-.101v.096h4.449l.621-1.525h-.107c-.186.41-.417.716-.697.922-.28.206-.683.311-1.211.311h-1.534v-2.81h1.823a.547.547 0 0 1 .36.14.417.417 0 0 1 .145.317v.143h.105V72.12h-.105v.131c0 .134-.05.245-.15.33a.563.563 0 0 1-.365.141h-1.813v-2.905h2.187a.635.635 0 0 1 .425.17.494.494 0 0 1 .176.384v.17h.108v-1.185a3.032 3.032 0 0 1-.553.112c-.26.038-.503.058-.723.058h-3.14l.012.092h.127c.178 0 .331.052.46.157a.583.583 0 0 1 .226.381v5.266a.576.576 0 0 1-.21.418.694.694 0 0 1-.476.174h-.14zm-2.448-6.486h-2.381v.092h.13c.156 0 .276.065.363.188a.34.34 0 0 1 .074.2.376.376 0 0 1-.052.186l-1.716 2.642-1.606-2.633a.385.385 0 0 1-.055-.193c0-.065.022-.132.065-.202a.42.42 0 0 1 .364-.189h.14v-.092h-2.636v.092h.15c.214 0 .418.052.617.16.196.108.347.235.455.386l2.046 3v2.268a.55.55 0 0 1-.21.415.713.713 0 0 1-.476.166h-.14v.096h2.339v-.096h-.13a.715.715 0 0 1-.489-.174.534.534 0 0 1-.196-.418v-2.248l2.11-3.01a1.62 1.62 0 0 1 .477-.389c.19-.104.391-.157.607-.157h.15v-.09zm-9.19 1.878c.208-.101.377-.287.51-.565a3.03 3.03 0 0 0 .258-.758c.038-.228.058-.393.058-.493v-.196l-.75.132c.014.193.021.416.021.664 0 .246-.065.635-.193 1.17l.096.046zm-8.294-.884l.106.01v-1.186a4.456 4.456 0 0 1-1.297.17H60.17c-.224 0-.466-.019-.732-.057a3.092 3.092 0 0 1-.555-.113v1.186l.105-.01v-.16c0-.15.06-.283.177-.39a.652.652 0 0 1 .434-.174h2.037v5.642a.562.562 0 0 1-.208.407.716.716 0 0 1-.477.167h-.14v.095h2.347v-.095h-.138a.71.71 0 0 1-.477-.167.565.565 0 0 1-.21-.415v-5.634h2.038a.655.655 0 0 1 .426.174c.122.107.184.24.184.39v.16zM52.24 73.543l1.351-3.02 1.286 3.02H52.24zm5.275 2.472a1.05 1.05 0 0 1-.536-.15 1.039 1.039 0 0 1-.408-.442L53.7 69.394h-.096c0 .14-.133.462-.396.97l-2.424 5.06a1.105 1.105 0 0 1-.418.441c-.172.1-.347.15-.525.15h-.098v.096h2.156v-.096h-.097c-.15 0-.262-.041-.337-.126-.075-.084-.112-.163-.112-.235a.65.65 0 0 1 .042-.221l.718-1.61h2.895l.685 1.6c.03.076.043.15.043.226 0 .075-.04.156-.113.24-.076.085-.188.126-.337.126h-.097v.096h2.413v-.096h-.086zm-12.606 0v.096h2.347v-.096h-.14a.697.697 0 0 1-.476-.174.574.574 0 0 1-.21-.418v-5.21a.572.572 0 0 1 .21-.417.704.704 0 0 1 .477-.177h.14v-.092h-2.348v.092h.14c.12 0 .236.027.341.077.22.112.337.282.344.507v2.51h-4.385v-2.51a.56.56 0 0 1 .21-.414.71.71 0 0 1 .475-.17h.142v-.092h-2.348v.092h.137a.71.71 0 0 1 .478.17.565.565 0 0 1 .21.414v5.22a.573.573 0 0 1-.21.418.698.698 0 0 1-.478.174h-.137v.095h2.348v-.095h-.142a.717.717 0 0 1-.481-.174.528.528 0 0 1-.204-.418v-2.426h4.385v2.436a.563.563 0 0 1-.21.416.708.708 0 0 1-.476.166h-.14zm-7.974-5.493l.106.01v-1.186a4.46 4.46 0 0 1-1.297.17h-3.622a5.18 5.18 0 0 1-.73-.057 3.12 3.12 0 0 1-.556-.113v1.186l.106-.01v-.16c0-.15.059-.283.177-.39a.66.66 0 0 1 .434-.174h2.038v5.642a.562.562 0 0 1-.21.407.72.72 0 0 1-.477.167h-.14v.095h2.348v-.095h-.14a.708.708 0 0 1-.475-.167.565.565 0 0 1-.21-.415v-5.634h2.037a.66.66 0 0 1 .429.174c.121.107.182.24.182.39v.16zm-16.716-.696c.399.022.716.159.954.415.235.259.36.595.375 1.015v.212c0 .11-.022.228-.066.355-.228.63-.785.957-1.671.976a6.87 6.87 0 0 1-.344.01c-.093 0-.168-.003-.224-.01v.094c.229 0 .456.107.685.32.078.074.153.152.225.229.073.08.325.395.762.946.435.552.701.876.798.974.097.096.211.196.344.303.132.101.33.202.594.3.263.095.55.145.858.145h.588v-.096c-.234 0-.456-.043-.663-.13a1.338 1.338 0 0 1-.279-.151 3.5 3.5 0 0 1-.257-.192 8.129 8.129 0 0 1-.395-.367c-.188-.18-.587-.653-1.202-1.426a3.864 3.864 0 0 0-.391-.4 1.379 1.379 0 0 0-.38-.257 1.73 1.73 0 0 0 1.29-.55c.355-.368.532-.802.532-1.309 0-.503-.186-.915-.558-1.23-.37-.318-.88-.475-1.533-.475h-2.894v.092h.14c.186 0 .345.06.475.177a.566.566 0 0 1 .21.417v5.22a.562.562 0 0 1-.21.416.706.706 0 0 1-.475.166h-.14v.095h2.348l-.012-.095h-.128a.71.71 0 0 1-.488-.174.538.538 0 0 1-.199-.418v-5.606h.687c.256.001.472.004.644.009zm-7.241 5.269c-.498.576-1.156.866-1.975.866-.82 0-1.478-.29-1.976-.866-.497-.578-.747-1.335-.747-2.276 0-.942.25-1.699.747-2.278.498-.578 1.155-.866 1.971-.866.54 0 1.016.13 1.43.39.415.262.734.628.959 1.107.224.475.337 1.025.337 1.647 0 .94-.249 1.698-.746 2.276zm.525-4.754c-.643-.633-1.478-.947-2.505-.947-1.028 0-1.861.314-2.5.947-.64.63-.959 1.456-.959 2.478 0 1.02.319 1.846.958 2.477.64.632 1.473.946 2.501.946 1.027 0 1.862-.314 2.505-.946.642-.631.963-1.457.963-2.477 0-1.022-.32-1.849-.963-2.478zm-9.087-.985a3.028 3.028 0 0 1-.552.112 5.05 5.05 0 0 1-.724.056H0l.012.094H.14c.178 0 .337.052.476.156.14.103.21.232.21.382v5.266a.581.581 0 0 1-.21.417.695.695 0 0 1-.476.175H0v.095h2.348v-.095h-.14a.715.715 0 0 1-.483-.175.528.528 0 0 1-.203-.417v-2.415h1.821a.543.543 0 0 1 .36.14.417.417 0 0 1 .146.317v.143h.106V72.12h-.106v.142c0 .126-.05.235-.151.32a.556.556 0 0 1-.363.14H1.522v-2.905h2.261c.152 0 .276.046.374.136.101.092.151.2.151.326v.141h.108v-1.063zm120.538 5.739c-.498.576-1.156.866-1.975.866-.819 0-1.479-.29-1.975-.866-.498-.578-.747-1.335-.747-2.276 0-.942.249-1.699.747-2.278.497-.578 1.155-.866 1.971-.866.54 0 1.016.13 1.431.39.413.262.733.628.957 1.107.224.475.337 1.025.337 1.647 0 .94-.249 1.698-.746 2.276zm.526-4.754c-.644-.633-1.479-.947-2.505-.947-1.029 0-1.862.314-2.502.947-.638.63-.957 1.456-.957 2.478 0 1.02.319 1.846.957 2.477.64.632 1.473.946 2.502.946 1.026 0 1.861-.314 2.505-.946.641-.631.963-1.457.963-2.477 0-1.022-.322-1.849-.963-2.478z" fill="#273746"></path>
</svg>
