<?xml version="1.0" encoding="UTF-8"?>
<svg xmlns="http://www.w3.org/2000/svg" width="16" height="13" viewBox="0 0 16 13" fill="none">
  <path d="M8 13a.247.247 0 0 1-.187-.085L.063 3.998a.262.262 0 0 1 .02-.362.246.246 0 0 1 .353.02L8 12.357l7.563-8.7a.245.245 0 0 1 .353-.021.26.26 0 0 1 .02.362l-7.75 8.916A.25.25 0 0 1 8 13z" fill="#212121"></path>
  <path d="M8 13a.249.249 0 0 1-.235-.169l-3.16-8.886L2.257.4a.26.26 0 0 1 .067-.356c.114-.08.27-.05.347.068l2.365 3.57a.26.26 0 0 1 .028.057L8 11.995l2.935-8.255a.284.284 0 0 1 .028-.057L13.33.113a.246.246 0 0 1 .347-.068.26.26 0 0 1 .065.356l-2.347 3.544-3.16 8.886A.249.249 0 0 1 8 13z" fill="#212121"></path>
  <path d="M15.75 4.083H.25A.253.253 0 0 1 0 3.826c0-.142.111-.256.25-.256h15.5c.138 0 .25.114.25.256a.253.253 0 0 1-.25.257z" fill="#212121"></path>
  <path d="M15.75 4.083H.25a.248.248 0 0 1-.219-.134.262.262 0 0 1 .009-.26L2.254.118A.248.248 0 0 1 2.464 0h11.072c.085 0 .165.045.21.119l2.215 3.57a.26.26 0 0 1 .008.26.252.252 0 0 1-.22.134zM.704 3.57h14.588L13.398.513H2.6L.705 3.57z" fill="#212121"></path>
  <path d="M11.17 4.083H4.83a.251.251 0 0 1-.23-.153.264.264 0 0 1 .045-.277l3.17-3.57a.246.246 0 0 1 .37 0l3.17 3.57a.26.26 0 0 1 .044.277.248.248 0 0 1-.227.153zM5.397 3.57h5.208L8 .638 5.396 3.57z" fill="#212121"></path>
</svg>
