<?xml version="1.0" encoding="UTF-8"?>
<svg xmlns="http://www.w3.org/2000/svg" width="16" height="17" viewBox="0 0 16 17" fill="none">
  <path fill-rule="evenodd" clip-rule="evenodd" d="M6.83 1.2c-.135 0-.264.024-.383.067a.2.2 0 1 1-.136-.376 1.527 1.527 0 0 1 1.883.751 1.527 1.527 0 0 1 2.891.725.885.885 0 0 1 .818.043c.438.255.849.554 1.224.89a.202.202 0 0 1 .08.074 7.374 7.374 0 0 1 2.368 5.837.2.2 0 1 1-.4-.022 7.137 7.137 0 0 0 .007-.611h-.995c.002.068.004.136.004.205a5.957 5.957 0 0 1-.247 1.723.861.861 0 0 1 .949.31c.06-.198.11-.4.152-.605a.2.2 0 1 1 .392.08A7.397 7.397 0 0 1 8.18 16.2 7.377 7.377 0 0 1 .797 8.763a7.39 7.39 0 0 1 3.68-6.351.89.89 0 0 1 .827-.041 1.56 1.56 0 0 1 .048-.43.2.2 0 0 1 .387.1 1.128 1.128 0 0 0 1.09 1.413 1.127 1.127 0 1 0 0-2.253zM5.79 3.446a.896.896 0 0 1-.408.517 5.623 5.623 0 0 0-1.094.83 5.6 5.6 0 0 0 3.947 9.614c3.07-.023 5.568-2.55 5.556-5.622a5.576 5.576 0 0 0-.519-2.335 5.624 5.624 0 0 0-2.268-2.485.902.902 0 0 1-.41-.515 1.527 1.527 0 0 1-2.4-.436 1.527 1.527 0 0 1-2.404.432zm7.882 2.916a.463.463 0 0 1-.046-.332.465.465 0 1 1 .046.332zm.237.623c.122.383.207.782.25 1.194h.999a6.959 6.959 0 0 0-.335-1.6.866.866 0 0 1-.914.406zm.327-1.698a.866.866 0 0 0-.908.42 6.028 6.028 0 0 0-.994-1.24l.704-.703c.466.448.87.96 1.198 1.523zm-1.495-1.792a7.018 7.018 0 0 0-1.04-.738l.101-.173-.1.173a.498.498 0 1 0-.497.862 6 6 0 0 1 .83.582l.706-.706zm-8.58.868a6.02 6.02 0 0 1 1.02-.746l.1.173-.1-.173a.497.497 0 1 0-.503-.859l-.1-.173.1.173a7.02 7.02 0 0 0-1.22.9l.703.705zm-.99-.425l.703.704a6.023 6.023 0 0 0-.831 1.084.863.863 0 0 0-.894-.444 7.02 7.02 0 0 1 1.022-1.344zM1.552 6.6a6.968 6.968 0 0 0-.345 1.824h.997c.031-.5.124-.985.271-1.445a.861.861 0 0 1-.923-.379zm.64 2.224h-.995a7.04 7.04 0 0 0 .302 2.031.866.866 0 0 1 .933-.362 6.001 6.001 0 0 1-.24-1.669zm.778 2.94a.866.866 0 0 1-.913.417c.272.495.602.953.98 1.365l.71-.71a6.019 6.019 0 0 1-.776-1.072zm1.055 1.36l-.708.709c.4.387.845.727 1.329 1.01a.864.864 0 0 1 .464-.888 6.022 6.022 0 0 1-1.085-.831zm2.317 1.391a.865.865 0 0 1-.361.932 7.032 7.032 0 0 0 2.134.353v-.995a5.991 5.991 0 0 1-1.773-.29zm2.173.282v.996a6.966 6.966 0 0 0 1.917-.359.865.865 0 0 1-.333-.94 5.944 5.944 0 0 1-1.584.303zm2.774-.858c.332.15.537.498.504.864a7.029 7.029 0 0 0 1.442-1.15l-.709-.709a6.06 6.06 0 0 1-1.237.995zm1.504-1.293l.71.71c.309-.359.58-.75.811-1.166a.862.862 0 0 1-.886-.465 6.043 6.043 0 0 1-.635.92zM9.56 1.2a1.127 1.127 0 1 0 0 2.253 1.127 1.127 0 0 0 0-2.253zM2.39 5.682a.465.465 0 1 0-.214.905.465.465 0 0 0 .214-.905zm-.061 5.196a.465.465 0 1 0-.214.905.465.465 0 0 0 .214-.905zm11.978 0a.465.465 0 1 0-.214.906.465.465 0 0 0 .214-.905zm-8.474 3.518a.465.465 0 1 0-.658.657.465.465 0 0 0 .658-.657zm5.207-.122a.465.465 0 1 0-.214.905.465.465 0 0 0 .214-.905z" fill="#212121"></path>
</svg>
