<?xml version="1.0" encoding="UTF-8"?>
<svg xmlns="http://www.w3.org/2000/svg" width="14" height="16" viewBox="0 0 14 16" fill="none">
  <path d="M11.204 3.812a2.132 2.132 0 1 0-.406 4.227 2.13 2.13 0 0 0 1.19-.365c.473-.318.794-.8.904-1.36a2.115 2.115 0 0 0-.324-1.6 2.125 2.125 0 0 0-1.364-.902zM12.5 6.237c-.09.455-.35.847-.735 1.105a1.728 1.728 0 0 1-1.304.263 1.732 1.732 0 1 1 .667-3.401c.456.09.85.35 1.108.734.26.384.353.845.264 1.3z" fill="#212121"></path>
  <path d="M11.368 2.76a3.257 3.257 0 0 0-.376-.045v-.474c.53-.093.935-.556.935-1.111a1.133 1.133 0 0 0-2.266 0c0 .554.402 1.015.93 1.11v.477a3.196 3.196 0 0 0-2.433 5.008 3.18 3.18 0 0 0 2 1.31 1.1 1.1 0 0 0-.457.71 1.101 1.101 0 0 0 .868 1.28c-.263.527-1.33 2.707-1.33 3.424a1.555 1.555 0 0 0 3.11 0c0-.717-1.067-2.897-1.33-3.423a1.1 1.1 0 0 0 .868-.884 1.097 1.097 0 0 0-.458-1.104 3.198 3.198 0 0 0 1.189-.504 3.175 3.175 0 0 0 1.33-2.057 3.17 3.17 0 0 0-.518-2.392 3.184 3.184 0 0 0-2.062-1.326zm-1.306-1.63a.732.732 0 0 1 1.464 0 .732.732 0 0 1-1.464 0zm.732 14.47a1.154 1.154 0 0 1-1.154-1.151c0-.495.72-2.079 1.154-2.972.434.893 1.154 2.477 1.154 2.972 0 .635-.518 1.15-1.154 1.15zm.698-5.53a.71.71 0 0 1-1.281.276.703.703 0 0 1 .18-.984.706.706 0 0 1 .53-.115.706.706 0 0 1 .57.823zm2.06-3.664a2.779 2.779 0 0 1-1.162 1.8 2.79 2.79 0 0 1-2.098.45 2.796 2.796 0 0 1 .496-5.55c.169 0 .339.016.508.047a2.786 2.786 0 0 1 1.804 1.16c.426.615.587 1.358.453 2.093zM2.794 7.998a2.128 2.128 0 0 0 1.604-.323c.473-.319.795-.802.904-1.36a2.116 2.116 0 0 0-.324-1.6 2.125 2.125 0 0 0-1.363-.903 2.132 2.132 0 1 0-.82 4.186zm-.56-3.53a1.728 1.728 0 0 1 1.304-.264c.455.09.848.35 1.107.734.26.384.353.845.264 1.3-.09.454-.35.846-.735 1.104a1.728 1.728 0 0 1-1.303.263 1.732 1.732 0 0 1-.636-3.138z" fill="#212121"></path>
  <path d="M2.566 9.036a1.1 1.1 0 0 0-.457.709 1.101 1.101 0 0 0 .868 1.28c-.263.527-1.33 2.707-1.33 3.424a1.555 1.555 0 0 0 3.11 0c0-.717-1.068-2.897-1.33-3.423a1.1 1.1 0 0 0 .868-.884 1.099 1.099 0 0 0-.457-1.103 3.198 3.198 0 0 0 1.19-.505 3.174 3.174 0 0 0 1.33-2.057 3.17 3.17 0 0 0-.518-2.392 3.184 3.184 0 0 0-2.438-1.37v-.474c.53-.093.935-.556.935-1.111a1.133 1.133 0 0 0-2.266 0c0 .554.402 1.015.93 1.11v.477A3.196 3.196 0 0 0 .568 7.725a3.182 3.182 0 0 0 1.998 1.31zm.636 6.564a1.154 1.154 0 0 1-1.154-1.151c0-.495.72-2.079 1.154-2.972.434.893 1.153 2.477 1.153 2.972 0 .635-.517 1.15-1.153 1.15zm.698-5.53a.71.71 0 0 1-1.396-.253.706.706 0 0 1 .825-.57.706.706 0 0 1 .57.823zM2.472 1.13a.732.732 0 0 1 1.464 0 .732.732 0 0 1-1.464 0zm-.864 2.474a2.79 2.79 0 0 1 2.098-.451 2.786 2.786 0 0 1 1.804 1.16c.426.615.587 1.358.453 2.093a2.778 2.778 0 0 1-1.163 1.8 2.793 2.793 0 0 1-2.098.45 2.796 2.796 0 0 1-1.094-5.052z" fill="#212121"></path>
</svg>
