<?xml version="1.0" encoding="UTF-8"?>
<svg xmlns="http://www.w3.org/2000/svg" width="16" height="16" viewBox="0 0 16 16" fill="none">
  <path d="M15.8 0a.2.2 0 0 0-.2.2c0 1.25-.174 2.486-.513 3.677-.038-.004-.076-.011-.116-.011a1.03 1.03 0 0 0-.57 1.885c-.125.278-.261.555-.406.828a1.013 1.013 0 0 0-.303-.05 1.03 1.03 0 0 0-1.03 1.028c0 .276.111.526.288.71-.16.226-.329.45-.502.666a1.016 1.016 0 0 0-.485-.127 1.03 1.03 0 0 0-.852 1.606c-.337.325-.622.57-.817.729A2.33 2.33 0 0 0 8 9.195a2.33 2.33 0 0 0-2.294 1.946 13.42 13.42 0 0 1-.817-.73 1.03 1.03 0 0 0-.852-1.606c-.176.001-.34.05-.485.128-.173-.217-.341-.44-.503-.666.178-.184.288-.434.288-.71a1.03 1.03 0 0 0-1.03-1.029.981.981 0 0 0-.302.051c-.145-.273-.28-.55-.406-.828a1.028 1.028 0 0 0-.57-1.885c-.04 0-.078.007-.116.011A13.427 13.427 0 0 1 .4.2a.2.2 0 1 0-.4 0C0 1.492.18 2.769.532 4a1.026 1.026 0 0 0 .697 1.904c.13.29.273.58.424.866a1.023 1.023 0 0 0 .655 1.817c.148 0 .287-.033.414-.09.168.235.342.466.521.691-.145.178-.235.4-.235.647a1.03 1.03 0 0 0 1.596.858c.512.496.904.806 1.068.93v2.049A2.33 2.33 0 0 0 8 16a2.331 2.331 0 0 0 2.328-2.328v-2.048c.164-.125.556-.435 1.068-.931a1.03 1.03 0 0 0 1.597-.857 1.033 1.033 0 0 0-.236-.648c.18-.225.353-.456.52-.69a1.03 1.03 0 0 0 1.444-.94c0-.318-.147-.6-.374-.788.151-.285.293-.575.424-.866A1.03 1.03 0 0 0 16 4.894 1.027 1.027 0 0 0 15.467 4 13.82 13.82 0 0 0 16 .2a.2.2 0 0 0-.2-.2zM.4 4.895a.63.63 0 1 1 1.26.001.63.63 0 0 1-1.26-.001zm9.528 7.502h-.84v-.77a1.08 1.08 0 0 0-.232-.668l.644-.645c.267.331.428.752.428 1.21v.873zm-2.616 1.17v-1.94a.688.688 0 0 1 1.376 0v1.94a.689.689 0 0 1-1.376 0zm1.906-3.537l-.663.664a1.08 1.08 0 0 0-1.11 0l-.663-.664a1.919 1.919 0 0 1 2.436 0zm-2.718.284l.644.645a1.08 1.08 0 0 0-.232.669v.77h-.84v-.875c0-.457.16-.878.428-1.209zM1.68 7.557a.63.63 0 1 1 1.26.002.63.63 0 0 1-1.26-.002zm1.729 2.278a.63.63 0 1 1 1.26.002.63.63 0 0 1-1.26-.002zm2.664 2.962h.84v.77c0 .253.088.485.232.67l-.644.644a1.918 1.918 0 0 1-.428-1.21v-.874zm.71 2.368l.663-.664a1.08 1.08 0 0 0 1.11 0l.663.664a1.92 1.92 0 0 1-2.436 0zM9.5 14.88l-.644-.645a1.08 1.08 0 0 0 .231-.669v-.77h.841v.875c0 .457-.16.877-.428 1.209zm2.463-4.417a.63.63 0 1 1 .001-1.26.63.63 0 0 1-.001 1.26zm1.729-2.278a.63.63 0 1 1 .001-1.26.63.63 0 0 1-.001 1.26zm1.279-2.662a.63.63 0 1 1 .001-1.26.63.63 0 0 1-.001 1.26z" fill="#212121"></path>
</svg>
