<?xml version="1.0" encoding="UTF-8"?>
<svg xmlns="http://www.w3.org/2000/svg" width="25" height="11" viewBox="0 0 25 11" fill="none">
  <path fill-rule="evenodd" clip-rule="evenodd" d="M1.571 4.715a.786.786 0 0 0 0 1.572H23.43a.786.786 0 0 0 0-1.572H1.57zm0-.785a1.571 1.571 0 1 0 0 3.143H23.43a1.571 1.571 0 0 0 0-3.143H1.57z" fill="#212121"></path>
  <path d="M17.968 5.5c0 3.038-2.449 5.5-5.47 5.5-3.02 0-5.468-2.462-5.468-5.5S9.48 0 12.5 0c3.02 0 5.469 2.462 5.469 5.5z" fill="#fff"></path>
  <path fill-rule="evenodd" clip-rule="evenodd" d="M12.499 10.214c2.582 0 4.683-2.106 4.683-4.714 0-2.608-2.101-4.714-4.683-4.714S7.816 2.892 7.816 5.5c0 2.608 2.1 4.714 4.683 4.714zm0 .786c3.02 0 5.469-2.462 5.469-5.5S15.519 0 12.498 0C9.479 0 7.03 2.462 7.03 5.5S9.48 11 12.5 11z" fill="#212121"></path>
  <path d="M16.404 5.499c0 2.17-1.749 3.928-3.906 3.928-2.158 0-3.906-1.758-3.906-3.928S10.34 1.57 12.498 1.57c2.157 0 3.906 1.76 3.906 3.929z" fill="#fff"></path>
  <path fill-rule="evenodd" clip-rule="evenodd" d="M12.498 8.642c1.719 0 3.12-1.403 3.12-3.143 0-1.74-1.401-3.143-3.12-3.143-1.72 0-3.12 1.403-3.12 3.143 0 1.74 1.4 3.143 3.12 3.143zm0 .785c2.157 0 3.906-1.758 3.906-3.928S14.655 1.57 12.498 1.57c-2.158 0-3.906 1.76-3.906 3.929 0 2.17 1.748 3.928 3.906 3.928z" fill="#212121"></path>
  <path fill-rule="evenodd" clip-rule="evenodd" d="M11.26 5.5l1.237 1.243L13.732 5.5l-1.235-1.243L11.26 5.5zm-1.107 0l2.344 2.357L14.84 5.5l-2.343-2.357L10.153 5.5z" fill="#212121"></path>
</svg>
