<?xml version="1.0" encoding="UTF-8"?>
<svg xmlns="http://www.w3.org/2000/svg" width="25" height="12" viewBox="0 0 25 12" fill="none">
  <rect x=".393" y="5.323" width="24.214" height="2.357" rx="1.179" stroke="#212121" stroke-width=".786"></rect>
  <path d="M12.029 11.528L6.856 8.75V3.245L12.03.467l5.17 2.778V8.75l-5.172 2.778z" fill="#fff" stroke="#212121" stroke-width=".414"></path>
  <mask id="a" fill="#fff">
    <path d="M12.032 11.53l5.172-2.777V3.247L12.032.47 6.859 3.247v5.506l5.173 2.777zm0 .47L6.446 9V3l5.586-3 5.586 3v6l-5.586 3z"></path>
  </mask>
  <path d="M12.032 11.53l5.172-2.777V3.247L12.032.47 6.859 3.247v5.506l5.173 2.777zm0 .47L6.446 9V3l5.586-3 5.586 3v6l-5.586 3z" fill="#212121"></path>
  <path d="M12.032 11.53l-.196.365.196.105.195-.105-.195-.365zm5.172-2.777l.196.364.218-.117v-.247h-.414zm0-5.506h.414V3l-.218-.117-.196.364zM12.032.47l.195-.365L12.032 0l-.196.105.196.365zM6.859 3.247l-.195-.364L6.446 3v.247h.413zm0 5.506h-.413V9l.218.117.195-.364zM12.032 12l-.196.364.196.106.195-.106-.195-.364zM6.446 9h-.414v.247l.218.118L6.446 9zm0-6l-.196-.365-.218.118V3h.414zm5.586-3l.195-.365-.195-.105-.196.105.196.365zm5.586 3h.414v-.247l-.218-.118-.196.365zm0 6l.196.365.218-.118V9h-.414zm-5.39 2.895L17.4 9.117l-.392-.729-5.172 2.778.391.729zm5.39-3.142V3.247h-.828v5.506h.828zm-.218-5.87L12.228.105l-.392.73 5.172 2.777.392-.73zM11.836.105L6.664 2.883l.391.729L12.227.834l-.391-.729zm-5.39 3.142v5.506h.827V3.247h-.827zm.218 5.87l5.172 2.778.391-.73-5.172-2.777-.391.73zm5.563 2.518l-5.586-3-.391.73 5.586 3 .391-.73zM6.86 9V3h-.827v6h.827zm-.218-5.635l5.586-3-.391-.73-5.586 3 .391.73zm5.195-3l5.586 3 .392-.73-5.587-3-.391.73zM17.204 3v6h.828V3h-.828zm.218 5.635l-5.586 3 .391.73 5.587-3-.392-.73z" fill="#212121" mask="url(#a)"></path>
  <path d="M14.903 7.512L12.04 9.046 9.177 7.521V4.48l2.863-1.526 2.863 1.526v3.033z" stroke="#212121" stroke-width=".414"></path>
  <mask id="b" fill="#fff">
    <path d="M12.038 9.28l3.07-1.645v-3.28l-3.07-1.637-3.07 1.636v3.29l3.07 1.637zm0 .47L8.554 7.893V4.106l3.484-1.857 3.483 1.857v3.777L12.038 9.75z"></path>
  </mask>
  <path d="M12.038 9.28l3.07-1.645v-3.28l-3.07-1.637-3.07 1.636v3.29l3.07 1.637zm0 .47L8.554 7.893V4.106l3.484-1.857 3.483 1.857v3.777L12.038 9.75z" fill="#212121"></path>
  <path d="M12.038 9.28l-.195.366.195.104.195-.105-.195-.364zm3.07-1.645l.195.365.218-.117v-.248h-.414zm0-3.28h.413v-.25l-.219-.116-.194.365zm-3.07-1.637l.194-.365-.194-.104-.195.104.195.365zm-3.07 1.636l-.195-.365-.22.117v.248h.415zm0 3.29h-.414v.25l.22.116.194-.365zm3.07 2.106l-.194.365.195.104.195-.104-.196-.365zM8.554 7.893H8.14v.249l.22.116.194-.365zm0-3.787l-.195-.365-.219.116v.249h.414zm3.484-1.857l.194-.365-.194-.103-.195.103.195.365zm3.483 1.857h.414v-.249l-.22-.116-.194.365zm0 3.777l.196.365.218-.117v-.248h-.414zm-3.288 1.762L15.303 8l-.391-.73-3.07 1.646.391.73zm3.288-2.01v-3.28h-.827v3.28h.827zm-.219-3.646l-3.07-1.636-.389.73 3.07 1.636.39-.73zm-3.459-1.636L8.773 3.99l.39.73 3.07-1.636-.39-.73zm-3.29 2.001v3.29h.829v-3.29h-.828zm.22 3.656l3.07 1.636.39-.73-3.07-1.636-.39.73zm3.46 1.375L8.749 7.528l-.39.73 3.485 1.857.389-.73zM8.968 7.893V4.106H8.14v3.787h.828zm-.22-3.422l3.484-1.856-.389-.73L8.359 3.74l.39.73zm3.095-1.856l3.484 1.856.389-.73-3.484-1.857-.389.73zm3.264 1.49v3.778h.828V4.106h-.828zm.219 3.413l-3.483 1.867.39.73 3.484-1.867-.391-.73z" fill="#212121" mask="url(#b)"></path>
  <path d="M12.034 2.719V.188m3.068 4.123l2.516-1.313m-2.516 4.594l2.516 1.407m-5.584.281V12M8.961 4.311L6.445 2.998m2.516 4.688L6.445 8.998" stroke="#212121" stroke-width=".414" stroke-miterlimit="10"></path>
  <path d="M17.002 3.679a1.034 1.034 0 1 1-2.07 0 1.034 1.034 0 0 1 2.07 0z" fill="#fff" stroke="#212121" stroke-width=".414"></path>
  <path d="M15.964 4.714a1.034 1.034 0 1 0 0-2.069 1.034 1.034 0 0 0 0 2.07z" stroke="#212121" stroke-width=".414" stroke-miterlimit="10"></path>
  <path d="M17.42 6.163a1.035 1.035 0 1 1-2.069 0 1.035 1.035 0 0 1 2.069 0z" fill="#fff" stroke="#212121" stroke-width=".414"></path>
  <path d="M16.383 7.199a1.035 1.035 0 1 0 0-2.07 1.035 1.035 0 0 0 0 2.07z" stroke="#212121" stroke-width=".414" stroke-miterlimit="10"></path>
  <path d="M16.584 8.647a1.034 1.034 0 1 1-2.07 0 1.034 1.034 0 0 1 2.07 0z" fill="#fff" stroke="#212121" stroke-width=".414"></path>
  <path d="M15.546 9.683a1.035 1.035 0 1 0 0-2.069 1.035 1.035 0 0 0 0 2.069z" stroke="#212121" stroke-width=".414" stroke-miterlimit="10"></path>
  <path d="M14.518 9.885a1.034 1.034 0 1 1-2.069 0 1.034 1.034 0 0 1 2.069 0z" fill="#fff" stroke="#212121" stroke-width=".414"></path>
  <path d="M13.48 10.921a1.034 1.034 0 1 0 0-2.069 1.034 1.034 0 0 0 0 2.07z" stroke="#212121" stroke-width=".414" stroke-miterlimit="10"></path>
  <path d="M11.615 9.885a1.034 1.034 0 1 1-2.069 0 1.034 1.034 0 0 1 2.069 0z" fill="#fff" stroke="#212121" stroke-width=".414"></path>
  <path d="M10.578 10.921a1.034 1.034 0 1 0 0-2.069 1.034 1.034 0 0 0 0 2.07z" stroke="#212121" stroke-width=".414" stroke-miterlimit="10"></path>
  <path d="M9.55 8.647a1.034 1.034 0 1 1-2.07 0 1.034 1.034 0 0 1 2.07 0z" fill="#fff" stroke="#212121" stroke-width=".414"></path>
  <path d="M8.512 9.683a1.034 1.034 0 1 0 0-2.069 1.034 1.034 0 0 0 0 2.069z" stroke="#212121" stroke-width=".414" stroke-miterlimit="10"></path>
  <path d="M8.72 6.992a1.034 1.034 0 1 1-2.068 0 1.034 1.034 0 0 1 2.069 0z" fill="#fff" stroke="#212121" stroke-width=".414"></path>
  <path d="M7.683 8.027a1.034 1.034 0 1 0 0-2.069 1.034 1.034 0 0 0 0 2.07z" stroke="#212121" stroke-width=".414" stroke-miterlimit="10"></path>
  <path d="M8.72 4.917a1.034 1.034 0 1 1-2.068 0 1.034 1.034 0 0 1 2.069 0z" fill="#fff" stroke="#212121" stroke-width=".414"></path>
  <path d="M7.683 5.952a1.034 1.034 0 1 0 0-2.069 1.034 1.034 0 0 0 0 2.07z" stroke="#212121" stroke-width=".414" stroke-miterlimit="10"></path>
  <path d="M9.967 2.85a1.034 1.034 0 1 1-2.069 0 1.034 1.034 0 0 1 2.07 0z" fill="#fff" stroke="#212121" stroke-width=".414"></path>
  <path d="M8.93 3.886a1.034 1.034 0 1 0 0-2.069 1.034 1.034 0 0 0 0 2.07z" stroke="#212121" stroke-width=".414" stroke-miterlimit="10"></path>
  <path d="M11.615 2.023a1.035 1.035 0 1 1-2.069 0 1.035 1.035 0 0 1 2.069 0z" fill="#fff" stroke="#212121" stroke-width=".414"></path>
  <path d="M10.578 3.058a1.034 1.034 0 1 0 0-2.069 1.034 1.034 0 0 0 0 2.07z" stroke="#212121" stroke-width=".414" stroke-miterlimit="10"></path>
  <path d="M14.099 2.023a1.035 1.035 0 1 1-2.069 0 1.035 1.035 0 0 1 2.069 0z" fill="#fff" stroke="#212121" stroke-width=".414"></path>
  <path d="M13.062 3.058a1.035 1.035 0 1 0 0-2.069 1.035 1.035 0 0 0 0 2.07z" stroke="#212121" stroke-width=".414" stroke-miterlimit="10"></path>
  <path d="M15.764 2.85a1.034 1.034 0 1 1-2.07 0 1.034 1.034 0 0 1 2.07 0z" fill="#fff" stroke="#212121" stroke-width=".414"></path>
  <path d="M14.726 3.886a1.034 1.034 0 1 0 0-2.069 1.034 1.034 0 0 0 0 2.07z" stroke="#212121" stroke-width=".414" stroke-miterlimit="10"></path>
</svg>
