<?xml version="1.0" encoding="UTF-8"?>
<svg xmlns="http://www.w3.org/2000/svg" width="14" height="16" viewBox="0 0 14 16" fill="none">
  <path fill-rule="evenodd" clip-rule="evenodd" d="M7 15.21A6.21 6.21 0 1 0 7 2.79a6.21 6.21 0 0 0 0 12.42zM7 16A7 7 0 1 0 7 2a7 7 0 0 0 0 14z" fill="#212121"></path>
  <path fill-rule="evenodd" clip-rule="evenodd" d="M8.38 0H5.648l-.644.76.002-.009-.892-.453-2.52 1.057-.276.944 2.71 1.288.974-2.822L7 3 8.978.789l.852 2.81 2.756-1.185-.24-.954L9.87.308l-.901.416L8.38 0zm-.463.79H6.083L7 1.815 7.917.79zm-3.9.405l-1.69.709 1.242.59.449-1.3zm5.914.013l.399 1.316 1.263-.543-1.662-.773z" fill="#212121"></path>
</svg>
