<?xml version="1.0" encoding="UTF-8"?>
<svg xmlns="http://www.w3.org/2000/svg" width="17" height="17" viewBox="0 0 17 17" fill="none">
  <path fill-rule="evenodd" clip-rule="evenodd" d="M8.5 1.25a.808.808 0 0 0-.799.928.859.859 0 0 1 .028.12A.808.808 0 1 0 8.5 1.25zm1.245.406a1.308 1.308 0 0 0-2.49-.001.863.863 0 0 0-1.1.297A1.308 1.308 0 0 0 4 3.194a.864.864 0 0 0-.803.805A1.308 1.308 0 0 0 1.95 6.155a.863.863 0 0 0-.294 1.1 1.308 1.308 0 0 0-.001 2.49.863.863 0 0 0 .297 1.1A1.308 1.308 0 0 0 3.194 13a.864.864 0 0 0 .805.803 1.308 1.308 0 0 0 2.155 1.246.863.863 0 0 0 1.1.294 1.308 1.308 0 0 0 2.49.001.863.863 0 0 0 1.1-.296 1.308 1.308 0 0 0 2.155-1.243.864.864 0 0 0 .804-.806 1.308 1.308 0 0 0 1.246-2.155.863.863 0 0 0 .294-1.1 1.308 1.308 0 0 0 .001-2.49.863.863 0 0 0-.296-1.1A1.308 1.308 0 0 0 13.806 4 .864.864 0 0 0 13 3.197a1.311 1.311 0 0 0-1.279-1.583c-.337 0-.644.128-.876.337a.863.863 0 0 0-1.1-.294zm.022.725c.006-.02.01-.041.015-.063a.364.364 0 0 1 .705.17 1.328 1.328 0 0 0-.03.097.364.364 0 0 1-.69-.204zm-.321.58a1.304 1.304 0 0 1-1.89.001.862.862 0 0 1-1.006.268 1.308 1.308 0 0 1-1.637.947.864.864 0 0 1-.737.734c.025.087.041.175.048.265a.25.25 0 1 1-.498.04.809.809 0 0 0-.401-.637l.02-.035-.02.035a.808.808 0 1 0-.808 1.4c.035.02.072.037.109.052.04.01.08.021.117.036a.81.81 0 0 0 .672-.149.25.25 0 1 1 .306.396 1.31 1.31 0 0 1-.49.235.861.861 0 0 1-.27 1.005 1.304 1.304 0 0 1 .001 1.89.862.862 0 0 1 .268 1.006 1.308 1.308 0 0 1 .947 1.637.864.864 0 0 1 .734.737 1.307 1.307 0 0 1 1.638.944.86.86 0 0 1 1.005.271 1.304 1.304 0 0 1 1.89-.001.862.862 0 0 1 1.007-.268c.012-.05.027-.1.045-.149a.25.25 0 0 1 .469.175.808.808 0 0 0 .057.687l-.036.02.036-.02a.808.808 0 0 0 1.399-.808l.033-.019-.033.02a.803.803 0 0 0-.069-.101.869.869 0 0 1-.082-.089.81.81 0 0 0-.769-.184.25.25 0 0 1-.136-.481c.24-.068.49-.065.722.003a.864.864 0 0 1 .737-.735 1.307 1.307 0 0 1 .944-1.638.86.86 0 0 1 .271-1.005 1.304 1.304 0 0 1-.001-1.89.862.862 0 0 1-.268-1.006 1.308 1.308 0 0 1-.947-1.637.864.864 0 0 1-.734-.737 1.308 1.308 0 0 1-1.638-.944.861.861 0 0 1-1.005-.271zm1.487-.218a.808.808 0 1 0 .036-.118.855.855 0 0 1-.036.118zm1.726 1.09a.364.364 0 0 0 .495.523 1.3 1.3 0 0 1 .071-.068.364.364 0 0 0-.566-.456zm.828.896a.808.808 0 1 0 .087-.08.87.87 0 0 1-.087.08zm.945 1.81a.364.364 0 0 0 .169.698c.032-.008.065-.016.099-.022a.364.364 0 0 0-.205-.696l-.063.02zm.27 1.19a.808.808 0 1 0 .12-.028.86.86 0 0 1-.12.028zm-.083 2.038a.366.366 0 0 0-.413.36c0 .146.085.272.209.33.033.009.065.019.097.03a.364.364 0 0 0 .107-.72zm-.362 1.166a.808.808 0 1 0 .118.036.856.856 0 0 1-.118-.036zm-1.089 1.726a.364.364 0 0 0-.524.493c.024.024.047.049.069.074a.364.364 0 0 0 .455-.567zm-2.706 1.774a.364.364 0 0 0-.7.168c.01.032.017.065.023.099a.364.364 0 0 0 .696-.206 1.288 1.288 0 0 1-.02-.061zm-1.19.27a.808.808 0 1 0 .027.12.857.857 0 0 1-.027-.12zm-2.04-.084a.364.364 0 0 0-.69-.204 1.294 1.294 0 0 1-.029.097.364.364 0 0 0 .72.107zm-1.165-.362a.81.81 0 0 0-.788-.986.805.805 0 0 0-.808.808.808.808 0 0 0 1.56.296.804.804 0 0 1 .036-.118zm-1.726-1.09a.364.364 0 0 0-.495-.523 1.338 1.338 0 0 1-.071.068.364.364 0 0 0 .566.456zm-.828-.896a.808.808 0 1 0-.087.08.872.872 0 0 1 .087-.08zm-.945-1.81a.364.364 0 0 0-.169-.698 1.3 1.3 0 0 1-.099.022.364.364 0 0 0 .205.696l.063-.02zm-.27-1.19a.808.808 0 1 0-.12.028.857.857 0 0 1 .12-.027zm.083-2.038a.364.364 0 0 0 .204-.69 1.303 1.303 0 0 1-.097-.03.364.364 0 0 0-.107.72zm1.453-2.89a.364.364 0 0 0 .52-.497 1.317 1.317 0 0 1-.066-.071.364.364 0 0 0-.454.568zm.895-.83a.808.808 0 1 0-.08-.087.87.87 0 0 1 .08.087zm1.81-.945a.364.364 0 0 0 .698-.169 1.3 1.3 0 0 1-.022-.099.364.364 0 0 0-.696.205l.02.063z" fill="#212121"></path>
</svg>
