<?xml version="1.0" encoding="UTF-8"?>
<svg xmlns="http://www.w3.org/2000/svg" width="15" height="14" viewBox="0 0 15 14" fill="none">
  <path fill-rule="evenodd" clip-rule="evenodd" d="M7.002.5a.7.7 0 0 0-.694.8c.01.035.018.07.024.107A.702.702 0 0 0 7.705 1.2a.7.7 0 0 0-.703-.7zm1.136.303a1.203 1.203 0 0 0-2.27-.001.801.801 0 0 0-.98.263 1.2 1.2 0 0 0-1.967 1.13.802.802 0 0 0-.717.715 1.204 1.204 0 0 0-1.266.578 1.196 1.196 0 0 0 .129 1.38.798.798 0 0 0-.261.976 1.2 1.2 0 0 0-.002 2.263.801.801 0 1 0 1.25-.286 1.192 1.192 0 0 0 0-1.691.797.797 0 0 0 .24-.886c.15-.04.294-.11.42-.208a.25.25 0 1 0-.305-.396.707.707 0 0 1-.583.13.8.8 0 0 0-.105-.033.697.697 0 0 1-.35-.998.704.704 0 0 1 1.308.294.25.25 0 1 0 .499-.04 1.2 1.2 0 0 0-.037-.214.802.802 0 0 0 .652-.648 1.207 1.207 0 0 0 1.47-.847.803.803 0 0 0 .89-.237 1.2 1.2 0 0 0 1.7 0 .802.802 0 0 0 .889.239 1.202 1.202 0 0 0 1.471.845c.058.33.32.59.65.65a1.2 1.2 0 0 0 .85 1.464.798.798 0 0 0 .237.886 1.192 1.192 0 0 0 .001 1.691.801.801 0 1 0 1.248.286 1.2 1.2 0 0 0 .002-2.263.797.797 0 0 0-.264-.976 1.2 1.2 0 0 0-1.135-1.96.802.802 0 0 0-.718-.713A1.198 1.198 0 0 0 9.902.774c-.299 0-.573.11-.784.29a.802.802 0 0 0-.98-.26zm.03.69c.004-.017.009-.035.012-.054a.302.302 0 0 1 .587.139 1.19 1.19 0 0 0-.026.084.302.302 0 0 1-.573-.168zm1.049.328a.79.79 0 0 0 .032-.106.702.702 0 0 1 1.356.258.694.694 0 0 1-.21.497.702.702 0 0 1-.493.201.7.7 0 0 1-.685-.85zm1.548.986l.035-.037a.301.301 0 0 1 .44.41 1.2 1.2 0 0 0-.063.059.302.302 0 0 1-.412-.432zm.744.807a.807.807 0 0 0 .079-.073.7.7 0 0 1 1.14.546.7.7 0 0 1-.703.699.7.7 0 0 1-.702-.699.69.69 0 0 1 .186-.473zm.842 1.627l.055-.016a.301.301 0 0 1 .364.294.3.3 0 0 1-.192.28.844.844 0 0 0-.087.02h-.024a.3.3 0 1 1-.116-.578zm.241 1.068a.798.798 0 0 0 .108-.024.7.7 0 0 1 .805.691.7.7 0 0 1-.894.672.7.7 0 1 1-.02-1.339zm-.085 1.83l.055.012a.3.3 0 0 1-.095.585.301.301 0 0 1-.303-.3.301.301 0 0 1 .343-.298zM5.82 1.423c.006.029.012.057.02.085v.023a.302.302 0 1 1-.582.115 1.2 1.2 0 0 0-.016-.054.301.301 0 0 1 .296-.36c.13 0 .238.079.282.19zm-1.059.31a.696.696 0 0 1 .042.239.7.7 0 0 1-1.179.512.806.806 0 0 0-.072-.077.7.7 0 0 1 .55-1.134c.303 0 .562.192.66.46zM3.193 2.757c.02.022.038.042.059.062a.301.301 0 0 1-.434.409.298.298 0 0 1-.117-.238.301.301 0 0 1 .492-.233zM1.584 5.22c.028.01.057.019.085.027a.3.3 0 0 1-.171.568 1.189 1.189 0 0 0-.055-.012.3.3 0 0 1 .141-.583zm-.259 1.07a.7.7 0 0 1 .58.688.7.7 0 0 1-.492.666.8.8 0 0 0-.108.024.7.7 0 0 1-.805-.691.7.7 0 0 1 .825-.688zm.102 1.865a1.2 1.2 0 0 0 .087-.02.301.301 0 0 1 .326.3c0 .164-.135.3-.303.3a.3.3 0 1 1-.11-.58z" fill="#212121"></path>
  <path fill-rule="evenodd" clip-rule="evenodd" d="M1.902 8.77c0 2.005 1.995 4.1 5.102 4.1s5.102-2.095 5.102-4.1h.6c0 2.412-2.345 4.7-5.702 4.7-3.358 0-5.702-2.288-5.702-4.7h.6z" fill="#212121"></path>
</svg>
