<?xml version="1.0" encoding="UTF-8"?>
<svg xmlns="http://www.w3.org/2000/svg" width="25" height="6" viewBox="0 0 25 6" fill="none">
  <path fill-rule="evenodd" clip-rule="evenodd" d="M0 3a3 3 0 0 1 3-3h19a3 3 0 1 1 0 6H3a3 3 0 0 1-3-3zM3 .75h19a2.25 2.25 0 0 1 2.165 1.634c-.354.457-.754.65-1.196.7-.49.056-1.057-.061-1.704-.269a23.24 23.24 0 0 1-.995-.35l-.046-.017a31.28 31.28 0 0 0-1.007-.358c-.713-.236-1.465-.428-2.217-.428-.81 0-1.612.227-2.39.51-.35.127-.703.268-1.051.408l-.117.047c-.389.156-.774.308-1.16.442-1.537.532-3.029.747-4.588-.345C5.116.92 2.256 1.874.807 2.494A2.25 2.25 0 0 1 3 .75zM.764 3.252A2.25 2.25 0 0 0 3 5.25h19a2.25 2.25 0 0 0 2.233-1.976 2.296 2.296 0 0 1-1.188.482c-.639.073-1.319-.083-1.986-.296a25.592 25.592 0 0 1-1.023-.36l-.043-.016c-.33-.122-.658-.243-.988-.352-.691-.228-1.362-.394-2.005-.394-.69 0-1.403.194-2.159.47-.34.123-.68.26-1.03.4l-.117.047c-.39.156-.787.314-1.19.453-1.617.56-3.375.846-5.198-.43-2.452-1.716-5.228-.616-6.542-.026z" fill="#212121"></path>
</svg>
