<?xml version="1.0" encoding="UTF-8"?>
<svg xmlns="http://www.w3.org/2000/svg" width="9" height="16" viewBox="0 0 9 16" fill="none">
  <path d="M8.675 7.284c.18 0 .325-.148.325-.33V4.236a.879.879 0 0 0-.28-.643L5.085.23a.86.86 0 0 0-1.17 0L.28 3.594a.879.879 0 0 0-.28.643v7.472c0 .241.1.474.275.638l3.634 3.418a.86.86 0 0 0 1.181 0l3.635-3.418A.879.879 0 0 0 9 11.709v-5.52a.328.328 0 0 0-.325-.331.328.328 0 0 0-.326.33v5.067l-1.51-.492V5.19l1.51-.498v2.261c0 .183.146.331.326.331zm-4.5-6.4V2.94L2.407 4.575.77 4.035 4.175.886zM.65 4.692l1.51.498v5.573l-1.51.492V4.692zm3.524 10.421L.77 11.911l1.635-.532 1.77 1.664v2.07zm4.054-3.202l-3.404 3.202v-2.07l1.77-1.664 1.634.532zM6.593 4.575l-.468-.433a.322.322 0 0 0-.46.022.335.335 0 0 0 .022.468l.5.464v5.764L4.5 12.447 2.812 10.86V5.096L4.5 3.533l1.187 1.099a.322.322 0 0 0 .46-.022.335.335 0 0 0-.022-.468l-1.3-1.203V.884L8.23 4.036l-1.637.54z" fill="#212121"></path>
</svg>
