<?xml version="1.0" encoding="UTF-8"?>
<svg xmlns="http://www.w3.org/2000/svg" width="16" height="17" viewBox="0 0 16 17" fill="none">
  <path opacity=".4" fill-rule="evenodd" clip-rule="evenodd" d="M2.388 2.799a.137.137 0 0 0-.01.009l-.003.003-.032.032A8 8 0 0 0 7.998 16.5h.004a7.975 7.975 0 0 0 5.765-2.456l.003-.003.003-.002a7.976 7.976 0 0 0 2.225-5.71 7.973 7.973 0 0 0-2.425-5.568A8 8 0 0 0 2.388 2.8zm10.906.068A7.7 7.7 0 0 0 11.06 1.4l.716 2.986 1.518-1.518zm-1.764 1.65l-.692-2.889-1.11 2.889h1.802zm-2.049-.108l1.115-2.903-2.46 1.555v.002L9.48 4.409zM8.135 2.742l2.43-1.536a7.747 7.747 0 0 0-2.43-.435v1.971zM7.865.771a7.74 7.74 0 0 0-2.783.569l2.784 1.55V.77zM7.78 3.15L5.097 1.657l1.407 2.768L7.779 3.15zM6.25 4.517L4.846 1.76l-.414 2.717a.135.135 0 0 1-.012.04h1.827zm-2.07-.168l.425-2.797A7.71 7.71 0 0 0 2.67 2.901l1.51 1.448zm-.17.212L2.479 3.09a7.719 7.719 0 0 0-1.385 1.934l2.918-.463zm.155.248l-2.852.453 2.852 1.344V4.81zm-.096 2.05L1.206 5.51l1.587 2.626L4.07 6.86zM2.528 8.217L.878 5.49a7.736 7.736 0 0 0-.603 2.728h2.253zm-2.258.27a7.744 7.744 0 0 0 .549 2.88l1.71-2.88H.27zm.697 3.226a7.715 7.715 0 0 0 1.6 2.286l1.48-1.847-3.08-.439zm3.26.645l-1.464 1.828a7.697 7.697 0 0 0 2.158 1.407l-.693-3.235zm1.153 3.417c.803.288 1.643.44 2.485.454v-2.37L5.38 15.776zm2.755-1.93v2.384a7.745 7.745 0 0 0 2.65-.516l-2.65-1.868zm3.106 1.676a7.714 7.714 0 0 0 2.24-1.57l-1.69-1.626-.55 3.196zm.729-3.398l1.698 1.633a7.696 7.696 0 0 0 1.51-2.382l-.096-.037-3.113.786zm3.208-1.038l.096.037a7.75 7.75 0 0 0 .456-2.635h-2.247l1.695 2.598zm-2.135-2.733l-1.207 1.207V7.144l1.207 1.208zm-1.1-1.482l1.272 1.273 1.675-2.408-2.947 1.135zm3.277-1.137l-1.728 2.484h2.233a7.741 7.741 0 0 0-.505-2.484zm-.199-.472a7.713 7.713 0 0 0-1.534-2.206L11.97 4.573l3.052.688zm-3.455-.475v1.707L9.859 4.786h1.707zm-2.088 0l2.088 2.089v2.954l-2.089 2.089H6.524l-2.09-2.09V6.875l2.09-2.089h2.954zm-.27-.27L8 3.31 6.793 4.517h2.415zm-3.066.27L4.435 6.494V4.786h1.707zM4.165 7.145L2.958 8.352l1.207 1.207V7.145zm-.094 2.701L2.794 8.57l-1.588 2.673L4.07 9.846zm.094.254l-2.851 1.39 2.851.407V10.1zm.302 2.087l.673 3.14 1.135-3.14H4.467zm-.032-.27h1.708L4.435 10.21v1.708zm2.359.27L8 13.394l1.207-1.207H6.794zm2.691.104l1.277 3.076-2.553-1.8 1.276-1.276zm.25-.104l1.276 3.077.53-3.077H9.735zm2.1-.308l2.812-.71-2.812-1.088v1.798zm.108-2.046l2.805 1.085-1.537-2.353-1.268 1.268zm-.377.377l-1.708 1.708h1.708V10.21zm-3.77 3.362l-1.274-1.274-1.131 3.128 2.406-1.854zm4.04-8.752l2.953.665-2.954 1.137V4.82z" fill="#212121"></path>
</svg>
