<?xml version="1.0" encoding="UTF-8"?>
<svg xmlns="http://www.w3.org/2000/svg" width="11" height="17" viewBox="0 0 11 17" fill="none">
  <path fill-rule="evenodd" clip-rule="evenodd" d="M.25 8.21l1.175-1.13V3.605C.727 4.869.293 6.464.25 8.211zm1.42-4.742v3.376l1.656-1.59L1.67 3.468zm2.02 1.434l1.693-1.627H4.43l-.74 1.627zm.846-1.863H6.39L5.496.923l-.96 2.116zM5.685.74l.936 2.216 1.237-1.394C7.198 1.07 6.46.78 5.685.74zm2.363.971L6.871 3.039h2.36a6.101 6.101 0 0 0-1.183-1.327zm1.115 1.563H6.755l.718 1.698 1.69-1.698zM7.088 4.69L6.49 3.275h-.874L7.088 4.69zm.514.495L9.328 3.45v3.393l-1.726-1.66zm-.361-.013L5.5 3.498 3.756 5.174a3.997 3.997 0 0 1 3.485-.002zM2.04 6.824l-.37.355v.759a3.642 3.642 0 0 1 .37-1.114zm-.37 2.241v.755l.372.357a3.623 3.623 0 0 1-.371-1.112zm2.086 2.76L5.5 13.5l1.745-1.678a3.997 3.997 0 0 1-3.489.002zm3.332.484l-1.472 1.415h.874l.598-1.415zM6.39 13.96H4.536l.96 2.117.894-2.117zm-1.08 2.3l-1.042-2.3h-2.5l.033.048c.916 1.343 2.153 2.179 3.509 2.25zm-3.488-2.535H4.16l-.768-1.695-1.57 1.695zm1.869-1.628l.738 1.628h.954l-1.692-1.628zm-.365-.35L1.67 10.153v3.377l1.655-1.786zm-1.901-1.83v3.478C.727 12.131.293 10.534.25 8.788l1.175 1.13zm0-.335L.297 8.5l1.128-1.084v2.168zm4.26 6.676l.97-2.299h2.577l-.033.048c-.917 1.345-2.156 2.181-3.514 2.25zm3.889-2.86c.698-1.266 1.133-2.864 1.177-4.612L9.574 9.918v3.48zM9.328 9.82l-.368.355a3.642 3.642 0 0 0 .368-1.109v.754zm.246-.236l1.128-1.085-1.128-1.084v2.169zm-.246-2.406l-.37-.355c.182.345.307.717.37 1.104v-.749zm.246-.098V3.602c.698 1.265 1.133 2.862 1.177 4.61L9.574 7.08zm-.246 3.075v3.392l-1.726-1.733 1.726-1.66zm-1.855 1.871l-.717 1.698h2.407l-1.69-1.698zM5.31.741l-.98 2.161-1.188-1.339C3.8 1.073 4.536.783 5.31.741zm-2.359.972A6.101 6.101 0 0 0 1.77 3.039h2.359L2.95 1.713zm1.21 1.562H1.822l1.57 1.695.769-1.695zm-2.566-.413C2.582 1.415 3.96.5 5.5.5c1.54 0 2.918.915 3.905 2.362C10.393 4.31 11 6.304 11 8.5c0 2.196-.607 4.19-1.595 5.638C8.418 15.585 7.04 16.5 5.5 16.5c-1.54 0-2.918-.915-3.905-2.362C.607 12.69 0 10.696 0 8.5c0-2.196.607-4.19 1.595-5.638zm4.75 2.246c-1.948-.449-3.906.706-4.372 2.578-.467 1.873.734 3.755 2.682 4.204 1.948.449 3.905-.706 4.372-2.579.467-1.873-.734-3.755-2.682-4.203z" fill="url(#a)"></path>
  <defs>
    <radialGradient id="a" cx="0" cy="0" r="1" gradientUnits="userSpaceOnUse" gradientTransform="matrix(11 16.00001 -511.46978 351.63517 0 .5)">
      <stop offset=".039" stop-color="#C71111"></stop>
      <stop offset=".533" stop-color="#E93030"></stop>
      <stop offset="1" stop-color="#C71111"></stop>
    </radialGradient>
  </defs>
</svg>
