<?xml version="1.0" encoding="UTF-8"?>
<svg xmlns="http://www.w3.org/2000/svg" width="15" height="16" viewBox="0 0 15 16" fill="none">
  <path fill-rule="evenodd" clip-rule="evenodd" d="M4.415 0h6.096l.01.002c1.013.162 1.903.875 2.674 1.805.676.816 1.272 1.813 1.79 2.795l.015.03v6.498l-.01.026c-.04.094-.08.187-.122.278a10.423 10.423 0 0 1-1.676 2.632c-.975 1.104-1.984 1.71-2.649 1.927l-.021.007H4.25l-.026-.01c-.971-.408-1.825-1.147-2.503-1.925C.853 13.07.26 11.992.074 11.42a1.103 1.103 0 0 1-.064-.318V4.687a.14.14 0 0 1-.003-.097l.007-.02.008-.017c.51-1.177 1.106-2.079 1.7-2.757C2.794.568 3.866.066 4.406.001L4.415 0zM.29 4.859l1.372.619L.29 7.44V4.86zm0 3.069v.048l.03-.022 1.67 2.27L3.146 7.98l-1.24-2.366L.288 7.928zm1.839-2.492l1.16 2.21 1.188-2.831-2.348.62zm2.76-1.041l2.253-.842-1.943-1.15-.31 1.992zm.442-2.238L7.462.322l2.159 1.835L7.46 3.42 5.33 2.157zm2.455 1.396l2.266.843-.299-1.994-1.967 1.151zm2.235-1.25l2.924-.255-.08 3.118-2.516-.668-.328-2.194zm.44 2.512l1.201 2.89 1.162-2.262-2.363-.628zm2.562.85l-1.217 2.37 1.21 2.252 1.673-2.4-1.666-2.221zm1.699 2.663l-1.513 2.17 1.463.693.05-.116V8.328zm-.164 3.116l-1.412-.669.072 2.83c.477-.585.94-1.3 1.34-2.161zm-1.613 2.388l-.079-3.094-2.516.747-.329 2.274 2.924.073zm-3.191-.173l.3-2.08-2.231.864 1.931 1.216zm-2.228-1.4l2.6-1.005 1.372-3.219-1.38-3.318-2.655-.987-2.642.987-1.393 3.318L4.78 11.18l2.744 1.08zm-2.649-.744l2.326.916-2 1.252-.326-2.168zm-.442-.435l-1.17-2.718-1.092 2.114 2.262.604zM1.8 10.437L.289 8.383v2.72a.42.42 0 0 0 .009.074l1.5-.74zm-1.42 1.01c.188.498.651 1.333 1.319 2.158l.083-2.85-1.402.692zm1.682-.714l2.513.672.005.01.352 2.344-2.96.073.09-3.099zm.07 3.373l2.75-.068-.678 1.639c-.776-.354-1.48-.933-2.071-1.571zm2.356 1.616h2.526l-1.865-1.597-.661 1.597zm.854-1.798l2.162-1.353 2.12 1.334-2.23 1.776-2.052-1.757zm2.446 1.798l2.002-1.594.519 1.594H7.787zm2.801-.04c.565-.216 1.375-.715 2.19-1.576l-2.725-.068.535 1.644zm1.075-7.324l-1.195 2.802 2.328-.692-1.133-2.11zm3.058-.892l-1.5-2 1.5-.595v2.595zm-.056-2.872l-1.522.603.074-2.915c.532.695 1.015 1.502 1.448 2.312zm-1.86-2.813l-2.75.24.54-1.723c.798.167 1.535.716 2.21 1.483zM10.31.278H7.84l1.95 1.658.52-1.658zm-3.223 0L5.16 1.937 4.616.277h2.47zM4.328.296l.57 1.74c-.72-.024-2.007-.161-2.788-.254C3.012.816 3.868.397 4.328.296zm-2.63 1.963l.082 2.967-1.46-.658c.421-.95.898-1.71 1.377-2.31zm.36 2.908L1.97 2.045c.776.094 2.195.248 2.959.27l-.34 2.182-2.532.67z" fill="url(#a)"></path>
  <defs>
    <radialGradient id="a" cx="0" cy="0" r="1" gradientUnits="userSpaceOnUse" gradientTransform="matrix(15 15.99999 -546.65673 512.49086 0 0)">
      <stop offset=".039" stop-color="#1144C7"></stop>
      <stop offset=".533" stop-color="#3B69DE"></stop>
      <stop offset="1" stop-color="#1144C7"></stop>
    </radialGradient>
  </defs>
</svg>
