<?xml version="1.0" encoding="UTF-8"?>
<svg xmlns="http://www.w3.org/2000/svg" width="13" height="17" viewBox="0 0 13 17" fill="none">
  <path d="M10.884 2.425l-1.36-1.378A.157.157 0 0 0 9.412 1H3.586a.157.157 0 0 0-.111.046L2.11 2.426a.145.145 0 0 0 0 .208L6.39 6.75c.06.058.157.058.218 0l4.276-4.117a.145.145 0 0 0 0-.209zM7.04 1.298l1.07 1.081H4.89l1.072-1.081H7.04zm-3.396 0h1.89l-1.07 1.081h-1.88l1.06-1.081zM2.595 2.677h1.82l1.648 3.337-3.468-3.337zM6.5 6.207l-1.742-3.53h3.484L6.5 6.207zm.437-.191l1.645-3.34h1.822l-3.467 3.34zm1.598-3.637l-1.07-1.081h1.881l1.07 1.081H8.533z" fill="#212121"></path>
  <path d="M8.841 5.886l.473-.455a.145.145 0 0 0-.017-.21.159.159 0 0 0-.2 0L6.498 7.72l-2.596-2.5a.158.158 0 0 0-.217.016.145.145 0 0 0 0 .194l.472.456C1.405 7.14.228 10.305 1.527 12.957c.91 1.855 2.844 3.04 4.972 3.043 3.043-.005 5.506-2.388 5.5-5.321-.005-2.051-1.234-3.917-3.158-4.793zM6.39 8.028c.027.03.067.049.11.05v-.005c.04 0 .08-.016.109-.045l1.34-1.29c2.264.771 3.45 3.166 2.65 5.349-.802 2.182-3.286 3.325-5.55 2.553-2.264-.772-3.45-3.167-2.649-5.35.438-1.192 1.411-2.13 2.649-2.553l1.34 1.291zM4.382 15.28C1.755 14.156.57 11.192 1.736 8.66a5.115 5.115 0 0 1 2.646-2.551h.006l.414.405c-2.396.9-3.582 3.502-2.648 5.812.934 2.31 3.634 3.453 6.03 2.552 2.397-.9 3.582-3.502 2.648-5.812a4.576 4.576 0 0 0-2.648-2.552l.42-.405c2.627 1.124 3.812 4.088 2.646 6.62-1.165 2.533-4.24 3.675-6.868 2.551z" fill="#212121"></path>
  <path fill-rule="evenodd" clip-rule="evenodd" d="M9.524 1.046l1.36 1.38a.145.145 0 0 1 0 .208L6.608 6.75a.158.158 0 0 1-.218 0L2.11 2.634a.145.145 0 0 1 0-.209l1.365-1.378A.157.157 0 0 1 3.586 1h5.826c.042 0 .083.017.111.046zM2.04 2.356L3.404.976A.257.257 0 0 1 3.586.9h5.826c.068 0 .135.028.183.076l1.36 1.378a.246.246 0 0 1 0 .35l-.001.002-4.277 4.117a.259.259 0 0 1-.357 0M2.04 2.354a.245.245 0 0 0 0 .35l4.28 4.117m2.994-1.39l-.473.454.098.046c1.868.893 3.055 2.73 3.06 4.747.005 2.933-2.457 5.316-5.5 5.321-2.128-.004-4.063-1.188-4.971-3.043-1.285-2.62-.15-5.743 2.532-7.025l.097-.046-.472-.456a.145.145 0 0 1 0-.194.158.158 0 0 1 .217-.016l2.598 2.5 2.597-2.497a.159.159 0 0 1 .2 0 .145.145 0 0 1 .018.21zM6.499 7.58L3.972 5.148l-.006-.005a.258.258 0 0 0-.356.027.245.245 0 0 0 0 .326l.373.362C1.277 7.173.133 10.339 1.438 13c.926 1.89 2.897 3.095 5.061 3.1 3.095-.006 5.606-2.43 5.6-5.422-.005-2.045-1.202-3.906-3.084-4.821l.368-.355.005-.005a.245.245 0 0 0-.028-.354.259.259 0 0 0-.328 0L6.5 7.58zm-.1.458a.152.152 0 0 1-.01-.01l-1.34-1.29A4.263 4.263 0 0 0 2.4 9.29c-.801 2.183.385 4.578 2.649 5.35 2.264.772 4.748-.371 5.55-2.553.8-2.183-.386-4.578-2.65-5.35L6.61 8.028a.157.157 0 0 1-.11.045m0 0v.006a.16.16 0 0 1-.1-.041m.2.114a.254.254 0 0 0 .08-.052l1.296-1.248c2.176.775 3.303 3.092 2.53 5.2-.782 2.129-3.209 3.249-5.424 2.493-2.213-.755-3.368-3.093-2.587-5.22a4.17 4.17 0 0 1 2.53-2.473l1.294 1.246a.25.25 0 0 0 .177.08l.104.005v-.03zm.398-6.754h-.995l-.872.881H7.87l-.872-.881zm.042-.1H5.961L4.89 2.379h3.219l-1.07-1.081zM1.827 8.7c-1.142 2.48.017 5.384 2.594 6.486 2.58 1.104 5.596-.019 6.738-2.5 1.133-2.46.002-5.339-2.534-6.46l-.26.25a4.668 4.668 0 0 1 2.56 2.55c.956 2.365-.26 5.025-2.706 5.944-2.444.918-5.202-.246-6.158-2.608-.937-2.318.212-4.919 2.56-5.887l-.256-.251A5.011 5.011 0 0 0 1.827 8.7zm2.561-2.593l.414.405a4.931 4.931 0 0 0-.102.04c-2.328.934-3.466 3.495-2.546 5.772.934 2.31 3.634 3.453 6.03 2.552 2.397-.9 3.582-3.502 2.648-5.812a4.57 4.57 0 0 0-2.648-2.552l.42-.405c2.627 1.124 3.812 4.088 2.646 6.62-1.165 2.533-4.24 3.675-6.868 2.551C1.755 14.156.57 11.192 1.736 8.66a5.115 5.115 0 0 1 2.646-2.551h.006zm-.703-4.71l-.864.881h1.601l.872-.881H3.685zm1.848-.1h-1.89l-1.06 1.081h1.88l1.07-1.081zm-2.938 1.38l3.468 3.337-1.648-3.337h-1.82zm.248.1L5.72 5.545 4.352 2.777H2.843zM6.5 6.207l1.742-3.53H4.757L6.5 6.207zm-1.581-3.43l1.58 3.203L8.08 2.777H4.918zm2.018 3.239l3.467-3.34H8.581l-1.645 3.34zm.342-.469l2.877-2.77H8.643l-1.365 2.77zM8.576 2.28h1.6l-.872-.881h-1.6l.872.881zm-.042.1h1.881L9.346 1.298h-1.88l1.068 1.081z" fill="#212121"></path>
</svg>
