<?xml version="1.0" encoding="UTF-8"?>
<svg xmlns="http://www.w3.org/2000/svg" width="16" height="16" viewBox="0 0 16 16" fill="none">
  <path fill-rule="evenodd" clip-rule="evenodd" d="M10.017-.002l.713 1.304 1.304.713-1.304.713-.713 1.304-.713-1.304L8 2.015l1.304-.713.713-1.304zM3.948.227H6.39L7.682 1.75l-1.069 1.7h.173V4.6a4.948 4.948 0 0 1 2.31 1.682 4.932 4.932 0 0 1 6.084 4.79 4.9 4.9 0 0 1-.46 2.076l-.418-.195c.267-.572.416-1.21.416-1.882a4.47 4.47 0 0 0-5.341-4.378c.112.184.212.375.3.573a3.853 3.853 0 0 1 4.425 3.805 3.853 3.853 0 0 1-3.849 3.849 3.853 3.853 0 0 1-3.848-3.849c0-1.38.73-2.591 1.822-3.27a3.391 3.391 0 0 0-.314-.53 4.466 4.466 0 0 0-2.124 3.8 4.47 4.47 0 0 0 4.464 4.465c1.633 0 3.064-.88 3.843-2.194l.397.236a4.922 4.922 0 0 1-8.167.465 4.932 4.932 0 0 1-6.084-4.79A4.935 4.935 0 0 1 3.552 4.6V3.45h.173l-1.07-1.7L3.949.227zm.323 3.222h.22l-.347-1.447H3.36l.91 1.447zm-.83-1.91h.722l.3-.85h-.3l-.723.85zM4.951.69l-.3.85h1.043l-.3-.85h-.443zm.933 0l.3.85h.712l-.72-.85h-.291zm1.093 1.313h-.775L5.855 3.45h.211l.911-1.447zM5.381 3.449l.347-1.447H4.62l.346 1.447h.415zm-1.367.462v.625h.648v.462h-.844A4.473 4.473 0 0 0 .704 9.254a4.47 4.47 0 0 0 5.342 4.378 4.923 4.923 0 0 1-.3-.573A3.853 3.853 0 0 1 1.32 9.254a3.853 3.853 0 0 1 3.848-3.849 3.853 3.853 0 0 1 3.84 3.589l-.461.03A3.364 3.364 0 0 0 8.4 8.24a3.386 3.386 0 0 0-1.378 3.848 3.389 3.389 0 0 0 1.526-2.602l.46.031a3.852 3.852 0 0 1-1.813 3.009c.089.186.194.363.315.529a4.466 4.466 0 0 0 2.123-3.8c0-1.99-1.31-3.682-3.113-4.256H5.127v-.462h1.197v-.625h-2.31zm3.794 9.501a3.377 3.377 0 0 0 2.445 1.046 3.39 3.39 0 0 0 3.387-3.387A3.39 3.39 0 0 0 9.848 7.71a4.927 4.927 0 0 1-2.04 5.703zm-2.233-.796a4.927 4.927 0 0 1 2.04-5.703 3.377 3.377 0 0 0-2.446-1.046 3.39 3.39 0 0 0-3.387 3.387 3.39 3.39 0 0 0 3.793 3.362zM10.017.961l-.373.681-.681.373.681.373.373.681.373-.681.681-.373-.681-.373-.373-.681zm3.727 1.992l.713 1.303 1.304.714-1.304.713-.713 1.304-.713-1.304-1.304-.713 1.304-.714.713-1.303zm0 .962l-.373.682-.681.373.681.372.373.682.373-.682.681-.372-.681-.373-.373-.682z" fill="#9C3D54"></path>
</svg>
